<svg xmlns="http://www.w3.org/2000/svg" xmlns:xlink="http://www.w3.org/1999/xlink" viewBox="0 0 840.8 812.99"><defs><style>.cls-1{isolation:isolate;}.cls-2{fill:#94999c;}.cls-3{opacity:0.5;fill:url(#ÕÓ_È_Ó·_ÁÂ_ËÂÌÚ_2);}.cls-10,.cls-18,.cls-19,.cls-3{mix-blend-mode:multiply;}.cls-4{fill:#8d9da6;}.cls-5{fill:#dee3ed;}.cls-6{fill:#e1e8ec;}.cls-7{fill:#414e52;}.cls-8{fill:url(#linear-gradient);}.cls-9{fill:#687579;}.cls-10{fill:#595461;opacity:0.7;}.cls-11{fill:#283539;}.cls-12{fill:#e44d26;}.cls-13{fill:#f16529;}.cls-14{fill:#fff;}.cls-15{fill:#ebebeb;}.cls-16{fill:#0b74b8;}.cls-17{fill:#2eaade;}.cls-18{opacity:0.2;fill:url(#linear-gradient-2);}.cls-19{opacity:0.3;fill:url(#linear-gradient-3);}.cls-20{fill:#dab92d;}.cls-21{fill:#ffd83a;}</style><linearGradient id="ÕÓ_È_Ó·_ÁÂ_ËÂÌÚ_2" x1="424.1" y1="395.45" x2="424.1" y2="370" gradientUnits="userSpaceOnUse"><stop offset="0" stop-color="#fff"/><stop offset="1"/></linearGradient><linearGradient id="linear-gradient" x1="420.4" y1="9.87" x2="420.4" y2="323.98" gradientUnits="userSpaceOnUse"><stop offset="0" stop-color="#fff"/><stop offset="1" stop-color="#d8e1eb"/></linearGradient><linearGradient id="linear-gradient-2" x1="424.11" y1="166.24" x2="393.49" y2="181.03" xlink:href="#ÕÓ_È_Ó·_ÁÂ_ËÂÌÚ_2"/><linearGradient id="linear-gradient-3" x1="426.3" y1="156.7" x2="468.04" y2="156.7" xlink:href="#ÕÓ_È_Ó·_ÁÂ_ËÂÌÚ_2"/></defs><title>bb1</title><g class="cls-1"><g id="Layer_2" data-name="Layer 2"><g id="Layer_8" data-name="Layer 8"><rect class="cls-2" x="399.4" y="377.11" width="49.38" height="435.88"/><rect class="cls-3" x="399.4" y="377.11" width="49.38" height="19.67"/><polygon class="cls-4" points="372.86 804 399.39 804 399.39 771.3 372.86 804"/><polygon class="cls-2" points="475.3 804 448.77 804 448.77 771.3 475.3 804"/><rect class="cls-5" x="368.68" y="804" width="109.66" height="8.97"/><rect class="cls-6" x="423.12" y="771.31" width="1.93" height="32.7"/><rect class="cls-7" width="840.8" height="332.32"/><rect class="cls-8" x="9.86" y="9.14" width="821.08" height="312.6"/><rect class="cls-9" x="42.89" y="332.32" width="750.85" height="44.85"/><rect class="cls-10" x="42.89" y="332.32" width="750.85" height="44.85"/><rect class="cls-7" x="0.01" y="386.15" width="840.79" height="5.29"/><rect class="cls-7" x="77.09" y="377.17" width="8.51" height="20.62"/><rect class="cls-7" x="309.88" y="377.17" width="8.51" height="20.62"/><rect class="cls-7" x="512.08" y="377.17" width="8.51" height="20.62"/><rect class="cls-7" x="744.87" y="377.17" width="8.51" height="20.62"/><rect class="cls-11" x="193.81" y="359.02" width="3.48" height="32.41"/><rect class="cls-7" x="178.96" y="349.48" width="33.17" height="11.67"/><rect class="cls-11" x="422.36" y="359.02" width="3.48" height="32.41"/><rect class="cls-7" x="407.51" y="349.48" width="33.17" height="11.67"/><rect class="cls-11" x="641.75" y="359.02" width="3.48" height="32.41"/><rect class="cls-7" x="626.9" y="349.48" width="33.17" height="11.67"/><polygon points="104.19 76.77 111.59 76.77 111.59 84.07 118.35 84.07 118.35 76.77 125.75 76.77 125.75 98.9 118.35 98.9 118.35 91.48 111.59 91.48 111.59 98.9 104.19 98.9 104.19 76.77 104.19 76.77"/><polygon points="135.48 84.1 128.97 84.1 128.97 76.77 149.39 76.77 149.39 84.1 142.87 84.1 142.87 98.9 135.48 98.9 135.48 84.1 135.48 84.1"/><polygon points="152.63 76.77 160.34 76.77 165.09 84.54 169.83 76.77 177.54 76.77 177.54 98.9 170.18 98.9 170.18 87.93 165.09 95.8 164.96 95.8 159.87 87.93 159.87 98.9 152.63 98.9 152.63 76.77 152.63 76.77"/><polygon points="181.23 76.77 188.63 76.77 188.63 91.58 199.03 91.58 199.03 98.9 181.23 98.9 181.23 76.77 181.23 76.77"/><polygon class="cls-12" points="151.53 262.46 97.8 247.55 85.83 113.27 217.39 113.27 205.4 247.53 151.53 262.46"/><polygon class="cls-13" points="195.14 238.98 205.38 124.25 151.61 124.25 151.61 251.05 195.14 238.98"/><polygon class="cls-14" points="151.66 157.19 191.38 157.19 192.86 140.72 151.66 140.72 151.6 140.72 110.36 140.72 114.8 190.52 151.6 190.52 151.66 190.52 171.88 190.52 169.97 211.88 151.6 216.84 151.6 216.84 151.59 216.84 133.25 211.89 132.07 198.75 115.54 198.75 117.85 224.61 151.58 233.98 151.66 233.96 151.66 233.95 185.36 224.61 189.88 174.05 151.66 174.05 151.6 174.05 129.87 174.05 128.36 157.19 151.6 157.19 151.66 157.19"/><polygon class="cls-15" points="151.61 216.83 151.6 216.84 151.6 216.84 151.59 216.84 133.25 211.89 132.07 198.75 115.54 198.75 117.85 224.61 151.58 233.98 151.61 233.97 151.61 216.83"/><polygon class="cls-15" points="151.61 190.52 151.61 174.05 151.6 174.05 129.87 174.05 128.36 157.19 151.6 157.19 151.61 157.19 151.61 140.72 151.6 140.72 110.36 140.72 114.8 190.52 151.6 190.52 151.61 190.52"/><polygon points="391.51 76 391.51 83.1 391.51 92.33 391.51 99.44 399.35 99.44 410.31 99.44 410.31 92.33 399.35 92.33 399.35 83.1 410.31 83.1 410.31 76 399.35 76 391.51 76"/><polygon points="414.04 82.27 424.5 93.17 414.04 93.17 414.04 99.44 435.42 99.44 435.42 93.17 425.42 82.27 435.42 82.27 435.42 76 414.04 76 414.04 82.27"/><polygon points="461.11 76 439.73 76 439.73 82.27 450.19 93.17 439.73 93.17 439.73 99.44 461.11 99.44 461.11 93.17 451.1 82.27 461.11 82.27 461.11 76"/><polygon class="cls-16" points="426.23 262.57 371.87 247.48 359.76 111.62 492.86 111.62 480.73 247.46 426.23 262.57"/><polygon class="cls-17" points="470.35 238.81 480.71 122.73 426.31 122.73 426.31 251.01 470.35 238.81"/><polygon class="cls-15" points="389.07 190 466.55 156.28 468.04 139.61 387.59 173.34 389.07 190"/><polygon class="cls-18" points="389.07 190 466.55 156.28 468.04 139.61 387.59 173.34 389.07 190"/><polygon class="cls-15" points="426.3 139.61 384.58 139.61 384.98 144.08 386.06 156.28 426.36 156.28 426.36 139.61 426.3 139.61"/><polygon class="cls-14" points="465.03 173.34 426.3 173.34 426.3 190 446.82 190 444.88 211.61 426.3 216.63 426.3 233.96 460.46 224.49 465.03 173.34"/><polygon class="cls-14" points="426.3 157.11 426.3 173.79 466.55 156.28 468.04 139.61 426.3 157.11"/><polygon class="cls-19" points="426.3 157.11 426.3 173.79 466.55 156.28 468.04 139.61 426.3 157.11"/><polygon class="cls-15" points="387.59 173.34 389.07 190 426.36 190 426.36 173.34 387.59 173.34"/><polygon class="cls-14" points="468.04 139.61 426.3 139.61 426.3 156.24 426.3 156.28 466.49 156.28 466.49 156.28 466.55 156.28 468.04 139.61"/><polygon class="cls-15" points="426.3 216.63 426.3 216.63 407.75 211.62 406.56 198.33 397.54 198.33 389.83 198.33 392.17 224.49 426.3 233.97 426.3 233.97 426.3 216.63"/><polygon class="cls-20" points="689.67 261.93 634.74 246.68 622.5 109.39 757 109.39 744.75 246.66 689.67 261.93"/><polygon class="cls-21" points="734.26 237.91 744.73 120.61 689.75 120.61 689.75 250.25 734.26 237.91"/><polygon class="cls-14" points="692.78 137.45 692.78 188.37 709.62 188.37 709.82 188.37 707.86 210.21 692.78 214.28 692.78 231.77 723.6 223.23 728.22 171.53 709.62 171.53 709.62 154.29 729.7 154.29 729.76 154.29 731.26 137.45 692.78 137.45"/><polygon class="cls-14" points="669.67 137.45 672.21 211.16 667.03 209.94 665.93 196.79 652.22 196.79 654.57 223.23 685.4 231.78 685.4 137.45 669.67 137.45"/><polygon points="711.94 73.38 690.33 73.38 690.33 79.72 700.9 90.73 690.33 90.73 690.33 97.07 711.94 97.07 711.94 90.73 701.83 79.72 711.94 79.72 711.94 73.38"/><polygon points="678.65 89.89 675.48 89.89 675.48 88.33 667.56 88.33 667.56 89.89 667.56 95.44 667.56 97.07 686.57 97.07 686.57 73.38 678.65 73.38 678.65 89.89"/></g></g></g></svg>