<svg xmlns="http://www.w3.org/2000/svg" viewBox="0 0 283.6 564.74"><defs><style>.cls-1{isolation:isolate;}.cls-2{fill:#414e52;}.cls-3{fill:#595461;opacity:0.5;mix-blend-mode:multiply;}.cls-4{fill:#454f6b;}.cls-5{fill:#5b686c;}.cls-6{fill:#61dafb;}</style></defs><title>bb2</title><g class="cls-1"><g id="Layer_2" data-name="Layer 2"><g id="Layer_9" data-name="Layer 9"><rect class="cls-2" x="56.4" y="433.2" width="170.8" height="116.7"/><rect class="cls-3" x="56.4" y="433.2" width="170.8" height="17.41"/><rect class="cls-3" x="56.4" y="521.78" width="170.8" height="17.41"/><rect class="cls-2" width="283.6" height="433.2"/><rect class="cls-4" x="19.86" y="18.42" width="243.88" height="393.47"/><rect class="cls-5" x="35.95" y="466.53" width="211.71" height="55.24"/><rect class="cls-5" x="6.71" y="549.91" width="270.18" height="14.84"/><path class="cls-6" d="M226.93,181.62c0-11.68-14.63-22.75-37.05-29.61,5.18-22.86,2.88-41-7.26-46.86a15.7,15.7,0,0,0-8.05-2v8a8.34,8.34,0,0,1,4.1.93c4.89,2.81,7,13.48,5.35,27.21-.39,3.37-1,6.93-1.83,10.56a176,176,0,0,0-22.82-3.92,175.21,175.21,0,0,0-15-18c11.72-10.89,22.71-16.86,30.19-16.86v-8h0c-9.88,0-22.82,7-35.9,19.26-13.08-12.14-26-19.12-35.9-19.12v8c7.44,0,18.47,5.93,30.19,16.74a171.53,171.53,0,0,0-14.85,17.93,169,169,0,0,0-22.85,4c-.83-3.6-1.44-7.08-1.87-10.42-1.69-13.73.4-24.4,5.25-27.24a8,8,0,0,1,4.13-.94v-8h0a16.06,16.06,0,0,0-8.12,2c-10.1,5.82-12.36,24-7.15,46.75-22.35,6.9-36.91,17.93-36.91,29.58s14.63,22.74,37.05,29.61c-5.17,22.85-2.87,41,7.26,46.86a15.87,15.87,0,0,0,8.09,2c9.88,0,22.81-7,35.9-19.26C152,253,164.94,260,174.82,260a16,16,0,0,0,8.13-2c10.09-5.82,12.36-24,7.15-46.75C212.38,204.33,226.93,193.26,226.93,181.62Zm-46.79-24c-1.33,4.63-3,9.41-4.85,14.19-1.47-2.87-3-5.75-4.71-8.62s-3.41-5.68-5.17-8.41C170.51,155.56,175.43,156.5,180.14,157.65Zm-16.46,38.27c-2.8,4.85-5.67,9.45-8.66,13.73-5.35.46-10.78.72-16.24.72s-10.85-.26-16.17-.69c-3-4.27-5.89-8.84-8.7-13.65s-5.21-9.49-7.47-14.3c2.23-4.82,4.74-9.64,7.44-14.34s5.68-9.45,8.66-13.73c5.35-.47,10.78-.72,16.24-.72s10.85.25,16.17.68c3,4.28,5.9,8.84,8.7,13.66s5.21,9.49,7.47,14.3C168.86,186.4,166.38,191.21,163.68,195.92Zm11.61-4.67c1.94,4.81,3.59,9.63,5,14.3-4.71,1.15-9.67,2.12-14.81,2.87,1.77-2.76,3.53-5.6,5.18-8.51S173.82,194.12,175.29,191.25Zm-36.44,38.34a148.43,148.43,0,0,1-10-11.5c3.24.14,6.54.25,9.89.25s6.72-.07,10-.25A139.79,139.79,0,0,1,138.85,229.59Zm-26.73-21.17c-5.1-.75-10-1.68-14.74-2.83,1.33-4.64,3-9.42,4.86-14.2,1.47,2.88,3,5.75,4.7,8.63S110.36,205.69,112.12,208.42Zm26.55-74.78a146.05,146.05,0,0,1,10,11.5c-3.23-.14-6.54-.25-9.88-.25s-6.72.07-10,.25A143.42,143.42,0,0,1,138.67,133.64Zm-26.59,21.17c-1.76,2.77-3.52,5.61-5.17,8.52s-3.2,5.75-4.67,8.62c-1.94-4.81-3.6-9.63-5-14.3C102,156.54,106.94,155.56,112.08,154.81Zm-32.52,45c-12.72-5.43-21-12.54-21-18.18s8.23-12.8,21-18.19c3.09-1.32,6.47-2.51,10-3.62a173.32,173.32,0,0,0,8.09,21.88,170.38,170.38,0,0,0-8,21.78C86.07,202.35,82.69,201.13,79.56,199.8Zm19.33,51.35c-4.88-2.8-7-13.47-5.35-27.2.39-3.38,1-6.94,1.83-10.57a173.25,173.25,0,0,0,22.82,3.92,174.29,174.29,0,0,0,14.95,18c-11.72,10.89-22.71,16.85-30.19,16.85A8.54,8.54,0,0,1,98.89,251.15Zm85.24-27.38c1.69,13.73-.39,24.4-5.25,27.24a8,8,0,0,1-4.13.93c-7.44,0-18.47-5.93-30.18-16.74a170.6,170.6,0,0,0,14.84-17.94,167.44,167.44,0,0,0,22.85-3.95A98.51,98.51,0,0,1,184.13,223.77Zm13.84-24c-3.09,1.33-6.47,2.52-10,3.63a173.21,173.21,0,0,0-8.08-21.88,170.83,170.83,0,0,0,8-21.78c3.56,1.11,6.94,2.34,10.1,3.66C210.72,168.86,219,176,219,181.62S210.69,194.41,198,199.8Z"/><circle class="cls-6" cx="138.75" cy="181.62" r="16.42"/><path class="cls-6" d="M57.05,281.83H72.66A25.76,25.76,0,0,1,81.2,283a13.74,13.74,0,0,1,5.27,3.15,10.6,10.6,0,0,1,2.65,4.31,15.4,15.4,0,0,1,.74,4.66,15,15,0,0,1-1.54,7.15,12.18,12.18,0,0,1-5.18,4.88l9,18.68H82.15l-7.39-16.53H66.12v16.53H57.05Zm16.23,19.86a11.61,11.61,0,0,0,3.57-.47,5.51,5.51,0,0,0,2.25-1.29,4.32,4.32,0,0,0,1.14-2,10.08,10.08,0,0,0,.31-2.6,6.81,6.81,0,0,0-.37-2.25,4.73,4.73,0,0,0-1.26-1.91,6,6,0,0,0-2.47-1.29,14.27,14.27,0,0,0-4-.47H66.12v12.28Z"/><path class="cls-6" d="M124.89,315.81a12.62,12.62,0,0,1-4.35,8.24q-3.48,2.79-10.14,2.8-8,0-12.06-4.44t-4-12.58a20.88,20.88,0,0,1,1.17-7.25,15.5,15.5,0,0,1,3.31-5.4,13.77,13.77,0,0,1,5.08-3.36,18.11,18.11,0,0,1,6.54-1.14q7.39,0,11.13,4.26t3.73,11.47v3.45H102.94a9.59,9.59,0,0,0,2,6.08,6.86,6.86,0,0,0,5.55,2.19c3.41,0,5.43-1.44,6-4.32Zm-8-9.62A7.55,7.55,0,0,0,115.3,301c-1.09-1.24-2.78-1.85-5.09-1.85a7.64,7.64,0,0,0-3,.55,6.74,6.74,0,0,0-2.19,1.51,7.25,7.25,0,0,0-1.39,2.22,8.46,8.46,0,0,0-.55,2.75Z"/><path class="cls-6" d="M150.86,321.79a17.22,17.22,0,0,1-4.29,3.52,12.33,12.33,0,0,1-6.14,1.36,14.93,14.93,0,0,1-4.1-.56,9.55,9.55,0,0,1-3.39-1.73,8.43,8.43,0,0,1-2.31-3,10,10,0,0,1-.86-4.35,9.19,9.19,0,0,1,1.48-5.43,10,10,0,0,1,3.88-3.26,19.51,19.51,0,0,1,5.4-1.67,48.74,48.74,0,0,1,6.07-.61l4.14-.19v-1.6c0-2-.55-3.33-1.64-4.07a6.68,6.68,0,0,0-3.85-1.11q-5.13,0-5.86,3.88l-7.9-.74q.87-5.06,4.44-7.3c2.39-1.5,5.59-2.26,9.62-2.26a19.34,19.34,0,0,1,6.3.9,10.14,10.14,0,0,1,4.16,2.56,9.75,9.75,0,0,1,2.28,4,18.69,18.69,0,0,1,.71,5.33v20.35h-8.14Zm-.19-10.3-3.82.19a21.75,21.75,0,0,0-4.38.55,7.83,7.83,0,0,0-2.56,1.08,3.16,3.16,0,0,0-1.2,1.51,5.59,5.59,0,0,0-.31,1.91,3.11,3.11,0,0,0,1.11,2.53,4.67,4.67,0,0,0,3.09.93,9,9,0,0,0,5.42-1.54,6.85,6.85,0,0,0,1.91-2.19,6.66,6.66,0,0,0,.74-3.3Z"/><path class="cls-6" d="M195.26,314.21a14.15,14.15,0,0,1-4,9.22q-3.48,3.42-10.45,3.42a18.23,18.23,0,0,1-7-1.23,12.55,12.55,0,0,1-4.84-3.46,14.51,14.51,0,0,1-2.81-5.36,24.55,24.55,0,0,1-.92-7,21.33,21.33,0,0,1,1.08-7,15.12,15.12,0,0,1,3.11-5.43,13.73,13.73,0,0,1,5-3.48,19.43,19.43,0,0,1,12.48-.4,11.75,11.75,0,0,1,4.1,2.31,10.24,10.24,0,0,1,2.59,3.54,15.92,15.92,0,0,1,1.24,4.53l-8.7,1.18a8.42,8.42,0,0,0-1.42-4,4.45,4.45,0,0,0-3.82-1.51,6,6,0,0,0-3.27.83,6.12,6.12,0,0,0-2.06,2.25,10.14,10.14,0,0,0-1.08,3.24,22.32,22.32,0,0,0-.31,3.8,23.1,23.1,0,0,0,.31,3.88,10.65,10.65,0,0,0,1.05,3.27,5.8,5.8,0,0,0,2,2.25,6,6,0,0,0,3.27.83,5.28,5.28,0,0,0,4-1.48,6.8,6.8,0,0,0,1.66-4.25Z"/><path class="cls-6" d="M203.4,300.39h-5.06v-6.72h5.06V285.1H212v8.57h7.41v6.72H212v14.86c0,1.69.35,2.83,1.05,3.43a4.09,4.09,0,0,0,2.72.89,17.39,17.39,0,0,0,1.75-.09,10.33,10.33,0,0,0,1.76-.34l1.23,6.35a20,20,0,0,1-3.48.77,26.46,26.46,0,0,1-3.24.22q-5.3,0-7.86-2.53c-1.71-1.69-2.56-4.52-2.56-8.51Z"/></g></g></g></svg>