<svg xmlns="http://www.w3.org/2000/svg" xmlns:xlink="http://www.w3.org/1999/xlink" viewBox="0 0 245.85 614.11"><defs><style>.cls-1{fill:#5b686c;}.cls-2{fill:url(#linear-gradient);}.cls-3{fill:#474443;}.cls-4{fill:#464342;}.cls-5,.cls-6{fill:#444;}.cls-6{fill-rule:evenodd;}</style><linearGradient id="linear-gradient" x1="124.03" y1="-66.97" x2="124.03" y2="489.84" gradientUnits="userSpaceOnUse"><stop offset="0" stop-color="#fff"/><stop offset="1" stop-color="#d8e1eb"/></linearGradient></defs><title>bb3</title><g id="Layer_2" data-name="Layer 2"><g id="Layer_9" data-name="Layer 9"><polygon class="cls-1" points="0 0 0 614.11 15.35 614.11 15.35 512.33 231.72 512.33 231.72 614.11 245.85 614.11 245.85 0 0 0"/><rect class="cls-2" x="15.68" y="14.57" width="216.69" height="483.06"/><path class="cls-3" d="M119.49,44h6.86c.1.17.28.1.42.11,1.8.1,3.59.28,5.38.53a64.37,64.37,0,0,1,19.32,5.84,66,66,0,0,1,37.21,54.09,5.23,5.23,0,0,0,.23,1.84v7.13c-.21.11-.12.31-.13.47a65.94,65.94,0,0,1-60.43,61.72,8,8,0,0,0-2.13.23h-6.86c-.11-.2-.31-.12-.47-.13A65.45,65.45,0,0,1,103.25,173a64.39,64.39,0,0,1-25.61-15,65.2,65.2,0,0,1-20.47-42.33,7.12,7.12,0,0,0-.23-2.06V106.3c.18-.09.12-.27.13-.41a62.75,62.75,0,0,1,2.34-13.8A65.27,65.27,0,0,1,85.72,55.52,64.43,64.43,0,0,1,117.3,44.25,9,9,0,0,0,119.49,44ZM122.92,48A62,62,0,1,0,185,110,62,62,0,0,0,122.92,48Z"/><path class="cls-4" d="M108.74,144.87c-.46-1.36-.92-2.69-1.37-4L88.41,85c-.55-1.64-.42-1.82,1.31-1.82H95.2c.74,0,.9-.15.91-.87V79.53c0-.77-.18-.91-1-.87-6.48.31-13,.43-19.45.47a2.3,2.3,0,0,1-.26,0c17.88-28.86,59.89-35,85.72-10.93a20.15,20.15,0,0,0-2.95.38,9.05,9.05,0,0,0-6.93,8.1,16.67,16.67,0,0,0,2.23,10c1.38,2.5,2.89,4.93,4.27,7.42A27.33,27.33,0,0,1,161,110.67a65.41,65.41,0,0,1-3.32,13.6c-2.15,6.45-4.25,12.92-6.37,19.38-.05.17-.12.33-.18.5-.27-.1-.25-.36-.31-.55q-10-29.32-19.92-58.64c-.05-.14-.1-.29-.14-.44-.21-.84.1-1.29,1-1.32,1.34,0,2.68,0,4,0q.85,0,1.71,0c.55,0,.81-.23.8-.79,0-1,0-1.94,0-2.9,0-.73-.18-.87-.93-.84-7.38.32-14.77.43-22.16.29-3.17-.06-6.33-.19-9.49-.29-.73,0-.9.13-.9.87,0,.92,0,1.84,0,2.77,0,.72.17.89.89.89H111c1.32,0,1.64.22,2.1,1.45q4.05,11.07,8.1,22.13a1.27,1.27,0,0,1,0,.88Q115.11,126,109,144.38C109,144.53,109,144.73,108.74,144.87Z"/><path class="cls-4" d="M123.91,114.25c1.32,3.6,2.6,7.08,3.87,10.56l13.84,37.83c.3.82.3.82-.52,1.1a56.91,56.91,0,0,1-34.13.71c-.41-.12-.54-.24-.38-.69l17.12-49C123.75,114.62,123.81,114.5,123.91,114.25Z"/><path class="cls-4" d="M98.49,161.14c-27.56-12.82-40.15-46.37-27.23-74.55C71.62,87.23,98.43,160.63,98.49,161.14Z"/><path class="cls-4" d="M172.82,83.17c14.06,24.81,6.35,60.82-22.54,76.46-.07-.26.09-.46.16-.68q8.9-25.23,17.78-50.45a85.78,85.78,0,0,0,4.29-18.44,44.36,44.36,0,0,0,.31-6Z"/><path class="cls-5" d="M102.19,425.24a13.27,13.27,0,0,0-7.76-10.31,21.93,21.93,0,0,0-9.33-2.12c-4.19-.06-8.36,0-12.55,0H59.4c-.37,0-.55.06-.61.49q-2.17,11.08-4.36,22.18-2.28,11.37-4.49,22.73c-.78,4.06-1.57,8.12-2.42,12.12-.06.3,0,.43.3.43H60.67c.31,0,.43-.07.43-.37.3-1.57.6-3.09.91-4.6.6-3.28,1.21-6.49,1.81-9.7.07-.24.12-.37.43-.37,4.24,0,8.48-.12,12.67,0a23.4,23.4,0,0,0,14.42-4.24C100.49,445.24,103.71,434.39,102.19,425.24Zm-14.12,6.48a28.61,28.61,0,0,1-.55,3.27,15.09,15.09,0,0,1-2.6,5.7A11.34,11.34,0,0,1,79,444.33a20.37,20.37,0,0,1-5,.67H67.16c-.24,0-.43,0-.37-.37q1.74-10.19,3.46-20.36V424c0-.3.12-.48.48-.42H76a46.44,46.44,0,0,1,5,.06A9.69,9.69,0,0,1,85,424.69a5.53,5.53,0,0,1,3.09,4.24A14.35,14.35,0,0,1,88.07,431.72Z"/><path class="cls-5" d="M198,425.05a12.88,12.88,0,0,0-7.22-9.88,22.34,22.34,0,0,0-10.24-2.36c-4.06-.06-8.06,0-12.12,0H155.23c-.43,0-.49.06-.61.43-.49,2.66-1,5.39-1.58,8.06-1.45,7.57-3,15.15-4.48,22.73-1.7,8.72-3.46,17.45-5.15,26.18-.13.55-.13.55.42.55h11.88c1.21,0,1.15,0,1.39-1.16.85-4.48,1.7-9,2.55-13.39.06-.3.12-.49.48-.49,4.49,0,9-.06,13.52,0a15.12,15.12,0,0,0,2.85-.12,23.4,23.4,0,0,0,14.06-7C197.05,442.09,199.35,434.09,198,425.05Zm-15.1,11.64c-1.39,4.43-4.42,7-9,7.88a17.16,17.16,0,0,1-4.3.43h-6.48c-.37,0-.49-.06-.43-.49.54-3,1-6.06,1.52-9.09.6-3.76,1.27-7.46,1.87-11.21.13-.85,0-.67.79-.67h5.28a44.24,44.24,0,0,1,4.84.06,9.36,9.36,0,0,1,4.25,1.27,5.53,5.53,0,0,1,2.79,5.58A24.39,24.39,0,0,1,182.86,436.69Z"/><path class="cls-5" d="M149.16,426.81c-1,5.58-1.88,11.09-2.85,16.61-.66,4-1.33,7.94-2,11.88-.07.36-.25.42-.55.42H130.44c-.43,0-.55-.06-.43-.48q2.55-13.37,5-26.73a7.43,7.43,0,0,0,.18-2.61,2.46,2.46,0,0,0-1.57-1.94,7.11,7.11,0,0,0-2.55-.42H120.25c-.36-.06-.42.18-.42.42-.67,3.09-1.27,6.25-1.88,9.34l-4.37,21.94c-.12.36-.24.48-.6.48H100.43c-.54,0-.54,0-.48-.54,1.76-8.73,3.45-17.52,5.21-26.25L110.07,404c.42-1.94.79-3.88,1.15-5.82.06-.36.24-.42.55-.42h12.66c.43,0,.49.06.37.48-.85,4.61-1.76,9.28-2.61,13.88-.18.67-.18.67.49.67,3.82,0,7.69-.06,11.51,0A21.14,21.14,0,0,1,144,415a9.62,9.62,0,0,1,5.34,6.91A12.13,12.13,0,0,1,149.16,426.81Z"/><g id="Page-1"><g id="acf"><path id="Shape" class="cls-6" d="M82.1,269.46l5.62,15.35-11,.11c.13-1.25,2.08-6.15,2.6-7.69l2.6-7.47A1,1,0,0,1,82.1,269.46Zm63.22,1.79h7.49v10.91h-7.49c-1,3.85-3.92,7.42-7,9.67-11.35,8.14-28.78.37-28.84-15a18.37,18.37,0,0,1,15.51-18.26C134,257.1,143.18,263,145.32,271.25ZM50,309.46v.14l17.11,0,3.48-9.18c.31-.62,0-.26.42-.49l22.45,0c.33,1.1,3.4,9,3.81,9.5l17.82.15-1-2.52c4.85,1.51,8.61,3,15.11,2.93a32.49,32.49,0,0,0,19.17-7.22,19.61,19.61,0,0,0,2.24-2c.71-.72,1.43-1.43,2.17-2.16l0,11.36h15.91V297.93c0-1.91-.24-11.06.09-12.16l25.4-.06V270.82H168.85l-.14-.2c-.15-.51-.06-5.21-.06-5.8,0-1.25-.3-5.33.16-6.18l27-.06V243.18h-43.1l.06,11.57c-2.75-2.58-2.23-2.59-5.84-5.22a33.14,33.14,0,0,0-42.53,3.52c-.51.5-.83.91-1.35,1.42a33.56,33.56,0,0,0-5.93,9.39l-.5,1c-.66-2-5.54-13.43-6.77-16.45A50.62,50.62,0,0,0,87.56,243H76.34Z"/></g></g><path class="cls-4" d="M120,212.12h-8.13V206.5H120v-8.84h5.86v8.84H134v5.62h-8.14V221H120Z"/><path class="cls-4" d="M120,351.62h-8.13V346H120v-8.84h5.86V346H134v5.62h-8.14v8.84H120Z"/></g></g></svg>