<svg xmlns="http://www.w3.org/2000/svg" viewBox="0 0 696 696"><defs><style>.cls-1{fill:#f5ab35;}.cls-2{fill:#f4d03f;}</style></defs><title>sun</title><g id="Layer_2" data-name="Layer 2"><g id="_ÎÓÈ_1" data-name="—ÎÓÈ_1"><path class="cls-1" d="M696,348c-63.27-39.31-71.24-76.76-27.35-135.46-72.71-9.43-93.55-40.11-74.58-110.61-70.5,19-101.18-1.87-110.61-74.58C424.76,71.24,387.31,63.27,348,0c-39.31,63.27-76.76,71.24-135.46,27.35-9.43,72.71-40.11,93.55-110.61,74.58,19,70.5-1.87,101.18-74.58,110.61C71.24,271.24,63.27,308.69,0,348c63.27,39.31,71.24,76.76,27.35,135.46,72.71,9.43,93.55,40.11,74.58,110.61,70.5-19,101.18,1.87,110.61,74.58C271.24,624.76,308.69,632.73,348,696c39.31-63.27,76.76-71.24,135.46-27.35,9.43-72.71,40.11-93.55,110.61-74.58-19-70.5,1.87-101.18,74.58-110.61C624.76,424.76,632.73,387.31,696,348ZM348,612.48C201.93,612.48,83.52,494.07,83.52,348S201.93,83.52,348,83.52,612.48,201.93,612.48,348,494.07,612.48,348,612.48Z"/><circle class="cls-2" cx="348" cy="348" r="264.48"/></g></g></svg>