<?xml version="1.0" standalone="no"?>
<!DOCTYPE svg PUBLIC "-//W3C//DTD SVG 20010904//EN"
 "http://www.w3.org/TR/2001/REC-SVG-20010904/DTD/svg10.dtd">
<svg version="1.0" xmlns="http://www.w3.org/2000/svg"
 width="789.000000pt" height="789.000000pt" viewBox="0 0 789.000000 789.000000"
 preserveAspectRatio="xMidYMid meet">
<metadata>
Created by potrace 1.11, written by Peter Selinger 2001-2013
</metadata>
<g transform="translate(0.000000,789.000000) scale(0.100000,-0.100000)"
fill="#000000" stroke="none">
<path d="M1477 6574 c-1 -1 -49 -5 -107 -8 -106 -7 -120 -8 -245 -27 -376 -57
-660 -219 -875 -499 -19 -25 -38 -47 -41 -50 -11 -9 -145 -213 -170 -259 -19
-35 -21 -44 -10 -49 8 -2 77 -36 155 -74 l141 -70 28 34 c273 314 556 474 907
513 30 3 73 8 95 10 49 6 5152 7 5180 1 11 -2 52 -7 90 -11 39 -3 100 -13 137
-21 37 -9 70 -15 73 -15 12 0 182 -62 219 -81 72 -36 209 -129 289 -196 60
-49 172 -166 223 -230 1 -2 72 31 159 72 148 72 155 76 145 97 -25 46 -126
198 -179 269 -148 199 -297 332 -472 420 -89 45 -256 105 -317 114 -24 3 -46
8 -50 10 -4 2 -28 7 -52 11 -25 3 -56 8 -70 10 -51 8 -107 14 -190 21 -67 6
-5057 13 -5063 8z"/>
<path d="M589 5291 c0 -51 0 -1996 0 -2056 l1 -50 223 0 222 0 0 1070 0 1070
-222 1 -223 1 -1 -36z"/>
<path d="M1649 5281 c0 -49 0 -2083 1 -2091 0 -4 1393 -5 1410 -1 3 0 6 9 6
19 2 31 13 131 18 154 3 13 8 50 11 82 3 33 8 74 11 93 l5 33 -508 2 -508 3 0
875 0 875 -222 1 -223 1 -1 -46z"/>
<path d="M3519 5321 c-1 -8 -1 -2113 0 -2126 1 -11 1465 -15 1476 -3 3 3 8 19
10 35 8 58 26 220 32 279 l5 61 -531 0 c-292 0 -534 3 -537 6 -8 7 -7 507 0
515 3 2 218 5 477 6 l472 1 1 193 1 192 -477 0 -478 0 0 43 c-1 23 -2 126 -3
230 -2 160 0 187 13 188 8 1 233 3 500 4 267 1 490 3 495 4 8 1 12 286 6 367
-1 12 -1460 17 -1462 5z"/>
<path d="M5600 4256 l0 -1071 213 0 c116 0 217 3 222 7 7 4 10 141 10 398 0
384 0 391 20 395 11 2 105 3 209 2 l188 -2 94 -210 c52 -115 120 -266 150
-335 31 -69 69 -154 85 -190 l30 -65 239 0 c132 0 240 3 240 7 0 7 -26 62
-155 333 -29 61 -75 157 -103 215 -27 58 -77 161 -109 230 l-60 125 50 29
c117 66 215 201 254 348 26 99 23 300 -6 406 -48 170 -156 289 -336 368 -59
26 -87 36 -145 49 -37 8 -71 16 -95 21 -16 4 -247 8 -512 9 l-483 3 0 -1072z
m950 675 c150 -48 215 -167 185 -341 -19 -112 -59 -160 -167 -202 -47 -19 -78
-22 -285 -24 -174 -3 -232 0 -235 9 -4 10 -3 578 1 584 0 1 99 1 219 -1 186
-3 226 -7 282 -25z"/>
<path d="M7563 2976 c-7 -13 -77 -95 -120 -141 -187 -203 -483 -360 -738 -391
-27 -4 -72 -10 -99 -14 -67 -10 -122 -11 -1086 -13 l-835 -2 -95 -33 c-176
-61 -361 -185 -578 -388 l-83 -77 -52 50 c-174 167 -418 338 -547 385 -131 48
-114 47 -1005 48 -462 0 -869 2 -905 4 -96 6 -224 18 -230 21 -3 2 -25 6 -49
10 -175 26 -377 120 -546 254 -78 62 -213 197 -248 248 -12 18 -27 32 -33 31
-26 -6 -304 -144 -304 -151 0 -4 24 -47 54 -95 125 -202 284 -385 421 -487
179 -133 432 -222 740 -260 28 -4 60 -8 73 -10 13 -2 65 -7 115 -10 51 -4 108
-8 127 -10 79 -9 538 -18 1050 -20 595 -2 575 0 709 -63 158 -73 402 -270 577
-467 l62 -69 168 170 c283 285 437 396 604 435 41 10 217 13 705 14 674 2 875
8 1113 30 504 48 797 165 1033 412 103 108 212 256 307 413 l21 36 -155 77
c-85 42 -156 77 -159 77 -2 0 -8 -6 -12 -14z"/>
</g>
</svg>
