<svg xmlns="http://www.w3.org/2000/svg" xmlns:xlink="http://www.w3.org/1999/xlink" viewBox="0 0 4500 320"><defs><style>.cls-1{fill:#bfe0ed;}.cls-2{fill:#96cfe2;}.cls-3{fill:url(#linear-gradient);}.cls-4{fill:#8bb984;}.cls-5{fill:#abc283;}.cls-6{fill:#6a9c63;}.cls-7{fill:#538f5d;}.cls-8{fill:#bdc7c9;}.cls-9{fill:#edf1fb;}.cls-10{fill:#fff;}.cls-11{fill:#020051;opacity:0.1;}.cls-12{fill:#9bc6da;}</style><linearGradient id="linear-gradient" x1="3254.1" y1="310.34" x2="3254.1" y2="55.11" gradientUnits="userSpaceOnUse"><stop offset="0" stop-color="#e9f6fd"/><stop offset="1" stop-color="#aebeb5"/></linearGradient></defs><title>backgroundlandscape</title><g id="Layer_2" data-name="Layer 2"><g id="Layer_1-2" data-name="Layer 1"><rect class="cls-1" x="909.69" y="235.42" width="33.77" height="77.63"/><rect class="cls-1" x="951.52" y="198.06" width="29.7" height="115"/><rect class="cls-1" x="958.41" y="246.79" width="57.06" height="66.26"/><rect class="cls-1" x="932.88" y="270.41" width="33.48" height="42.65"/><rect class="cls-1" x="1000.77" y="219.77" width="22.27" height="93.28"/><rect class="cls-1" x="1037.06" y="164.44" width="49.6" height="148.61"/><rect class="cls-1" x="1109.46" y="108.11" width="29.65" height="204.95"/><rect class="cls-1" x="1145.49" y="150.93" width="36.15" height="162.12"/><rect class="cls-1" x="1015.46" y="255.77" width="52.79" height="57.29"/><rect class="cls-1" x="1090.84" y="211.38" width="29.11" height="101.67"/><rect class="cls-1" x="1080.35" y="280.97" width="21.24" height="32.08"/><rect class="cls-1" x="899.06" y="280.97" width="21.24" height="32.08"/><rect class="cls-1" x="1109.46" y="248.89" width="42.35" height="64.16"/><rect class="cls-1" x="1177.06" y="227.16" width="93.86" height="85.89"/><rect class="cls-1" x="1444.95" y="280.88" width="93.87" height="32.17"/><rect class="cls-1" x="1270.92" y="276.66" width="17.17" height="36.4"/><rect class="cls-1" x="1279.51" y="218.67" width="61.24" height="94.38"/><rect class="cls-1" x="1330.45" y="151.42" width="33.92" height="161.63"/><rect class="cls-1" x="1349.91" y="253.91" width="45.79" height="59.15"/><rect class="cls-1" x="1384.25" y="209.43" width="26.33" height="103.63"/><rect class="cls-1" x="1404.85" y="179.35" width="62.96" height="133.7"/><rect class="cls-1" x="1193.08" y="136.12" width="19.46" height="176.94"/><rect class="cls-1" x="1247.49" y="256.09" width="16.27" height="56.96"/><rect class="cls-1" x="659.42" y="235.42" width="33.77" height="77.63"/><rect class="cls-1" x="701.25" y="198.06" width="29.71" height="115"/><rect class="cls-1" x="708.14" y="246.79" width="57.06" height="66.26"/><rect class="cls-1" x="682.61" y="270.41" width="33.48" height="42.65"/><rect class="cls-1" x="750.51" y="219.77" width="22.26" height="93.28"/><rect class="cls-1" x="786.79" y="164.44" width="49.6" height="148.61"/><rect class="cls-1" x="859.19" y="69.74" width="29.66" height="243.32"/><rect class="cls-1" x="895.22" y="150.93" width="36.15" height="162.12"/><rect class="cls-1" x="765.2" y="255.77" width="52.79" height="57.29"/><rect class="cls-1" x="840.57" y="211.38" width="29.1" height="101.67"/><rect class="cls-1" x="830.08" y="280.97" width="21.24" height="32.08"/><rect class="cls-1" x="648.8" y="280.97" width="21.24" height="32.08"/><rect class="cls-1" x="859.19" y="248.89" width="42.35" height="64.16"/><rect class="cls-1" x="926.79" y="227.16" width="93.86" height="85.89"/><rect class="cls-1" x="1194.68" y="227.16" width="93.87" height="85.89"/><rect class="cls-1" x="1020.65" y="276.66" width="17.17" height="36.4"/><rect class="cls-1" x="1029.24" y="218.67" width="61.24" height="94.38"/><rect class="cls-1" x="1080.18" y="171.04" width="19.46" height="142.01"/><rect class="cls-1" x="1099.64" y="253.91" width="45.79" height="59.15"/><rect class="cls-1" x="1133.98" y="209.43" width="26.33" height="103.63"/><rect class="cls-1" x="1154.59" y="179.35" width="62.96" height="133.7"/><rect class="cls-1" x="942.81" y="136.12" width="19.46" height="176.94"/><rect class="cls-1" x="997.23" y="256.09" width="16.27" height="56.96"/><rect class="cls-2" x="1450.68" y="262.97" width="41.75" height="50.08"/><rect class="cls-2" x="1403.99" y="238.86" width="36.73" height="74.19"/><rect class="cls-2" x="1361.65" y="270.31" width="70.55" height="42.75"/><rect class="cls-2" x="1422.35" y="285.54" width="41.4" height="27.51"/><rect class="cls-2" x="1352.28" y="252.88" width="27.53" height="60.18"/><rect class="cls-2" x="1273.62" y="217.18" width="61.33" height="95.87"/><rect class="cls-2" x="1208.77" y="156.08" width="36.67" height="156.97"/><rect class="cls-2" x="1156.19" y="222.73" width="44.69" height="90.32"/><rect class="cls-2" x="1296.38" y="276.1" width="65.27" height="36.96"/><rect class="cls-2" x="1232.47" y="247.46" width="35.99" height="65.59"/><rect class="cls-2" x="1255.16" y="292.36" width="26.27" height="20.7"/><rect class="cls-2" x="1479.3" y="292.36" width="26.27" height="20.7"/><rect class="cls-2" x="1193.07" y="271.66" width="52.37" height="41.39"/><rect class="cls-2" x="1045.8" y="257.64" width="116.05" height="55.41"/><rect class="cls-2" x="693.19" y="279.04" width="137.44" height="34.01"/><rect class="cls-2" x="1024.57" y="289.57" width="21.23" height="23.48"/><rect class="cls-2" x="959.46" y="252.16" width="75.72" height="60.89"/><rect class="cls-2" x="948.14" y="221.44" width="24.06" height="91.62"/><rect class="cls-2" x="891.52" y="274.89" width="56.62" height="38.16"/><rect class="cls-2" x="873.12" y="246.2" width="32.56" height="66.85"/><rect class="cls-2" x="802.36" y="226.8" width="77.84" height="86.26"/><rect class="cls-2" x="1117.98" y="216.52" width="24.06" height="96.54"/><rect class="cls-2" x="1054.65" y="276.3" width="20.11" height="36.75"/><path class="cls-3" d="M4180.39,191.58,4148,165.37s-28.59-3.54-38.11,15.11-105.51-25.76-105.51-25.76-37.48,24.89-44.63,21.15-77.26-108.65-88.35-80.48c-10.75,27.31-54.3.24-77.48,18.13s-90.52-23-90.52-23-96.85,41.44-105,51.6-35.75-35.74-35.75-35.74l-51-51.28-67.47,58.41s-48.11,38.78-56.28,28.61-59.74-44.89-59.74-44.89-112.61,34.17-135.79,16.28-66.72,9.18-77.47-18.13c-11.1-28.17-61.52,36.57-68.67,40.31s-64.31,19-64.31,19-96,44.41-105.52,25.76-38.1-15.11-38.1-15.11l-71.05,26.72L2490.89,264l-353.24,46.39h2232.9L4283.27,264Z"/><path class="cls-4" d="M2974.42,287.16v23.89H1991.86V299.2l127.23-10.64,40.17-5s35.44-.67,47.25,2.86,128.42-2.3,128.42-2.3,47.68-5.58,56.55-6.29,51.87,10.67,84.83,12.85,93.29-20.33,122-16.94,94.63-14.64,115.08-16.88,121.66,13.71,131.78,15.64,44.15-2.86,65.42,1.24S2974.42,287.16,2974.42,287.16Z"/><path class="cls-4" d="M1911.69,284.87v26.18H646.87l272.2-13,128.54-11.67,40.57-5.44s35.81-.73,47.74,3.14,129.73-2.52,129.73-2.52,48.17-6.12,57.13-6.9,78.34-8.66,111.64-6.28,68.31-1.91,97.35,1.8,92.74-2.32,113.4-4.77,121.35,8.6,131.57,10.71,49-10.43,70.5-5.94S1911.69,284.87,1911.69,284.87Z"/><rect class="cls-1" x="479.18" y="221.63" width="27.18" height="91.43"/><rect class="cls-1" x="448.79" y="177.62" width="23.91" height="135.44"/><rect class="cls-1" x="421.23" y="235.02" width="45.92" height="78.04"/><rect class="cls-1" x="460.74" y="262.83" width="26.95" height="50.23"/><rect class="cls-1" x="415.13" y="203.19" width="17.92" height="109.86"/><rect class="cls-1" x="363.92" y="138.03" width="39.92" height="175.03"/><rect class="cls-1" x="321.71" y="71.68" width="23.87" height="241.37"/><rect class="cls-1" x="287.48" y="122.11" width="29.09" height="190.94"/><rect class="cls-1" x="378.74" y="245.59" width="42.49" height="67.47"/><rect class="cls-1" x="337.14" y="193.31" width="23.43" height="119.74"/><rect class="cls-1" x="351.91" y="275.27" width="17.1" height="37.78"/><rect class="cls-1" x="497.81" y="275.27" width="17.1" height="37.78"/><rect class="cls-1" x="311.49" y="237.49" width="34.09" height="75.56"/><rect class="cls-1" x="215.62" y="211.89" width="75.55" height="101.16"/><rect class="cls-1" y="296.68" width="75.55" height="16.38"/><rect class="cls-1" x="201.8" y="270.19" width="13.82" height="42.87"/><rect class="cls-1" x="159.42" y="201.9" width="49.29" height="111.16"/><rect class="cls-1" x="140.41" y="122.7" width="27.3" height="190.36"/><rect class="cls-1" x="115.19" y="243.39" width="36.86" height="69.66"/><rect class="cls-1" x="103.21" y="191.01" width="21.19" height="122.04"/><rect class="cls-1" x="57.15" y="155.59" width="50.67" height="157.47"/><rect class="cls-1" x="262.61" y="104.67" width="15.66" height="208.39"/><rect class="cls-1" x="221.38" y="245.96" width="13.09" height="67.09"/><rect class="cls-1" x="680.61" y="221.63" width="27.18" height="91.43"/><rect class="cls-1" x="650.21" y="177.62" width="23.91" height="135.44"/><rect class="cls-1" x="622.66" y="235.02" width="45.93" height="78.04"/><rect class="cls-1" x="662.18" y="262.83" width="26.95" height="50.23"/><rect class="cls-1" x="616.56" y="203.19" width="17.92" height="109.86"/><rect class="cls-1" x="565.35" y="138.03" width="39.92" height="175.03"/><rect class="cls-1" x="523.14" y="26.49" width="23.87" height="286.56"/><rect class="cls-1" x="488.91" y="122.11" width="29.1" height="190.94"/><rect class="cls-1" x="580.17" y="245.59" width="42.49" height="67.47"/><rect class="cls-1" x="538.57" y="193.31" width="23.43" height="119.74"/><rect class="cls-1" x="553.34" y="275.27" width="17.1" height="37.78"/><rect class="cls-1" x="699.25" y="275.27" width="17.1" height="37.78"/><rect class="cls-1" x="512.92" y="237.49" width="34.09" height="75.56"/><rect class="cls-1" x="417.05" y="211.89" width="75.55" height="101.16"/><rect class="cls-1" x="201.43" y="211.89" width="75.55" height="101.16"/><rect class="cls-1" x="403.23" y="270.19" width="13.82" height="42.87"/><rect class="cls-1" x="360.85" y="201.9" width="49.29" height="111.16"/><rect class="cls-1" x="353.48" y="145.8" width="15.66" height="167.25"/><rect class="cls-1" x="316.62" y="243.39" width="36.86" height="69.66"/><rect class="cls-1" x="304.64" y="191.01" width="21.19" height="122.04"/><rect class="cls-1" x="258.58" y="155.59" width="50.67" height="157.47"/><rect class="cls-1" x="464.04" y="104.67" width="15.66" height="208.39"/><rect class="cls-1" x="422.81" y="245.96" width="13.1" height="67.09"/><rect class="cls-2" x="37.34" y="254.07" width="33.61" height="58.98"/><rect class="cls-2" x="78.96" y="225.68" width="29.56" height="87.38"/><rect class="cls-2" x="85.81" y="262.71" width="56.78" height="50.35"/><rect class="cls-2" x="60.42" y="280.65" width="33.32" height="32.4"/><rect class="cls-2" x="127.98" y="242.18" width="22.16" height="70.87"/><rect class="cls-2" x="164.09" y="200.14" width="49.36" height="112.91"/><rect class="cls-2" x="236.13" y="128.18" width="29.51" height="184.87"/><rect class="cls-2" x="271.99" y="206.68" width="35.97" height="106.38"/><rect class="cls-2" x="142.6" y="269.53" width="52.53" height="43.53"/><rect class="cls-2" x="217.6" y="235.8" width="28.97" height="77.25"/><rect class="cls-2" x="207.16" y="288.68" width="21.14" height="24.37"/><rect class="cls-2" x="26.76" y="288.68" width="21.14" height="24.37"/><rect class="cls-2" x="236.13" y="264.3" width="42.15" height="48.75"/><rect class="cls-2" x="303.4" y="247.79" width="93.41" height="65.26"/><rect class="cls-2" x="569.99" y="273" width="110.62" height="40.05"/><rect class="cls-2" x="396.81" y="285.4" width="17.09" height="27.66"/><rect class="cls-2" x="405.36" y="241.34" width="60.94" height="71.71"/><rect class="cls-2" x="456.05" y="205.15" width="19.37" height="107.9"/><rect class="cls-2" x="475.41" y="268.11" width="45.57" height="44.94"/><rect class="cls-2" x="509.59" y="234.32" width="26.21" height="78.73"/><rect class="cls-2" x="530.09" y="211.47" width="62.65" height="101.59"/><rect class="cls-2" x="319.35" y="199.36" width="19.37" height="113.69"/><rect class="cls-2" x="373.5" y="269.77" width="16.19" height="43.28"/><path class="cls-5" d="M2655.59,282.54,2253,311.05H4259.9l0-31-127.23-27.87-40.16-13s-35.44-1.76-47.26,7.49-128.41-6-128.41-6-47.68-14.62-56.55-16.48-77.54-20.7-110.5-15-67.62-4.58-96.37,4.3-91.8-5.56-112.25-11.4S3421,222.63,3410.92,227.67,2758.1,263,2736.83,273.75,2655.59,282.54,2655.59,282.54Z"/><path class="cls-6" d="M4259.88,275.49,4500,311.05H2863.83l-170.35-17.58,203.34-15.89,64-7.39s56.49-1,75.31,4.26S3240.77,271,3240.77,271s104.72,8.44,118.85,7.39,94.85-28.52,147.38-25.28,107.76-2.6,153.57,2.44,146.3-3.16,178.89-6.48,191.41,11.68,207.54,14.55,77.33-14.17,111.22-8.07S4259.88,275.49,4259.88,275.49Z"/><path class="cls-7" d="M2294.23,310.34l-26.44.71H916L945.12,304l171.7-6.4,54-3s47.69-.4,63.59,1.72,172.8-1.38,172.8-1.38,88.41,3.4,100.35,3,80.09-11.48,124.44-10.18,91-1,129.68,1,123.54-1.28,151.06-2.61S2074.41,290.8,2088,292s65.3-5.7,93.92-3.24S2294.23,310.34,2294.23,310.34Z"/><rect class="cls-8" x="741.32" y="143.56" width="53.96" height="176.44"/><rect class="cls-9" x="772.45" y="300.08" width="22.84" height="5.36"/><rect class="cls-10" x="760.3" y="300.08" width="8.01" height="5.36"/><rect class="cls-9" x="741.32" y="300.08" width="14.38" height="5.36"/><rect class="cls-9" x="772.45" y="289.36" width="9.38" height="5.36"/><rect class="cls-9" x="785.91" y="289.36" width="9.38" height="5.36"/><rect class="cls-9" x="764.3" y="278.63" width="26.9" height="5.36"/><rect class="cls-9" x="741.32" y="278.63" width="18.75" height="5.36"/><rect class="cls-9" x="772.45" y="267.91" width="22.84" height="5.36"/><rect class="cls-10" x="746.52" y="267.91" width="21.79" height="5.36"/><rect class="cls-9" x="760.3" y="257.19" width="19.23" height="5.36"/><rect class="cls-9" x="747.57" y="257.19" width="7.09" height="5.36"/><rect class="cls-10" x="772.45" y="246.46" width="18.75" height="5.36"/><rect class="cls-9" x="749.55" y="246.46" width="18.75" height="5.36"/><rect class="cls-9" x="741.32" y="235.74" width="14.51" height="5.36"/><rect class="cls-9" x="764.3" y="235.74" width="12.84" height="5.36"/><rect class="cls-9" x="781.53" y="235.74" width="6.42" height="5.36"/><rect class="cls-9" x="772.45" y="225.01" width="22.84" height="5.36"/><rect class="cls-10" x="746.33" y="225.01" width="18.75" height="5.36"/><rect class="cls-9" x="772.45" y="214.29" width="9.38" height="5.36"/><rect class="cls-9" x="760.3" y="214.29" width="8.01" height="5.36"/><rect class="cls-9" x="781.82" y="203.57" width="9.38" height="5.36"/><rect class="cls-9" x="749.55" y="203.57" width="18.75" height="5.36"/><rect class="cls-9" x="764.3" y="192.84" width="13.45" height="5.36"/><rect class="cls-9" x="741.21" y="192.84" width="13.45" height="5.36"/><rect class="cls-10" x="772.45" y="182.12" width="18.75" height="5.36"/><rect class="cls-9" x="749.55" y="182.12" width="18.75" height="5.36"/><rect class="cls-9" x="760.54" y="171.4" width="18.75" height="5.36"/><rect class="cls-9" x="772.45" y="160.67" width="18.75" height="5.36"/><rect class="cls-10" x="741.32" y="160.67" width="19.16" height="5.36"/><rect class="cls-9" x="741.21" y="149.95" width="54.08" height="5.36"/><polygon class="cls-11" points="795.28 320 741.32 320 795.28 143.56 795.28 320"/><rect class="cls-12" x="355.51" y="55.49" width="80.9" height="264.51"/><rect class="cls-9" x="402.17" y="77.31" width="34.24" height="8.04"/><rect class="cls-10" x="383.95" y="77.31" width="12" height="8.04"/><rect class="cls-9" x="355.51" y="77.31" width="21.56" height="8.04"/><rect class="cls-9" x="402.17" y="93.39" width="14.06" height="8.04"/><rect class="cls-9" x="422.35" y="93.39" width="14.06" height="8.04"/><rect class="cls-9" x="389.95" y="109.46" width="40.33" height="8.04"/><rect class="cls-9" x="355.51" y="109.46" width="28.11" height="8.04"/><rect class="cls-9" x="402.17" y="125.54" width="34.24" height="8.04"/><rect class="cls-10" x="363.3" y="125.54" width="32.66" height="8.04"/><rect class="cls-9" x="383.95" y="141.62" width="28.83" height="8.04"/><rect class="cls-9" x="364.87" y="141.62" width="10.64" height="8.04"/><rect class="cls-10" x="402.17" y="157.69" width="28.11" height="8.04"/><rect class="cls-9" x="367.84" y="157.69" width="28.11" height="8.04"/><rect class="cls-9" x="355.51" y="173.77" width="21.76" height="8.04"/><rect class="cls-9" x="389.95" y="173.77" width="19.24" height="8.04"/><rect class="cls-9" x="415.78" y="173.77" width="9.62" height="8.04"/><rect class="cls-9" x="402.17" y="189.85" width="34.24" height="8.04"/><rect class="cls-10" x="363.01" y="189.85" width="28.11" height="8.04"/><rect class="cls-9" x="402.17" y="205.92" width="14.06" height="8.04"/><rect class="cls-9" x="383.95" y="205.92" width="12" height="8.04"/><rect class="cls-9" x="416.22" y="222" width="14.06" height="8.04"/><rect class="cls-9" x="367.84" y="222" width="28.11" height="8.04"/><rect class="cls-9" x="389.95" y="238.08" width="20.16" height="8.04"/><rect class="cls-9" x="355.34" y="238.08" width="20.16" height="8.04"/><rect class="cls-10" x="402.17" y="254.15" width="28.11" height="8.04"/><rect class="cls-9" x="367.84" y="254.15" width="28.11" height="8.04"/><rect class="cls-9" x="384.31" y="270.23" width="28.11" height="8.04"/><rect class="cls-9" x="402.17" y="286.31" width="28.11" height="8.04"/><rect class="cls-10" x="355.51" y="286.31" width="28.73" height="8.04"/><polygon class="cls-11" points="436.41 320 355.51 320 436.41 55.49 436.41 320"/><rect class="cls-12" x="536.09" width="97.87" height="320"/><rect class="cls-9" x="592.54" y="283.88" width="41.42" height="9.72"/><rect class="cls-10" x="570.5" y="283.88" width="14.52" height="9.72"/><rect class="cls-9" x="536.09" y="283.88" width="26.08" height="9.72"/><rect class="cls-9" x="592.54" y="264.43" width="17" height="9.72"/><rect class="cls-9" x="616.95" y="264.43" width="17" height="9.72"/><rect class="cls-9" x="577.76" y="244.98" width="48.79" height="9.72"/><rect class="cls-9" x="536.09" y="244.98" width="34.01" height="9.72"/><rect class="cls-9" x="592.54" y="225.53" width="41.42" height="9.72"/><rect class="cls-10" x="545.51" y="225.53" width="39.51" height="9.72"/><rect class="cls-9" x="570.5" y="206.08" width="34.88" height="9.73"/><rect class="cls-9" x="547.41" y="206.08" width="12.87" height="9.73"/><rect class="cls-10" x="592.54" y="186.63" width="34.01" height="9.72"/><rect class="cls-9" x="551.01" y="186.63" width="34.01" height="9.72"/><rect class="cls-9" x="536.09" y="167.18" width="26.32" height="9.72"/><rect class="cls-9" x="577.76" y="167.18" width="23.28" height="9.72"/><rect class="cls-9" x="609" y="167.18" width="11.64" height="9.72"/><rect class="cls-9" x="592.54" y="147.73" width="41.42" height="9.73"/><rect class="cls-10" x="545.17" y="147.73" width="34.01" height="9.73"/><rect class="cls-9" x="592.54" y="128.28" width="17" height="9.72"/><rect class="cls-9" x="570.5" y="128.28" width="14.52" height="9.72"/><rect class="cls-9" x="609.54" y="108.83" width="17" height="9.72"/><rect class="cls-9" x="551.01" y="108.83" width="34.01" height="9.72"/><rect class="cls-9" x="577.76" y="89.38" width="24.39" height="9.72"/><rect class="cls-9" x="535.88" y="89.38" width="24.39" height="9.72"/><rect class="cls-10" x="592.54" y="69.93" width="34.01" height="9.72"/><rect class="cls-9" x="551.01" y="69.93" width="34.01" height="9.72"/><rect class="cls-9" x="570.93" y="50.48" width="34.01" height="9.73"/><rect class="cls-9" x="592.54" y="31.04" width="34.01" height="9.73"/><rect class="cls-10" x="536.09" y="31.04" width="34.76" height="9.73"/><rect class="cls-9" x="535.88" y="11.59" width="98.07" height="9.72"/><polygon class="cls-11" points="633.95 320 536.09 320 633.95 0 633.95 320"/><rect class="cls-12" x="925.64" y="86.29" width="71.48" height="233.71"/><rect class="cls-9" x="966.86" y="105.57" width="30.25" height="7.1"/><rect class="cls-10" x="950.77" y="105.57" width="10.61" height="7.1"/><rect class="cls-9" x="925.64" y="105.57" width="19.05" height="7.1"/><rect class="cls-9" x="966.86" y="119.78" width="12.42" height="7.1"/><rect class="cls-9" x="984.69" y="119.78" width="12.42" height="7.1"/><rect class="cls-9" x="956.07" y="133.98" width="35.63" height="7.1"/><rect class="cls-9" x="925.64" y="133.98" width="24.84" height="7.1"/><rect class="cls-9" x="966.86" y="148.18" width="30.25" height="7.1"/><rect class="cls-10" x="932.52" y="148.18" width="28.86" height="7.1"/><rect class="cls-9" x="950.77" y="162.39" width="25.47" height="7.1"/><rect class="cls-9" x="933.9" y="162.39" width="9.4" height="7.1"/><rect class="cls-10" x="966.86" y="176.59" width="24.84" height="7.1"/><rect class="cls-9" x="936.53" y="176.59" width="24.84" height="7.1"/><rect class="cls-9" x="925.64" y="190.8" width="19.22" height="7.1"/><rect class="cls-9" x="956.07" y="190.8" width="17" height="7.1"/><rect class="cls-9" x="978.89" y="190.8" width="8.5" height="7.1"/><rect class="cls-9" x="966.86" y="205" width="30.25" height="7.1"/><rect class="cls-10" x="932.26" y="205" width="24.84" height="7.1"/><rect class="cls-9" x="966.86" y="219.21" width="12.42" height="7.1"/><rect class="cls-9" x="950.77" y="219.21" width="10.61" height="7.1"/><rect class="cls-9" x="979.28" y="233.41" width="12.42" height="7.1"/><rect class="cls-9" x="936.53" y="233.41" width="24.84" height="7.1"/><rect class="cls-9" x="956.07" y="247.62" width="17.82" height="7.1"/><rect class="cls-9" x="925.48" y="247.62" width="17.82" height="7.1"/><rect class="cls-10" x="966.86" y="261.82" width="24.84" height="7.1"/><rect class="cls-9" x="936.53" y="261.82" width="24.84" height="7.1"/><rect class="cls-9" x="951.08" y="276.03" width="24.84" height="7.1"/><rect class="cls-9" x="966.86" y="290.23" width="24.84" height="7.1"/><rect class="cls-10" x="925.64" y="290.23" width="25.39" height="7.1"/><polygon class="cls-11" points="997.11 320 925.64 320 997.11 86.29 997.11 320"/><rect class="cls-12" x="783.69" y="37.26" width="86.47" height="282.73"/><rect class="cls-9" x="833.57" y="288.08" width="36.6" height="8.59"/><rect class="cls-10" x="814.1" y="288.08" width="12.83" height="8.59"/><rect class="cls-9" x="783.69" y="288.08" width="23.04" height="8.59"/><rect class="cls-9" x="833.57" y="270.9" width="15.03" height="8.59"/><rect class="cls-9" x="855.14" y="270.9" width="15.02" height="8.59"/><rect class="cls-9" x="820.51" y="253.71" width="43.11" height="8.59"/><rect class="cls-9" x="783.69" y="253.71" width="30.05" height="8.59"/><rect class="cls-9" x="833.57" y="236.53" width="36.6" height="8.59"/><rect class="cls-10" x="792.02" y="236.53" width="34.91" height="8.59"/><rect class="cls-9" x="814.1" y="219.35" width="30.82" height="8.59"/><rect class="cls-9" x="793.7" y="219.35" width="11.37" height="8.59"/><rect class="cls-10" x="833.57" y="202.16" width="30.05" height="8.59"/><rect class="cls-9" x="796.88" y="202.16" width="30.05" height="8.59"/><rect class="cls-9" x="783.69" y="184.98" width="23.26" height="8.59"/><rect class="cls-9" x="820.51" y="184.98" width="20.57" height="8.59"/><rect class="cls-9" x="848.12" y="184.98" width="10.28" height="8.59"/><rect class="cls-9" x="833.57" y="167.79" width="36.6" height="8.59"/><rect class="cls-10" x="791.72" y="167.79" width="30.05" height="8.59"/><rect class="cls-9" x="833.57" y="150.61" width="15.03" height="8.59"/><rect class="cls-9" x="814.1" y="150.61" width="12.83" height="8.59"/><rect class="cls-9" x="848.59" y="133.42" width="15.02" height="8.59"/><rect class="cls-9" x="796.88" y="133.42" width="30.05" height="8.59"/><rect class="cls-9" x="820.51" y="116.24" width="21.55" height="8.59"/><rect class="cls-9" x="783.51" y="116.24" width="21.55" height="8.59"/><rect class="cls-10" x="833.57" y="99.05" width="30.05" height="8.59"/><rect class="cls-9" x="796.88" y="99.05" width="30.05" height="8.59"/><rect class="cls-9" x="814.48" y="81.87" width="30.05" height="8.59"/><rect class="cls-9" x="833.57" y="64.69" width="30.05" height="8.59"/><rect class="cls-10" x="783.69" y="64.69" width="30.71" height="8.59"/><rect class="cls-9" x="783.51" y="47.5" width="86.65" height="8.59"/><polygon class="cls-11" points="870.16 320 783.69 320 870.16 37.26 870.16 320"/></g></g></svg>