<svg xmlns="http://www.w3.org/2000/svg" xmlns:xlink="http://www.w3.org/1999/xlink" viewBox="0 0 4500 250.72"><defs><style>.cls-1{fill:none;}.cls-2{fill:#c0d2eb;}.cls-3{fill:#edf1fb;}.cls-4{fill:url(#linear-gradient);}.cls-5{fill:url(#linear-gradient-2);}.cls-6{fill:url(#linear-gradient-3);}.cls-7{fill:#020051;opacity:0.1;}.cls-8{fill:#f2f0d1;}.cls-9{fill:#d6d5bb;}.cls-10{fill:url(#linear-gradient-4);}.cls-11{fill:#716558;}.cls-12{fill:#a6a8ab;}.cls-13{fill:url(#linear-gradient-5);}.cls-14{fill:#abc6e6;}.cls-15{fill:url(#linear-gradient-6);}.cls-16{fill:#1c405d;}.cls-17{fill:url(#linear-gradient-7);}.cls-18{fill:url(#linear-gradient-8);}.cls-19{fill:url(#linear-gradient-9);}.cls-20{fill:url(#linear-gradient-10);}.cls-21{fill:url(#linear-gradient-11);}.cls-22{fill:url(#linear-gradient-12);}.cls-23{fill:url(#linear-gradient-13);}.cls-24{fill:url(#linear-gradient-14);}.cls-25{fill:url(#linear-gradient-15);}.cls-26{fill:url(#linear-gradient-16);}.cls-27{fill:#f58d6c;}.cls-28{fill:#cc7059;}.cls-29{fill:url(#linear-gradient-17);}.cls-30{fill:url(#linear-gradient-18);}.cls-31{fill:#fff;}.cls-32{fill:url(#linear-gradient-19);}.cls-33{fill:#5a4a42;}.cls-34{fill:url(#linear-gradient-20);}.cls-35{fill:#9a8479;}.cls-36{fill:url(#linear-gradient-21);}.cls-37{fill:url(#linear-gradient-22);}.cls-38{fill:url(#linear-gradient-23);}.cls-39{fill:url(#linear-gradient-24);}.cls-40{fill:url(#linear-gradient-25);}.cls-41{fill:url(#linear-gradient-26);}.cls-42{fill:url(#linear-gradient-27);}.cls-43{fill:url(#linear-gradient-28);}.cls-44{fill:url(#linear-gradient-29);}.cls-45{fill:url(#linear-gradient-30);}.cls-46{fill:url(#linear-gradient-31);}.cls-47{fill:url(#linear-gradient-32);}.cls-48{fill:url(#linear-gradient-33);}.cls-49{fill:url(#linear-gradient-34);}.cls-50{fill:url(#linear-gradient-35);}.cls-51{fill:url(#linear-gradient-36);}.cls-52{fill:url(#linear-gradient-37);}.cls-53{fill:url(#linear-gradient-38);}.cls-54{fill:url(#linear-gradient-39);}.cls-55{fill:url(#linear-gradient-40);}.cls-56{fill:url(#linear-gradient-41);}</style><linearGradient id="linear-gradient" x1="1310" y1="183.05" x2="1404.22" y2="277.27" gradientUnits="userSpaceOnUse"><stop offset="0" stop-color="#89c5f2"/><stop offset="1" stop-color="#002f64"/></linearGradient><linearGradient id="linear-gradient-2" x1="1310" y1="154.4" x2="1404.22" y2="248.61" xlink:href="#linear-gradient"/><linearGradient id="linear-gradient-3" x1="1310" y1="125.73" x2="1404.22" y2="219.95" xlink:href="#linear-gradient"/><linearGradient id="linear-gradient-4" x1="1128.2" y1="95.64" x2="1248.53" y2="215.98" xlink:href="#linear-gradient"/><linearGradient id="linear-gradient-5" x1="71.18" y1="134.73" x2="160.14" y2="223.68" xlink:href="#linear-gradient"/><linearGradient id="linear-gradient-6" x1="591.52" y1="164.6" x2="711.06" y2="284.15" xlink:href="#linear-gradient"/><linearGradient id="linear-gradient-7" x1="591.52" y1="116.54" x2="711.06" y2="236.08" xlink:href="#linear-gradient"/><linearGradient id="linear-gradient-8" x1="591.52" y1="68.47" x2="711.06" y2="188.01" xlink:href="#linear-gradient"/><linearGradient id="linear-gradient-9" x1="591.52" y1="20.4" x2="711.06" y2="139.95" xlink:href="#linear-gradient"/><linearGradient id="linear-gradient-10" x1="288.88" y1="142.77" x2="446.9" y2="300.79" xlink:href="#linear-gradient"/><linearGradient id="linear-gradient-11" x1="288.88" y1="94.71" x2="446.9" y2="252.73" xlink:href="#linear-gradient"/><linearGradient id="linear-gradient-12" x1="288.88" y1="46.64" x2="446.9" y2="204.66" xlink:href="#linear-gradient"/><linearGradient id="linear-gradient-13" x1="890.33" y1="160.33" x2="977.93" y2="247.93" xlink:href="#linear-gradient"/><linearGradient id="linear-gradient-14" x1="890.33" y1="125.1" x2="977.93" y2="212.71" xlink:href="#linear-gradient"/><linearGradient id="linear-gradient-15" x1="890.33" y1="89.88" x2="977.93" y2="177.48" xlink:href="#linear-gradient"/><linearGradient id="linear-gradient-16" x1="2106.56" y1="73.98" x2="2244.27" y2="211.7" xlink:href="#linear-gradient"/><linearGradient id="linear-gradient-17" x1="2001.86" y1="210.03" x2="2018.59" y2="226.76" xlink:href="#linear-gradient"/><linearGradient id="linear-gradient-18" x1="2064.78" y1="210.03" x2="2081.51" y2="226.76" xlink:href="#linear-gradient"/><linearGradient id="linear-gradient-19" x1="1849.95" y1="95.64" x2="1970.28" y2="215.98" xlink:href="#linear-gradient"/><linearGradient id="linear-gradient-20" x1="2301.21" y1="160.05" x2="2354.24" y2="213.08" xlink:href="#linear-gradient"/><linearGradient id="linear-gradient-21" x1="3009.65" y1="158.16" x2="3087.94" y2="236.46" xlink:href="#linear-gradient"/><linearGradient id="linear-gradient-22" x1="1744.39" y1="167.68" x2="1762.27" y2="185.55" xlink:href="#linear-gradient"/><linearGradient id="linear-gradient-23" x1="1778" y1="167.68" x2="1795.87" y2="185.55" xlink:href="#linear-gradient"/><linearGradient id="linear-gradient-24" x1="1811.61" y1="167.68" x2="1829.48" y2="185.55" xlink:href="#linear-gradient"/><linearGradient id="linear-gradient-25" x1="1744.39" y1="207.6" x2="1762.27" y2="225.48" xlink:href="#linear-gradient"/><linearGradient id="linear-gradient-26" x1="1811.61" y1="207.6" x2="1829.48" y2="225.48" xlink:href="#linear-gradient"/><linearGradient id="linear-gradient-27" x1="2696.58" y1="200.01" x2="2718.02" y2="221.46" xlink:href="#linear-gradient"/><linearGradient id="linear-gradient-28" x1="2777.22" y1="200.01" x2="2798.66" y2="221.46" xlink:href="#linear-gradient"/><linearGradient id="linear-gradient-29" x1="2899.1" y1="207.6" x2="2916.97" y2="225.48" xlink:href="#linear-gradient"/><linearGradient id="linear-gradient-30" x1="2966.31" y1="207.6" x2="2984.19" y2="225.48" xlink:href="#linear-gradient"/><linearGradient id="linear-gradient-31" x1="3142.25" y1="207.6" x2="3160.12" y2="225.48" xlink:href="#linear-gradient"/><linearGradient id="linear-gradient-32" x1="3209.47" y1="207.6" x2="3227.34" y2="225.48" xlink:href="#linear-gradient"/><linearGradient id="linear-gradient-33" x1="3180.91" y1="163.78" x2="3188.68" y2="171.54" gradientUnits="userSpaceOnUse"><stop offset="0" stop-color="#002f64"/><stop offset="1" stop-color="#89c5f2"/></linearGradient><linearGradient id="linear-gradient-34" x1="3793.47" y1="218.52" x2="3806.26" y2="231.31" xlink:href="#linear-gradient"/><linearGradient id="linear-gradient-35" x1="3841.58" y1="218.51" x2="3854.37" y2="231.31" xlink:href="#linear-gradient"/><linearGradient id="linear-gradient-36" x1="3821.14" y1="187.15" x2="3826.7" y2="192.7" xlink:href="#linear-gradient-33"/><linearGradient id="linear-gradient-37" x1="2542.99" y1="214.37" x2="2557.69" y2="229.06" xlink:href="#linear-gradient"/><linearGradient id="linear-gradient-38" x1="2598.25" y1="214.37" x2="2612.94" y2="229.06" xlink:href="#linear-gradient"/><linearGradient id="linear-gradient-39" x1="3459.24" y1="214.37" x2="3473.93" y2="229.06" xlink:href="#linear-gradient"/><linearGradient id="linear-gradient-40" x1="3514.49" y1="214.37" x2="3529.19" y2="229.06" xlink:href="#linear-gradient"/><linearGradient id="linear-gradient-41" x1="1543.48" y1="158.16" x2="1621.78" y2="236.46" xlink:href="#linear-gradient"/></defs><title>buildings</title><g id="Layer_2" data-name="Layer 2"><g id="Layer_1-2" data-name="Layer 1"><rect class="cls-1" y="209.21" width="4500" height="40.19"/><rect class="cls-2" x="1353.07" y="126.03" width="8.09" height="15.31"/><rect class="cls-3" x="1274.56" y="154.21" width="165.1" height="91.66"/><rect class="cls-2" x="1272.33" y="147.78" width="169.57" height="6.43"/><rect class="cls-3" x="1310.35" y="141.34" width="93.52" height="6.43"/><rect class="cls-4" x="1274.56" y="218.5" width="165.11" height="23.33"/><rect class="cls-3" x="1274.56" y="218.5" width="9.23" height="23.33"/><rect class="cls-3" x="1305.73" y="218.5" width="9.23" height="23.33"/><rect class="cls-3" x="1336.91" y="218.5" width="9.24" height="23.33"/><rect class="cls-3" x="1368.08" y="218.5" width="9.23" height="23.33"/><rect class="cls-3" x="1399.25" y="218.5" width="9.24" height="23.33"/><rect class="cls-3" x="1430.43" y="218.5" width="9.23" height="23.33"/><rect class="cls-5" x="1274.56" y="189.84" width="165.11" height="23.33"/><rect class="cls-3" x="1274.56" y="189.84" width="9.23" height="23.33"/><rect class="cls-3" x="1305.73" y="189.84" width="9.23" height="23.33"/><rect class="cls-3" x="1336.91" y="189.84" width="9.24" height="23.33"/><rect class="cls-3" x="1368.08" y="189.84" width="9.23" height="23.33"/><rect class="cls-3" x="1399.25" y="189.84" width="9.24" height="23.33"/><rect class="cls-3" x="1430.43" y="189.84" width="9.23" height="23.33"/><rect class="cls-6" x="1274.56" y="161.18" width="165.11" height="23.33"/><rect class="cls-3" x="1274.56" y="161.18" width="9.23" height="23.33"/><rect class="cls-3" x="1305.73" y="161.18" width="9.23" height="23.33"/><rect class="cls-3" x="1336.91" y="161.18" width="9.24" height="23.33"/><rect class="cls-3" x="1368.08" y="161.18" width="9.23" height="23.33"/><rect class="cls-3" x="1399.25" y="161.18" width="9.24" height="23.33"/><rect class="cls-3" x="1430.43" y="161.18" width="9.23" height="23.33"/><rect class="cls-2" x="1272.33" y="215.83" width="169.57" height="2.67"/><rect class="cls-2" x="1272.33" y="243.21" width="169.57" height="2.66"/><rect class="cls-2" x="1272.33" y="187.17" width="169.57" height="2.67"/><rect class="cls-2" x="1272.33" y="158.52" width="169.57" height="2.66"/><polygon class="cls-7" points="1441.89 245.87 1274.86 245.87 1441.89 154.31 1441.89 245.87"/><rect class="cls-8" x="1120.85" y="79.19" width="135.04" height="166.35"/><rect class="cls-8" x="1115.09" y="57.34" width="146.55" height="21.86"/><rect class="cls-9" x="1115.09" y="68.27" width="146.55" height="10.93"/><rect class="cls-9" x="1162.17" y="46.11" width="18.32" height="10.93"/><path class="cls-10" d="M1131.24,92.6h21.81v33.52h-21.81Zm30.82,33.52h21.8V92.6h-21.8Zm30.81,0h21.81V92.6h-21.81Zm30.81,0h21.81V92.6h-21.81Zm-92.44,46.45h21.81V139.05h-21.81Zm30.82,0h21.8V139.05h-21.8Zm30.81,0h21.81V139.05h-21.81Zm30.81,0h21.81V139.05h-21.81ZM1131.24,219h21.81V185.5h-21.81Zm30.82,0h21.8V185.5h-21.8Zm30.81-16.58h21.81V185.5h-21.81ZM1223.68,219h21.81V185.5h-21.81Z"/><rect class="cls-11" x="1192.87" y="209.57" width="21.81" height="35.97"/><rect class="cls-12" x="1115.09" y="238.67" width="146.55" height="6.87"/><polygon class="cls-7" points="1255.89 245.54 1120.85 245.54 1255.89 79.19 1255.89 245.54"/><rect class="cls-3" x="65.75" y="122.56" width="99.83" height="122.98"/><rect class="cls-3" x="61.49" y="106.41" width="108.34" height="16.16"/><rect class="cls-2" x="61.49" y="114.49" width="108.34" height="8.08"/><rect class="cls-2" x="96.3" y="98.11" width="13.54" height="8.08"/><path class="cls-13" d="M73.43,132.48H89.55v24.78H73.43Zm22.78,24.78h16.12V132.48H96.21Zm22.78,0h16.12V132.48H119Zm22.78,0h16.12V132.48H141.77ZM73.43,191.59H89.55V166.81H73.43Zm22.78,0h16.12V166.81H96.21Zm22.78,0h16.12V166.81H119Zm22.78,0h16.12V166.81H141.77ZM73.43,225.93H89.55V201.15H73.43Zm22.78,0h16.12V201.15H96.21ZM119,213.68h16.12V201.15H119Zm22.78,12.25h16.12V201.15H141.77Z"/><rect class="cls-11" x="118.99" y="218.94" width="16.12" height="26.6"/><rect class="cls-12" x="61.49" y="240.46" width="108.34" height="5.08"/><polygon class="cls-7" points="165.58 245.54 65.75 245.54 165.58 122.56 165.58 245.54"/><rect class="cls-3" x="551.31" y="43.28" width="199.96" height="207.44"/><rect class="cls-3" x="548.61" y="21.7" width="205.36" height="21.58"/><rect class="cls-2" x="548.61" y="32.49" width="205.36" height="10.79"/><rect class="cls-2" x="612.5" y="10.85" width="27.12" height="10.79"/><rect class="cls-14" x="639.62" width="27.12" height="21.7"/><rect class="cls-15" x="551.31" y="204.81" width="199.96" height="39.13"/><rect class="cls-16" x="551.31" y="204.81" width="11.18" height="39.13"/><rect class="cls-16" x="589.06" y="204.81" width="11.18" height="39.13"/><rect class="cls-16" x="626.82" y="204.81" width="11.18" height="39.13"/><rect class="cls-16" x="664.57" y="204.81" width="11.18" height="39.13"/><rect class="cls-16" x="702.33" y="204.81" width="11.18" height="39.13"/><rect class="cls-16" x="740.08" y="204.81" width="11.18" height="39.13"/><rect class="cls-17" x="551.31" y="156.74" width="199.96" height="39.13"/><rect class="cls-16" x="551.31" y="156.74" width="11.18" height="39.13"/><rect class="cls-16" x="589.06" y="156.74" width="11.18" height="39.13"/><rect class="cls-16" x="626.82" y="156.74" width="11.18" height="39.13"/><rect class="cls-16" x="664.57" y="156.74" width="11.18" height="39.13"/><rect class="cls-16" x="702.33" y="156.74" width="11.18" height="39.13"/><rect class="cls-16" x="740.08" y="156.74" width="11.18" height="39.13"/><rect class="cls-18" x="551.31" y="108.67" width="199.96" height="39.13"/><rect class="cls-16" x="551.31" y="108.68" width="11.18" height="39.13"/><rect class="cls-16" x="589.06" y="108.68" width="11.18" height="39.13"/><rect class="cls-16" x="626.82" y="108.68" width="11.18" height="39.13"/><rect class="cls-16" x="664.57" y="108.68" width="11.18" height="39.13"/><rect class="cls-16" x="702.33" y="108.68" width="11.18" height="39.13"/><rect class="cls-16" x="740.08" y="108.68" width="11.18" height="39.13"/><rect class="cls-19" x="551.31" y="60.61" width="199.96" height="39.13"/><rect class="cls-16" x="551.31" y="60.61" width="11.18" height="39.13"/><rect class="cls-16" x="589.06" y="60.61" width="11.18" height="39.13"/><rect class="cls-16" x="626.82" y="60.61" width="11.18" height="39.13"/><rect class="cls-16" x="664.57" y="60.61" width="11.18" height="39.13"/><rect class="cls-16" x="702.33" y="60.61" width="11.18" height="39.13"/><rect class="cls-16" x="740.08" y="60.61" width="11.18" height="39.13"/><rect class="cls-2" x="548.61" y="200.34" width="205.36" height="4.47"/><rect class="cls-2" x="548.61" y="246.25" width="205.36" height="4.47"/><rect class="cls-2" x="548.61" y="152.28" width="205.36" height="4.47"/><rect class="cls-2" x="548.61" y="104.21" width="205.36" height="4.47"/><polygon class="cls-7" points="756.75 250.72 548.61 250.72 756.75 34.01 756.75 250.72"/><rect class="cls-2" x="361.11" y="47.14" width="13.56" height="25.68"/><rect class="cls-3" x="229.44" y="94.39" width="276.91" height="153.74"/><rect class="cls-2" x="225.7" y="83.61" width="284.39" height="10.79"/><rect class="cls-3" x="289.46" y="72.82" width="156.86" height="10.79"/><rect class="cls-20" x="229.44" y="202.22" width="276.91" height="39.13"/><rect class="cls-3" x="229.44" y="202.22" width="15.49" height="39.13"/><rect class="cls-3" x="281.72" y="202.22" width="15.49" height="39.13"/><rect class="cls-3" x="334" y="202.22" width="15.49" height="39.13"/><rect class="cls-3" x="386.29" y="202.22" width="15.49" height="39.13"/><rect class="cls-3" x="438.57" y="202.22" width="15.49" height="39.13"/><rect class="cls-3" x="490.86" y="202.22" width="15.49" height="39.13"/><rect class="cls-21" x="229.44" y="154.15" width="276.91" height="39.13"/><rect class="cls-3" x="229.44" y="154.15" width="15.49" height="39.13"/><rect class="cls-3" x="281.72" y="154.15" width="15.49" height="39.13"/><rect class="cls-3" x="334" y="154.15" width="15.49" height="39.13"/><rect class="cls-3" x="386.29" y="154.15" width="15.49" height="39.13"/><rect class="cls-3" x="438.57" y="154.15" width="15.49" height="39.13"/><rect class="cls-3" x="490.86" y="154.15" width="15.49" height="39.13"/><rect class="cls-22" x="229.44" y="106.09" width="276.91" height="39.13"/><rect class="cls-3" x="229.44" y="106.09" width="15.49" height="39.13"/><rect class="cls-3" x="281.72" y="106.09" width="15.49" height="39.13"/><rect class="cls-3" x="334" y="106.09" width="15.49" height="39.13"/><rect class="cls-3" x="386.29" y="106.09" width="15.49" height="39.13"/><rect class="cls-3" x="438.57" y="106.09" width="15.49" height="39.13"/><rect class="cls-3" x="490.86" y="106.09" width="15.49" height="39.13"/><rect class="cls-2" x="225.7" y="197.75" width="284.39" height="4.47"/><rect class="cls-2" x="225.7" y="243.66" width="284.39" height="4.47"/><rect class="cls-2" x="225.7" y="149.69" width="284.39" height="4.47"/><rect class="cls-2" x="225.7" y="101.62" width="284.39" height="4.47"/><polygon class="cls-7" points="510.09 248.13 229.94 248.13 510.09 94.57 510.09 248.13"/><rect class="cls-3" x="860.86" y="93.53" width="146.53" height="152.01"/><rect class="cls-2" x="860.86" y="100.08" width="146.53" height="4.72"/><rect class="cls-2" x="860.86" y="225.65" width="146.53" height="4.72"/><rect class="cls-2" x="914.26" y="77.67" width="19.87" height="15.86"/><rect class="cls-14" x="934.13" y="77.67" width="19.87" height="15.9"/><rect class="cls-23" x="860.86" y="189.79" width="146.53" height="28.68"/><rect class="cls-14" x="860.86" y="189.79" width="8.2" height="28.68"/><rect class="cls-14" x="888.53" y="189.79" width="8.2" height="28.68"/><rect class="cls-14" x="916.2" y="189.79" width="8.19" height="28.68"/><rect class="cls-14" x="943.86" y="189.79" width="8.2" height="28.68"/><rect class="cls-14" x="971.53" y="189.79" width="8.2" height="28.68"/><rect class="cls-14" x="999.2" y="189.79" width="8.2" height="28.68"/><rect class="cls-24" x="860.86" y="154.57" width="146.53" height="28.68"/><rect class="cls-14" x="860.86" y="154.57" width="8.2" height="28.68"/><rect class="cls-14" x="888.53" y="154.57" width="8.2" height="28.68"/><rect class="cls-14" x="916.2" y="154.57" width="8.19" height="28.68"/><rect class="cls-14" x="943.86" y="154.57" width="8.2" height="28.68"/><rect class="cls-14" x="971.53" y="154.57" width="8.2" height="28.68"/><rect class="cls-14" x="999.2" y="154.57" width="8.2" height="28.68"/><rect class="cls-25" x="860.86" y="119.34" width="146.53" height="28.68"/><rect class="cls-14" x="860.86" y="119.34" width="8.2" height="28.67"/><rect class="cls-14" x="888.53" y="119.34" width="8.2" height="28.67"/><rect class="cls-14" x="916.2" y="119.34" width="8.19" height="28.67"/><rect class="cls-14" x="943.86" y="119.34" width="8.2" height="28.67"/><rect class="cls-14" x="971.53" y="119.34" width="8.2" height="28.67"/><rect class="cls-14" x="999.2" y="119.34" width="8.2" height="28.67"/><polygon class="cls-7" points="1007.4 245.54 861.13 245.54 1007.4 104.78 1007.4 245.54"/><rect class="cls-3" x="2098.14" y="55.16" width="154.55" height="190.38"/><rect class="cls-3" x="2091.55" y="30.14" width="167.73" height="25.02"/><rect class="cls-2" x="2091.55" y="42.65" width="167.73" height="12.51"/><rect class="cls-2" x="2145.43" y="17.29" width="20.96" height="12.51"/><path class="cls-26" d="M2110,70.5H2135v38.37H2110Zm35.26,38.37h25V70.5h-25Zm35.27,0h25V70.5h-25Zm35.27,0h24.95V70.5h-24.95ZM2110,162H2135V123.66H2110Zm35.26,0h25V123.66h-25Zm35.27,0h25V123.66h-25Zm35.27,0h24.95V123.66h-24.95ZM2110,215.18H2135V176.82H2110Zm35.26,0h25V176.82h-25Zm35.27-19h25V176.82h-25Zm35.27,19h24.95V176.82h-24.95Z"/><rect class="cls-11" x="2180.57" y="204.37" width="24.96" height="41.17"/><rect class="cls-12" x="2091.55" y="237.68" width="167.73" height="7.86"/><polygon class="cls-7" points="2252.69 245.54 2098.14 245.54 2252.69 55.16 2252.69 245.54"/><rect class="cls-3" x="1986.11" y="192.42" width="111.15" height="53.12"/><rect class="cls-2" x="1986.11" y="240.25" width="111.15" height="5.3"/><rect class="cls-2" x="1986.11" y="192.42" width="111.15" height="5.3"/><polygon class="cls-27" points="2102 188.81 1981.37 188.81 2006.51 139.94 2076.86 139.94 2102 188.81"/><rect class="cls-28" x="1981.37" y="188.45" width="120.62" height="3.97"/><rect class="cls-11" x="2032.71" y="210.28" width="17.95" height="29.61"/><rect class="cls-16" x="2033.85" y="211.35" width="15.67" height="27.47"/><rect class="cls-11" x="1998.59" y="207.42" width="5.87" height="21.94"/><rect class="cls-11" x="2015.99" y="207.42" width="5.87" height="21.94"/><rect class="cls-11" x="2061.51" y="207.42" width="5.87" height="21.94"/><rect class="cls-11" x="2078.91" y="207.42" width="5.87" height="21.94"/><rect class="cls-29" x="2004.46" y="207.42" width="11.53" height="21.94"/><rect class="cls-30" x="2067.39" y="207.42" width="11.52" height="21.94"/><rect class="cls-31" x="2030.05" y="239.89" width="23.27" height="2.86"/><rect class="cls-2" x="2030.05" y="207.42" width="23.27" height="2.85"/><rect class="cls-12" x="2030.05" y="241.32" width="23.27" height="1.43"/><rect class="cls-31" x="2027.2" y="242.75" width="28.97" height="2.85"/><rect class="cls-12" x="2027.2" y="244.17" width="28.97" height="1.43"/><path class="cls-12" d="M2037,225.89a.81.81,0,1,1-.81-.81A.81.81,0,0,1,2037,225.89Z"/><polygon class="cls-7" points="2097.27 245.54 1986.1 245.54 2097.27 191.93 2097.27 245.54"/><rect class="cls-8" x="1842.6" y="79.19" width="135.04" height="166.35"/><rect class="cls-8" x="1836.84" y="57.34" width="146.55" height="21.86"/><rect class="cls-9" x="1836.84" y="68.27" width="146.55" height="10.93"/><rect class="cls-9" x="1883.92" y="46.11" width="18.32" height="10.93"/><path class="cls-32" d="M1853,92.6h21.81v33.52H1853Zm30.81,33.52h21.81V92.6H1883.8Zm30.82,0h21.81V92.6h-21.81Zm30.81,0h21.81V92.6h-21.81ZM1853,172.57h21.81V139.05H1853Zm30.81,0h21.81V139.05H1883.8Zm30.82,0h21.81V139.05h-21.81Zm30.81,0h21.81V139.05h-21.81ZM1853,219h21.81V185.5H1853Zm30.81,0h21.81V185.5H1883.8Zm30.82-16.58h21.81V185.5h-21.81ZM1945.43,219h21.81V185.5h-21.81Z"/><rect class="cls-11" x="1914.62" y="209.57" width="21.81" height="35.97"/><rect class="cls-12" x="1836.84" y="238.67" width="146.55" height="6.87"/><polygon class="cls-7" points="1977.64 245.54 1842.6 245.54 1977.64 79.19 1977.64 245.54"/><rect class="cls-28" x="2345.1" y="118.32" width="18.31" height="10.93"/><rect class="cls-8" x="2276.76" y="152.99" width="118.73" height="92.55"/><rect class="cls-9" x="2276.76" y="239.88" width="118.73" height="5.66"/><polygon class="cls-7" points="2395.5 245.54 2276.75 245.54 2395.5 153.08 2395.5 245.54"/><rect class="cls-9" x="2276.76" y="152.99" width="118.73" height="5.66"/><polygon class="cls-27" points="2400.55 143.76 2271.7 143.76 2280.65 123.78 2391.6 123.78 2400.55 143.76"/><rect class="cls-28" x="2271.7" y="143.38" width="128.85" height="9.61"/><rect class="cls-11" x="2360.15" y="207.87" width="19.17" height="31.63"/><rect class="cls-33" x="2361.37" y="209.01" width="16.74" height="29.34"/><rect class="cls-11" x="2290.09" y="164.89" width="6.27" height="23.44"/><rect class="cls-11" x="2308.67" y="164.89" width="6.27" height="23.44"/><rect class="cls-11" x="2323.7" y="164.89" width="6.27" height="23.44"/><rect class="cls-11" x="2342.28" y="164.89" width="6.27" height="23.44"/><rect class="cls-11" x="2290.09" y="201.6" width="6.27" height="23.44"/><rect class="cls-11" x="2308.67" y="201.6" width="6.27" height="23.44"/><rect class="cls-11" x="2323.7" y="201.6" width="6.27" height="23.44"/><rect class="cls-11" x="2342.28" y="201.6" width="6.27" height="23.44"/><rect class="cls-11" x="2357.31" y="164.89" width="6.27" height="23.44"/><rect class="cls-11" x="2375.89" y="164.89" width="6.27" height="23.44"/><path class="cls-34" d="M2308.67,164.89h-12.31v23.44h12.31Zm33.61,0H2330v23.44h12.31Zm-33.61,36.71h-12.31V225h12.31Zm33.61,0H2330V225h12.31Zm33.61-36.71h-12.31v23.44h12.31Z"/><rect class="cls-31" x="2357.31" y="239.5" width="24.86" height="3.05"/><rect class="cls-31" x="2357.31" y="204.82" width="24.86" height="3.05"/><rect class="cls-12" x="2357.31" y="241.03" width="24.86" height="1.53"/><rect class="cls-31" x="2354.26" y="242.55" width="30.95" height="3.05"/><rect class="cls-12" x="2354.26" y="244.08" width="30.95" height="1.53"/><path class="cls-12" d="M2364.67,224.55a.86.86,0,1,1-.86-.86A.86.86,0,0,1,2364.67,224.55Z"/><rect class="cls-3" x="2989.59" y="152.99" width="118.73" height="92.55"/><rect class="cls-11" x="2984.53" y="133.77" width="128.85" height="19.22"/><polygon class="cls-35" points="3113.38 133.77 2984.53 133.77 2993.48 113.79 3104.43 113.79 3113.38 133.77"/><rect class="cls-33" x="2984.53" y="143.38" width="128.85" height="9.61"/><rect class="cls-11" x="3039.21" y="207.87" width="19.17" height="31.63"/><rect class="cls-11" x="3068.03" y="196.52" width="28.44" height="4.11"/><rect class="cls-11" x="3034.58" y="196.52" width="28.44" height="4.11"/><rect class="cls-11" x="3001.13" y="196.52" width="28.44" height="4.11"/><rect class="cls-11" x="3068.03" y="229.72" width="28.44" height="4.11"/><rect class="cls-11" x="3001.13" y="229.72" width="28.44" height="4.11"/><path class="cls-36" d="M3094.68,196.52h-24.86V164.89h24.86Zm-33.45-31.63h-24.86v31.63h24.86Zm-33.45,0h-24.86v31.63h24.86Zm66.9,43h-24.86v21.85h24.86Zm-66.9,0h-24.86v21.85h24.86Z"/><rect class="cls-12" x="3029.99" y="239.5" width="37.62" height="6.04"/><polygon class="cls-7" points="3108.32 245.54 2989.57 245.54 3108.32 153.08 3108.32 245.54"/><rect class="cls-2" x="2989.59" y="152.99" width="118.73" height="5.66"/><rect class="cls-33" x="3020.41" y="108.33" width="18.32" height="10.93"/><rect class="cls-3" x="1727.57" y="152.99" width="118.73" height="92.55"/><rect class="cls-2" x="1727.57" y="239.88" width="118.73" height="5.66"/><rect class="cls-2" x="1727.57" y="152.99" width="118.73" height="5.66"/><polygon class="cls-27" points="1851.36 143.76 1722.51 143.76 1749.37 96.93 1824.51 96.93 1851.36 143.76"/><rect class="cls-28" x="1722.51" y="143.38" width="128.85" height="9.61"/><rect class="cls-11" x="1777.35" y="207.87" width="19.17" height="31.63"/><rect class="cls-16" x="1778.57" y="209.01" width="16.74" height="29.34"/><rect class="cls-11" x="1740.9" y="164.89" width="6.27" height="23.44"/><rect class="cls-11" x="1759.49" y="164.89" width="6.27" height="23.44"/><rect class="cls-11" x="1774.51" y="164.89" width="6.27" height="23.44"/><rect class="cls-11" x="1793.09" y="164.89" width="6.27" height="23.44"/><rect class="cls-11" x="1808.12" y="164.89" width="6.27" height="23.44"/><rect class="cls-11" x="1826.7" y="164.89" width="6.27" height="23.44"/><rect class="cls-37" x="1747.17" y="164.89" width="12.31" height="23.44"/><rect class="cls-38" x="1780.78" y="164.89" width="12.31" height="23.44"/><rect class="cls-39" x="1814.39" y="164.89" width="12.31" height="23.44"/><rect class="cls-11" x="1740.9" y="204.82" width="6.27" height="23.44"/><rect class="cls-11" x="1759.49" y="204.82" width="6.27" height="23.44"/><rect class="cls-11" x="1808.12" y="204.82" width="6.27" height="23.44"/><rect class="cls-11" x="1826.7" y="204.82" width="6.27" height="23.44"/><rect class="cls-40" x="1747.17" y="204.82" width="12.31" height="23.44"/><rect class="cls-41" x="1814.39" y="204.82" width="12.31" height="23.44"/><rect class="cls-31" x="1774.51" y="239.5" width="24.86" height="3.05"/><rect class="cls-2" x="1774.51" y="204.82" width="24.86" height="3.05"/><rect class="cls-12" x="1774.51" y="241.03" width="24.86" height="1.53"/><rect class="cls-31" x="1771.46" y="242.55" width="30.95" height="3.05"/><rect class="cls-12" x="1771.46" y="244.08" width="30.95" height="1.53"/><circle class="cls-12" cx="1781.01" cy="224.55" r="0.86"/><rect class="cls-28" x="1777.78" y="91.46" width="18.32" height="10.93"/><polygon class="cls-7" points="1846.31 245.54 1727.57 245.54 1846.31 153.08 1846.31 245.54"/><rect class="cls-3" x="2676.4" y="177.45" width="142.44" height="68.08"/><rect class="cls-2" x="2676.4" y="238.74" width="142.44" height="6.79"/><rect class="cls-2" x="2676.4" y="177.45" width="142.44" height="6.79"/><polygon class="cls-27" points="2824.92 172.82 2670.33 172.82 2702.55 110.19 2792.7 110.19 2824.92 172.82"/><rect class="cls-28" x="2670.33" y="172.37" width="154.59" height="5.08"/><rect class="cls-11" x="2736.12" y="200.34" width="23" height="37.95"/><rect class="cls-16" x="2737.58" y="201.71" width="20.08" height="35.2"/><rect class="cls-11" x="2692.39" y="196.68" width="7.53" height="28.12"/><rect class="cls-11" x="2714.69" y="196.68" width="7.53" height="28.12"/><rect class="cls-11" x="2773.03" y="196.68" width="7.53" height="28.12"/><rect class="cls-11" x="2795.33" y="196.68" width="7.53" height="28.12"/><rect class="cls-42" x="2699.92" y="196.68" width="14.77" height="28.12"/><rect class="cls-43" x="2780.56" y="196.68" width="14.77" height="28.12"/><rect class="cls-31" x="2732.71" y="238.28" width="29.82" height="3.66"/><rect class="cls-2" x="2732.71" y="196.68" width="29.82" height="3.66"/><rect class="cls-12" x="2732.71" y="240.11" width="29.82" height="1.83"/><rect class="cls-31" x="2729.06" y="241.94" width="37.13" height="3.66"/><rect class="cls-12" x="2729.06" y="243.77" width="37.13" height="1.83"/><path class="cls-12" d="M2741.55,220.35a1,1,0,1,1-1-1A1,1,0,0,1,2741.55,220.35Z"/><polygon class="cls-7" points="2818.86 245.53 2676.39 245.53 2818.86 176.82 2818.86 245.53"/><rect class="cls-28" x="2912.75" y="125.9" width="15.43" height="41.77"/><rect class="cls-3" x="2882.27" y="188.79" width="118.73" height="56.75"/><rect class="cls-2" x="2882.27" y="239.88" width="118.73" height="5.66"/><rect class="cls-2" x="2882.27" y="188.79" width="118.73" height="5.66"/><polygon class="cls-27" points="3006.06 184.56 2877.29 184.56 2941.68 132.35 3006.06 184.56"/><rect class="cls-28" x="2877.21" y="184.56" width="128.85" height="4.24"/><rect class="cls-11" x="2932.05" y="207.87" width="19.17" height="31.63"/><rect class="cls-16" x="2933.27" y="209.01" width="16.73" height="29.34"/><rect class="cls-11" x="2895.6" y="204.82" width="6.27" height="23.44"/><rect class="cls-11" x="2914.19" y="204.82" width="6.27" height="23.44"/><rect class="cls-11" x="2962.82" y="204.82" width="6.27" height="23.44"/><rect class="cls-11" x="2981.4" y="204.82" width="6.27" height="23.44"/><rect class="cls-44" x="2901.88" y="204.82" width="12.31" height="23.44"/><rect class="cls-45" x="2969.09" y="204.82" width="12.31" height="23.44"/><rect class="cls-31" x="2929.21" y="239.5" width="24.86" height="3.05"/><rect class="cls-2" x="2929.21" y="204.82" width="24.86" height="3.05"/><rect class="cls-12" x="2929.21" y="241.03" width="24.86" height="1.53"/><rect class="cls-31" x="2926.17" y="242.55" width="30.95" height="3.05"/><rect class="cls-12" x="2926.17" y="244.08" width="30.95" height="1.53"/><path class="cls-12" d="M2936.58,224.55a.87.87,0,1,1-1.73,0,.87.87,0,0,1,1.73,0Z"/><polygon class="cls-7" points="3001.01 245.54 2882.27 245.54 3001.01 188.27 3001.01 245.54"/><rect class="cls-2" x="3209.11" y="134.94" width="7.71" height="41.77"/><rect class="cls-3" x="3125.43" y="188.79" width="118.73" height="56.75"/><rect class="cls-2" x="3125.43" y="239.88" width="118.73" height="5.66"/><rect class="cls-2" x="3125.43" y="188.79" width="118.73" height="7.96"/><polygon class="cls-27" points="3250.78 188.79 3118.81 188.79 3184.8 135.32 3250.78 188.79"/><rect class="cls-11" x="3175.21" y="207.87" width="19.18" height="31.63"/><rect class="cls-16" x="3176.43" y="209.01" width="16.73" height="29.34"/><rect class="cls-11" x="3138.76" y="204.82" width="6.27" height="23.44"/><rect class="cls-11" x="3157.34" y="204.82" width="6.27" height="23.44"/><rect class="cls-11" x="3205.97" y="204.82" width="6.27" height="23.44"/><rect class="cls-11" x="3224.56" y="204.82" width="6.27" height="23.44"/><rect class="cls-46" x="3145.03" y="204.82" width="12.31" height="23.44"/><rect class="cls-47" x="3212.25" y="204.82" width="12.31" height="23.44"/><rect class="cls-31" x="3172.37" y="239.5" width="24.86" height="3.05"/><rect class="cls-2" x="3172.37" y="204.82" width="24.86" height="3.05"/><rect class="cls-12" x="3172.37" y="241.03" width="24.86" height="1.53"/><rect class="cls-31" x="3169.32" y="242.55" width="30.95" height="3.05"/><rect class="cls-12" x="3169.32" y="244.08" width="30.95" height="1.53"/><path class="cls-12" d="M3179.73,224.55a.86.86,0,1,1-.86-.86A.86.86,0,0,1,3179.73,224.55Z"/><polygon class="cls-2" points="3244.32 188.8 3125.28 188.8 3184.8 140.56 3244.32 188.8"/><polygon class="cls-3" points="3244.32 193.01 3125.28 193.01 3184.8 144.77 3244.32 193.01"/><path class="cls-2" d="M3192.33,167.66a7.54,7.54,0,1,0-7.54,7.54A7.53,7.53,0,0,0,3192.33,167.66Z"/><path class="cls-48" d="M3190.28,167.66a5.49,5.49,0,1,0-5.49,5.49A5.49,5.49,0,0,0,3190.28,167.66Z"/><polygon class="cls-7" points="3244.17 245.54 3125.42 245.54 3244.17 188.27 3244.17 245.54"/><rect class="cls-2" x="3841.33" y="166.5" width="5.52" height="29.9"/><rect class="cls-3" x="3781.43" y="205.05" width="84.99" height="40.62"/><rect class="cls-2" x="3781.43" y="241.62" width="84.99" height="4.05"/><rect class="cls-2" x="3781.43" y="205.05" width="84.99" height="5.7"/><polygon class="cls-27" points="3871.15 205.05 3776.69 205.05 3823.92 166.78 3871.15 205.05"/><rect class="cls-11" x="3817.06" y="218.71" width="13.72" height="22.64"/><rect class="cls-16" x="3817.93" y="219.53" width="11.98" height="21"/><rect class="cls-11" x="3790.96" y="216.52" width="4.49" height="16.78"/><rect class="cls-11" x="3804.27" y="216.52" width="4.49" height="16.78"/><rect class="cls-11" x="3839.08" y="216.52" width="4.49" height="16.78"/><rect class="cls-11" x="3852.38" y="216.52" width="4.49" height="16.78"/><rect class="cls-49" x="3795.46" y="216.52" width="8.81" height="16.78"/><rect class="cls-50" x="3843.57" y="216.52" width="8.81" height="16.78"/><rect class="cls-31" x="3815.02" y="241.35" width="17.79" height="2.18"/><rect class="cls-2" x="3815.02" y="216.52" width="17.79" height="2.18"/><rect class="cls-12" x="3815.02" y="242.44" width="17.79" height="1.09"/><rect class="cls-31" x="3812.84" y="243.53" width="22.15" height="2.18"/><rect class="cls-12" x="3812.84" y="244.62" width="22.15" height="1.09"/><path class="cls-12" d="M3820.3,230.65a.62.62,0,1,1-.62-.62A.62.62,0,0,1,3820.3,230.65Z"/><polygon class="cls-2" points="3866.53 205.05 3781.31 205.05 3823.92 170.53 3866.53 205.05"/><polygon class="cls-3" points="3866.53 208.07 3781.31 208.07 3823.92 173.54 3866.53 208.07"/><path class="cls-2" d="M3829.31,189.93a5.39,5.39,0,1,0-5.39,5.39A5.39,5.39,0,0,0,3829.31,189.93Z"/><path class="cls-51" d="M3827.85,189.93a3.93,3.93,0,1,0-3.93,3.93A3.93,3.93,0,0,0,3827.85,189.93Z"/><polygon class="cls-7" points="3866.42 245.67 3781.42 245.67 3866.42 204.68 3866.42 245.67"/><rect class="cls-8" x="2529.17" y="198.91" width="97.6" height="46.64"/><rect class="cls-9" x="2529.17" y="240.59" width="97.6" height="4.96"/><rect class="cls-9" x="2529.17" y="235.99" width="97.6" height="1.26"/><rect class="cls-9" x="2529.17" y="232.44" width="97.6" height="1.26"/><rect class="cls-9" x="2529.17" y="228.89" width="97.6" height="1.25"/><rect class="cls-9" x="2529.17" y="225.35" width="97.6" height="1.26"/><rect class="cls-9" x="2529.17" y="221.8" width="97.6" height="1.26"/><rect class="cls-9" x="2529.17" y="218.25" width="97.6" height="1.26"/><rect class="cls-9" x="2529.17" y="214.7" width="97.6" height="1.26"/><rect class="cls-9" x="2529.17" y="211.16" width="97.6" height="1.25"/><rect class="cls-9" x="2529.17" y="207.61" width="97.6" height="1.26"/><rect class="cls-9" x="2529.17" y="204.06" width="97.6" height="1.26"/><rect class="cls-9" x="2529.17" y="198.73" width="97.6" height="3.62"/><polygon class="cls-27" points="2630.92 195.42 2525.01 195.42 2547.08 152.51 2608.85 152.51 2630.92 195.42"/><rect class="cls-28" x="2525.01" y="195.42" width="105.91" height="3.48"/><rect class="cls-11" x="2570.09" y="214.59" width="15.76" height="26"/><rect class="cls-16" x="2571.09" y="215.53" width="13.76" height="24.12"/><rect class="cls-11" x="2540.12" y="212.08" width="5.16" height="19.26"/><rect class="cls-11" x="2555.4" y="212.08" width="5.16" height="19.26"/><rect class="cls-11" x="2595.38" y="212.08" width="5.16" height="19.26"/><rect class="cls-11" x="2610.65" y="212.08" width="5.16" height="19.26"/><rect class="cls-52" x="2545.28" y="212.08" width="10.12" height="19.26"/><rect class="cls-53" x="2600.53" y="212.08" width="10.12" height="19.26"/><rect class="cls-31" x="2567.75" y="240.59" width="20.43" height="2.51"/><rect class="cls-9" x="2567.75" y="212.08" width="20.43" height="2.51"/><rect class="cls-12" x="2567.75" y="241.84" width="20.43" height="1.25"/><rect class="cls-31" x="2565.25" y="243.09" width="25.44" height="2.51"/><rect class="cls-12" x="2565.25" y="244.35" width="25.44" height="1.25"/><path class="cls-12" d="M2573.8,228.3a.71.71,0,1,1-.7-.71A.7.7,0,0,1,2573.8,228.3Z"/><polygon class="cls-7" points="2626.77 245.55 2529.16 245.55 2626.77 198.47 2626.77 245.55"/><rect class="cls-28" x="2571.62" y="147.2" width="12.68" height="34.33"/><rect class="cls-8" x="3445.42" y="198.91" width="97.6" height="46.64"/><rect class="cls-9" x="3445.42" y="240.59" width="97.6" height="4.96"/><rect class="cls-9" x="3445.42" y="235.99" width="97.6" height="1.26"/><rect class="cls-9" x="3445.42" y="232.44" width="97.6" height="1.26"/><rect class="cls-9" x="3445.42" y="228.89" width="97.6" height="1.25"/><rect class="cls-9" x="3445.42" y="225.35" width="97.6" height="1.26"/><rect class="cls-9" x="3445.42" y="221.8" width="97.6" height="1.26"/><rect class="cls-9" x="3445.42" y="218.25" width="97.6" height="1.26"/><rect class="cls-9" x="3445.42" y="214.7" width="97.6" height="1.26"/><rect class="cls-9" x="3445.42" y="211.16" width="97.6" height="1.25"/><rect class="cls-9" x="3445.42" y="207.61" width="97.6" height="1.26"/><rect class="cls-9" x="3445.42" y="204.06" width="97.6" height="1.26"/><rect class="cls-9" x="3445.42" y="198.73" width="97.6" height="3.62"/><polygon class="cls-27" points="3547.17 195.42 3441.26 195.42 3463.33 152.51 3525.1 152.51 3547.17 195.42"/><rect class="cls-28" x="3441.26" y="195.42" width="105.91" height="3.48"/><rect class="cls-11" x="3486.33" y="214.59" width="15.76" height="26"/><rect class="cls-16" x="3487.34" y="215.53" width="13.76" height="24.12"/><rect class="cls-11" x="3456.37" y="212.08" width="5.16" height="19.26"/><rect class="cls-11" x="3471.65" y="212.08" width="5.16" height="19.26"/><rect class="cls-11" x="3511.62" y="212.08" width="5.16" height="19.26"/><rect class="cls-11" x="3526.9" y="212.08" width="5.16" height="19.26"/><rect class="cls-54" x="3461.53" y="212.08" width="10.12" height="19.26"/><rect class="cls-55" x="3516.78" y="212.08" width="10.12" height="19.26"/><rect class="cls-31" x="3484" y="240.59" width="20.43" height="2.51"/><rect class="cls-9" x="3484" y="212.08" width="20.43" height="2.51"/><rect class="cls-12" x="3484" y="241.84" width="20.43" height="1.25"/><rect class="cls-31" x="3481.49" y="243.09" width="25.44" height="2.51"/><rect class="cls-12" x="3481.49" y="244.35" width="25.44" height="1.25"/><path class="cls-12" d="M3490.05,228.3a.71.71,0,1,1-.71-.71A.71.71,0,0,1,3490.05,228.3Z"/><polygon class="cls-7" points="3543.02 245.55 3445.41 245.55 3543.02 198.47 3543.02 245.55"/><rect class="cls-28" x="3487.87" y="147.2" width="12.68" height="34.33"/><rect class="cls-3" x="1523.42" y="152.99" width="118.73" height="92.55"/><rect class="cls-11" x="1518.36" y="133.77" width="128.85" height="19.22"/><polygon class="cls-35" points="1647.21 133.77 1518.36 133.77 1527.31 113.79 1638.26 113.79 1647.21 133.77"/><rect class="cls-33" x="1518.36" y="143.38" width="128.85" height="9.61"/><rect class="cls-11" x="1573.04" y="207.87" width="19.17" height="31.63"/><rect class="cls-11" x="1601.86" y="196.52" width="28.44" height="4.11"/><rect class="cls-11" x="1568.41" y="196.52" width="28.44" height="4.11"/><rect class="cls-11" x="1534.96" y="196.52" width="28.44" height="4.11"/><rect class="cls-11" x="1601.86" y="229.72" width="28.44" height="4.11"/><rect class="cls-11" x="1534.96" y="229.72" width="28.44" height="4.11"/><path class="cls-56" d="M1628.51,196.52h-24.86V164.89h24.86Zm-33.45-31.63H1570.2v31.63h24.86Zm-33.45,0h-24.86v31.63h24.86Zm66.9,43h-24.86v21.85h24.86Zm-66.9,0h-24.86v21.85h24.86Z"/><rect class="cls-12" x="1563.82" y="239.5" width="37.62" height="6.04"/><polygon class="cls-7" points="1642.15 245.54 1523.4 245.54 1642.15 153.08 1642.15 245.54"/><rect class="cls-2" x="1523.42" y="152.99" width="118.73" height="5.66"/><rect class="cls-33" x="1554.24" y="108.33" width="18.32" height="10.93"/></g></g></svg>