<svg xmlns="http://www.w3.org/2000/svg" viewBox="0 0 4497.39 200"><defs><style>.cls-1{fill:#696175;}.cls-2,.cls-3{fill:#fff;}.cls-2{fill-rule:evenodd;}.cls-4{fill:#fffa00;}</style></defs><title>road</title><g id="Layer_2" data-name="Layer 2"><g id="Layer_1-2" data-name="Layer 1"><g id="Layer_5" data-name="Layer 5"><rect class="cls-1" width="4497.39" height="200"/><polygon class="cls-2" points="9.96 140.14 9.96 144.65 65.68 144.62 65.68 140.11 9.96 140.14"/><polygon class="cls-2" points="88.59 140.1 88.6 144.6 144.31 144.58 144.31 140.07 88.59 140.1"/><polygon class="cls-2" points="177.18 140.05 177.19 144.57 232.91 144.54 232.9 140.02 177.18 140.05"/><polygon class="cls-2" points="265.77 140.02 265.77 144.52 321.5 144.49 321.49 139.99 265.77 140.02"/><polygon class="cls-2" points="354.36 139.97 354.36 144.48 410.09 144.44 410.08 139.94 354.36 139.97"/><polygon class="cls-2" points="442.95 139.93 442.96 144.43 498.68 144.4 498.67 139.9 442.95 139.93"/><polygon class="cls-2" points="531.54 139.88 531.55 144.38 587.26 144.35 587.25 139.85 531.54 139.88"/><polygon class="cls-2" points="620.12 139.84 620.13 144.34 675.85 144.32 675.85 139.8 620.12 139.84"/><polygon class="cls-2" points="708.71 139.79 708.72 144.31 764.45 144.28 764.44 139.76 708.71 139.79"/><polygon class="cls-2" points="797.3 139.74 797.31 144.26 853.03 144.23 853.02 139.71 797.3 139.74"/><polygon class="cls-2" points="885.9 139.71 885.9 144.21 941.62 144.18 941.61 139.68 885.9 139.71"/><polygon class="cls-2" points="974.48 139.66 974.49 144.17 1030.21 144.14 1030.2 139.63 974.48 139.66"/><polygon class="cls-2" points="1063.07 139.62 1063.08 144.12 1118.8 144.09 1118.79 139.59 1063.07 139.62"/><polygon class="cls-2" points="1151.66 139.57 1151.67 144.07 1207.39 144.06 1207.39 139.54 1151.66 139.57"/><polygon class="cls-2" points="1240.25 139.53 1240.26 144.04 1295.97 144.01 1295.97 139.5 1240.25 139.53"/><polygon class="cls-2" points="1328.83 139.48 1328.84 144 1384.57 143.97 1384.56 139.45 1328.83 139.48"/><polygon class="cls-2" points="1417.43 139.45 1417.43 143.95 1473.16 143.92 1473.15 139.42 1417.43 139.45"/><polygon class="cls-2" points="1506.02 139.4 1506.02 143.91 1561.75 143.88 1561.74 139.37 1506.02 139.4"/><polygon class="cls-2" points="1594.61 139.36 1594.62 143.86 1650.33 143.83 1650.32 139.33 1594.61 139.36"/><polygon class="cls-2" points="1683.19 139.31 1683.2 143.81 1738.92 143.78 1738.91 139.28 1683.19 139.31"/><polygon class="cls-2" points="1771.78 139.26 1771.79 143.78 1827.51 143.75 1827.51 139.23 1771.78 139.26"/><polygon class="cls-2" points="1860.37 139.22 1860.38 143.74 1916.1 143.71 1916.1 139.19 1860.37 139.22"/><polygon class="cls-2" points="1948.96 139.17 1948.97 143.69 2004.69 143.66 2004.68 139.16 1948.96 139.17"/><polygon class="cls-2" points="2037.56 139.13 2037.56 143.64 2093.28 143.61 2093.27 139.11 2037.56 139.13"/><polygon class="cls-2" points="2126.14 139.09 2126.14 143.6 2181.87 143.57 2181.86 139.06 2126.14 139.09"/><polygon class="cls-2" points="2214.73 139.05 2214.74 143.55 2270.46 143.52 2270.45 139.02 2214.73 139.05"/><polygon class="cls-2" points="2303.32 139 2303.33 143.52 2359.04 143.49 2359.04 138.97 2303.32 139"/><polygon class="cls-2" points="2391.91 138.96 2391.91 143.47 2447.63 143.44 2447.63 138.93 2391.91 138.96"/><polygon class="cls-2" points="2480.49 138.91 2480.5 143.43 2536.23 143.4 2536.22 138.88 2480.49 138.91"/><polygon class="cls-2" points="2569.09 138.86 2569.09 143.38 2624.82 143.35 2624.81 138.85 2569.09 138.86"/><polygon class="cls-2" points="2657.68 138.82 2657.68 143.34 2713.41 143.3 2713.39 138.8 2657.68 138.82"/><polygon class="cls-2" points="2746.27 138.79 2746.28 143.29 2801.99 143.26 2801.98 138.76 2746.27 138.79"/><polygon class="cls-2" points="2834.85 138.74 2834.86 143.24 2890.58 143.23 2890.57 138.71 2834.85 138.74"/><polygon class="cls-2" points="2923.44 138.69 2923.45 143.21 2979.17 143.18 2979.17 138.66 2923.44 138.69"/><polygon class="cls-2" points="3012.03 138.65 3012.04 143.17 3067.76 143.13 3067.76 138.62 3012.03 138.65"/><polygon class="cls-2" points="3100.62 138.6 3100.63 143.12 3156.35 143.09 3156.34 138.59 3100.62 138.6"/><polygon class="cls-2" points="3189.21 138.56 3189.21 143.07 3244.94 143.04 3244.93 138.52 3189.21 138.56"/><polygon class="cls-2" points="3277.8 138.52 3277.8 143.03 3333.53 143 3333.52 138.49 3277.8 138.52"/><polygon class="cls-2" points="3366.39 138.48 3366.39 142.98 3422.12 142.97 3422.11 138.45 3366.39 138.48"/><polygon class="cls-2" points="3454.98 138.43 3454.99 142.93 3510.7 142.92 3510.69 138.4 3454.98 138.43"/><polygon class="cls-2" points="3543.56 138.39 3543.57 142.9 3599.29 142.87 3599.29 138.35 3543.56 138.39"/><polygon class="cls-2" points="3632.15 138.34 3632.16 142.86 3687.88 142.83 3687.88 138.31 3632.15 138.34"/><polygon class="cls-2" points="3720.74 138.29 3720.75 142.81 3776.48 142.78 3776.47 138.26 3720.74 138.29"/><polygon class="cls-2" points="3809.34 138.26 3809.34 142.76 3865.06 142.73 3865.05 138.23 3809.34 138.26"/><polygon class="cls-2" points="3897.92 138.22 3897.92 142.72 3953.65 142.69 3953.64 138.19 3897.92 138.22"/><polygon class="cls-2" points="3986.51 138.17 3986.52 142.67 4042.24 142.66 4042.23 138.14 3986.51 138.17"/><polygon class="cls-2" points="4075.1 138.12 4075.11 142.63 4130.83 142.61 4130.82 138.09 4075.1 138.12"/><polygon class="cls-2" points="4163.69 138.08 4163.7 142.59 4219.41 142.56 4219.41 138.05 4163.69 138.08"/><polygon class="cls-2" points="4252.27 138.03 4252.28 142.55 4308 142.52 4308 138 4252.27 138.03"/><polygon class="cls-2" points="4340.86 137.99 4340.87 142.5 4396.6 142.47 4396.59 137.97 4340.86 137.99"/><polygon class="cls-2" points="4424.48 137.95 4424.48 142.46 4480.21 142.43 4480.2 137.92 4424.48 137.95"/><polygon class="cls-2" points="9.9 40.81 9.91 44.82 65.71 44.79 65.7 40.78 9.9 40.81"/><polygon class="cls-2" points="88.66 40.78 88.67 44.79 144.46 44.76 144.45 40.75 88.66 40.78"/><rect class="cls-3" x="177.37" y="40.72" width="55.8" height="4.01"/><polygon class="cls-2" points="266.08 40.69 266.08 44.7 321.89 44.68 321.88 40.67 266.08 40.69"/><polygon class="cls-2" points="354.79 40.66 354.8 44.67 410.6 44.64 410.58 40.65 354.79 40.66"/><polygon class="cls-2" points="443.5 40.63 443.5 44.64 499.3 44.61 499.29 40.6 443.5 40.63"/><polygon class="cls-2" points="532.2 40.58 532.21 44.59 588.01 44.56 588 40.55 532.2 40.58"/><polygon class="cls-2" points="620.91 40.54 620.92 44.55 676.72 44.53 676.71 40.52 620.91 40.54"/><rect class="cls-3" x="709.63" y="40.49" width="55.8" height="4.01"/><rect class="cls-3" x="798.33" y="40.44" width="55.8" height="4.01"/><polygon class="cls-2" points="887.04 40.43 887.05 44.44 942.85 44.41 942.84 40.4 887.04 40.43"/><polygon class="cls-2" points="975.75 40.38 975.76 44.39 1031.55 44.38 1031.54 40.37 975.75 40.38"/><polygon class="cls-2" points="1064.45 40.35 1064.46 44.36 1120.26 44.33 1120.25 40.32 1064.45 40.35"/><polygon class="cls-2" points="1153.16 40.3 1153.17 44.31 1208.97 44.28 1208.96 40.29 1153.16 40.3"/><polygon class="cls-2" points="1241.87 40.27 1241.88 44.27 1297.67 44.25 1297.67 40.24 1241.87 40.27"/><rect class="cls-3" x="1330.59" y="40.21" width="55.8" height="4.01"/><polygon class="cls-2" points="1419.29 40.18 1419.3 44.19 1475.1 44.17 1475.09 40.17 1419.29 40.18"/><polygon class="cls-2" points="1508 40.15 1508.01 44.16 1563.81 44.13 1563.8 40.12 1508 40.15"/><polygon class="cls-2" points="1596.71 40.12 1596.72 44.13 1652.51 44.1 1652.5 40.09 1596.71 40.12"/><polygon class="cls-2" points="1685.41 40.07 1685.42 44.08 1741.22 44.05 1741.21 40.04 1685.41 40.07"/><rect class="cls-3" x="1774.13" y="40.03" width="55.8" height="4.01"/><rect class="cls-3" x="1862.84" y="39.98" width="55.8" height="4.01"/><polygon class="cls-2" points="1951.55 39.95 1951.55 43.96 2007.35 43.94 2007.34 39.94 1951.55 39.95"/><polygon class="cls-2" points="2040.25 39.92 2040.26 43.93 2096.06 43.9 2096.05 39.89 2040.25 39.92"/><polygon class="cls-2" points="2128.96 39.87 2128.97 43.88 2184.77 43.87 2184.76 39.86 2128.96 39.87"/><polygon class="cls-2" points="2217.67 39.84 2217.68 43.85 2273.47 43.82 2273.46 39.81 2217.67 39.84"/><polygon class="cls-2" points="2306.37 39.8 2306.38 43.8 2362.18 43.77 2362.17 39.78 2306.37 39.8"/><rect class="cls-3" x="2395.09" y="39.75" width="55.8" height="4.01"/><polygon class="cls-2" points="2483.8 39.72 2483.81 43.73 2539.6 43.71 2539.59 39.7 2483.8 39.72"/><polygon class="cls-2" points="2572.51 39.69 2572.51 43.7 2628.31 43.67 2628.3 39.66 2572.51 39.69"/><polygon class="cls-2" points="2661.21 39.64 2661.22 43.65 2717.02 43.64 2717.01 39.63 2661.21 39.64"/><polygon class="cls-2" points="2749.92 39.61 2749.93 43.62 2805.72 43.59 2805.72 39.58 2749.92 39.61"/><rect class="cls-3" x="2838.64" y="39.55" width="55.8" height="4.01"/><rect class="cls-3" x="2927.34" y="39.52" width="55.8" height="4.01"/><polygon class="cls-2" points="3016.05 39.49 3016.05 43.5 3071.86 43.48 3071.85 39.47 3016.05 39.49"/><polygon class="cls-2" points="3104.76 39.46 3104.77 43.47 3160.56 43.44 3160.55 39.43 3104.76 39.46"/><polygon class="cls-2" points="3193.46 39.41 3193.47 43.42 3249.27 43.39 3249.26 39.4 3193.46 39.41"/><polygon class="cls-2" points="3282.17 39.38 3282.18 43.39 3337.98 43.36 3337.97 39.35 3282.17 39.38"/><polygon class="cls-2" points="3370.88 39.33 3370.89 43.34 3426.68 43.31 3426.68 39.3 3370.88 39.33"/><polygon class="cls-2" points="3459.59 39.29 3459.59 43.3 3515.39 43.28 3515.38 39.27 3459.59 39.29"/><rect class="cls-3" x="3548.3" y="39.24" width="55.8" height="4.01"/><polygon class="cls-2" points="3637.01 39.23 3637.02 43.23 3692.82 43.2 3692.81 39.2 3637.01 39.23"/><polygon class="cls-2" points="3725.72 39.18 3725.73 43.19 3781.52 43.16 3781.51 39.15 3725.72 39.18"/><polygon class="cls-2" points="3814.42 39.13 3814.43 43.14 3870.23 43.13 3870.22 39.12 3814.42 39.13"/><polygon class="cls-2" points="3903.13 39.1 3903.14 43.11 3958.94 43.08 3958.93 39.07 3903.13 39.1"/><polygon class="cls-2" points="3991.84 39.06 3991.85 43.06 4047.64 43.03 4047.64 39.04 3991.84 39.06"/><rect class="cls-3" x="4080.55" y="39.01" width="55.8" height="4.01"/><rect class="cls-3" x="4169.26" y="38.98" width="55.8" height="4.01"/><polygon class="cls-2" points="4257.97 38.95 4257.98 42.96 4313.78 42.93 4313.77 38.92 4257.97 38.95"/><polygon class="cls-2" points="4346.68 38.9 4346.69 42.91 4402.48 42.88 4402.47 38.87 4346.68 38.9"/><polygon class="cls-2" points="4423.44 38.87 4423.45 42.87 4479.24 42.85 4479.23 38.84 4423.44 38.87"/><rect class="cls-4" x="0.29" y="90.77" width="4497.1" height="2.96"/><rect class="cls-4" x="0.29" y="86.15" width="4497.1" height="2.96"/></g></g></g></svg>