<svg xmlns="http://www.w3.org/2000/svg" viewBox="0 0 4500 210.76"><defs><style>.cls-1{fill:#abc283;}.cls-2{fill:#8aa451;}.cls-13,.cls-3{fill:#385a27;}.cls-3{opacity:0.3;}.cls-4{fill:#477d50;}.cls-5{fill:#493b34;}.cls-11,.cls-6{fill:#364a31;}.cls-10,.cls-12,.cls-6,.cls-9{opacity:0.5;}.cls-7{opacity:0.2;}.cls-12,.cls-8{fill:#e5e884;}.cls-9{fill:#a86f41;}.cls-14{fill:#87ad54;}.cls-15{fill:#504943;}</style></defs><title>trees1</title><g id="Layer_2" data-name="Layer 2"><g id="Layer_1-2" data-name="Layer 1"><rect class="cls-1" y="197.86" width="4500" height="2.79"/><rect class="cls-2" y="200.62" width="4500" height="10.15"/><rect class="cls-3" y="205.69" width="4500" height="5.07"/><polygon class="cls-4" points="3565.24 0 3548.58 32.3 3552.9 31.31 3551.1 37.16 3533.45 56.01 3543.18 56.08 3534.34 70.13 3524.07 79.67 3533.26 86.35 3519.21 113.23 3531.1 113.23 3507.32 140.4 3521.37 146.88 3495.97 159.31 3512.12 164.39 3520.29 166.96 3548.93 176.61 3598.12 172.82 3635.41 160.4 3611.09 152.29 3621.9 146.88 3597.58 119.33 3607.31 117.31 3593.26 89.85 3606.77 84.19 3593.26 75 3589.02 67.39 3596.59 64.73 3583.07 50.67 3590.01 47.43 3574.42 31.21 3581.36 27.97 3565.24 0"/><polygon class="cls-5" points="3571.64 207.51 3552.72 207.51 3557.58 171.2 3568.39 171.2 3570.11 196.07 3571.64 207.51"/><polygon class="cls-6" points="3548.93 176.61 3598.12 172.82 3635.41 160.4 3611.09 152.29 3621.9 146.88 3597.58 119.33 3607.31 117.31 3593.26 89.85 3606.77 84.19 3593.26 75 3589.02 67.39 3596.59 64.73 3583.07 50.67 3590.01 47.43 3574.42 31.21 3581.36 27.97 3566.43 2.07 3567.85 25.81 3560.29 30.68 3571.64 35.57 3570.56 51.22 3558.31 55.54 3571.64 69.59 3559.75 89.34 3588.57 108.17 3571.64 116.39 3552.72 118.24 3589.66 148.14 3570.19 158.9 3519.62 166.75 3520.29 166.96 3548.93 176.61"/><g class="cls-7"><polygon class="cls-8" points="3531.1 113.23 3507.32 140.4 3550.38 113.23 3531.1 113.23"/><polygon class="cls-8" points="3533.26 86.35 3519.21 113.23 3525.39 113.23 3543.08 88.3 3533.26 86.35"/><polygon class="cls-8" points="3524.07 79.67 3527.66 82.28 3538.85 71.39 3539.35 62.17 3534.34 70.13 3524.07 79.67"/><polygon class="cls-8" points="3521.37 146.88 3495.97 159.31 3565.69 146.88 3521.37 146.88"/><polygon class="cls-8" points="3551.51 35.84 3551.1 37.16 3533.45 56.01 3536.39 56.03 3559.11 35.84 3551.51 35.84"/><polygon class="cls-8" points="3551.33 31.67 3560.46 23.59 3565.24 0 3548.58 32.3 3551.33 31.67"/></g><polygon class="cls-9" points="3555.96 207.51 3559.11 171.2 3557.58 171.2 3552.72 207.51 3555.96 207.51"/><g class="cls-7"><polygon class="cls-8" points="3533.45 80.58 3539.35 75.53 3539.35 79.9 3533.45 80.58"/><polygon class="cls-8" points="3562.18 35.84 3562.18 40.41 3565.24 38.12 3562.18 35.84"/><polygon class="cls-8" points="3536.4 108.17 3543.08 108.17 3543.08 102.35 3536.4 108.17"/><polygon class="cls-8" points="3565.69 143.7 3559.11 137.33 3555.91 142.02 3565.69 143.7"/><polygon class="cls-8" points="3586.25 163.66 3579.67 157.29 3576.48 161.97 3586.25 163.66"/><polygon class="cls-8" points="3610.39 150.07 3603.82 143.7 3600.62 148.38 3610.39 150.07"/><polygon class="cls-8" points="3553.98 137.33 3550.38 143.7 3544.97 143.7 3553.98 137.33"/><polygon class="cls-8" points="3565.69 68.87 3562.18 72.23 3559.11 68.87 3565.69 68.87"/><polygon class="cls-8" points="3578.21 82.99 3574.7 86.35 3571.64 82.99 3578.21 82.99"/><polygon class="cls-8" points="3602.31 82.99 3598.8 86.35 3595.73 82.99 3602.31 82.99"/><polygon class="cls-8" points="3584.65 46.81 3581.14 50.17 3578.07 46.81 3584.65 46.81"/><polygon class="cls-8" points="3571.64 110.31 3577.52 108.63 3570.19 105.26 3571.64 110.31"/></g><g class="cls-10"><polygon class="cls-11" points="3605.51 153.1 3599.02 153.1 3605.51 157.51 3605.51 153.1"/><polygon class="cls-11" points="3593.26 121.12 3585.33 123.34 3593.26 126.81 3593.26 121.12"/><polygon class="cls-11" points="3570.19 89.85 3577.52 92.08 3571.64 95.9 3570.19 89.85"/><polygon class="cls-11" points="3581.36 51.94 3577.52 51.94 3581.36 56.03 3581.36 51.94"/></g><path class="cls-2" d="M979.21,152.94a18.58,18.58,0,0,0-1.27-30.72c-.2-12.68-10.08-23.06-22.59-23.41a22.43,22.43,0,0,0-8.45,1.39,23.5,23.5,0,0,0-22.57-22.28c-12.85-.36-23.57,10-23.94,23.18a24.11,24.11,0,0,0,4.32,14.47.3.3,0,0,1,0,.08,23.67,23.67,0,0,0-20.08,22.93,24.42,24.42,0,0,0,.43,5.23,9.76,9.76,0,0,0,1.15,11.91,9.91,9.91,0,0,0,6.08,3.09,18.4,18.4,0,0,0,36,2.93,14.88,14.88,0,0,0,12.33-1.43,22.77,22.77,0,0,0,26.1,3.69,8.37,8.37,0,1,0,12.55-11.06Z"/><path class="cls-5" d="M937,176.49a65.59,65.59,0,0,0-.12-7.16c6.61-2.27,10.44-20.57,10.44-20.57-5,10.7-9,16.18-11,16.76-.23-2.31-.53-7.77-.65-10.06-.12-2-.25-4-.51-5.54-.43-2.5.84-13.75-.28-14.8,0,0-2.07,16.45-3,14.62-2.73-5.72-4.21-6.59-7.45-11.43-.41-.6,7.46,16.05,7.38,17-.33,3.76-.75,9.2-1.28,17.08a62,62,0,0,1-8.28-5.81c1.42-4.87-3.16-14.42-3.16-14.42.13,5.15,2.11,12,1.18,12.64-2-2.4-12.13-10-14.52-13.07,0,0,14.14,18.56,24.41,25.73-.48,6-.67,16-.91,17.87-.52,4-1.32,8.67-2.13,12.19h12c-.2-1.74-.63-3.41-.67-5.27-.08-3.71-.19-16.76-.62-19.36,14.93-7.43,27.46-25.3,27.46-25.3C954.58,168.07,941.48,176.14,937,176.49Z"/><path class="cls-12" d="M920.78,85c10.72-2.44,15-.31,22,3.12a23,23,0,0,0-18.41-10.16c-12.85-.36-23.57,10-23.94,23.18a24.11,24.11,0,0,0,4.32,14.47.3.3,0,0,1,0,.08,23.67,23.67,0,0,0-20.08,22.93,23.19,23.19,0,0,0,.17,3.45c2-4.48,11.44-21.12,25-18,8.25,1.88,10,1.59,14.45-1.39,1.63-1.09.06-1.72-6.76-3.84C902.59,114.15,900.5,89.57,920.78,85Z"/><path class="cls-12" d="M937.06,104.63c-2.46,3.37.35,3.59,6.92,1.84,3.79-1,11.07-2.65,17.58-2.14,2.39.19,8,1.47,9.65,1.51a22.81,22.81,0,0,0-15.86-7,22.43,22.43,0,0,0-8.45,1.39S939.52,101.25,937.06,104.63Z"/><g class="cls-10"><path class="cls-13" d="M986.73,138a18.53,18.53,0,0,0-8.79-15.79,24.89,24.89,0,0,0-1-6.33,10.25,10.25,0,0,1-5.82,4.71c-6.46,2-2.46,5.33-2.46,5.33s8.59,14.83-5.53,23.35c-6,3.6-14.84,4.33-22.33,2.56-8.93-2.1-16.38-13.53-16.38-13.53s1.43,16.19-14.76,20.6c-7.65,2.08-15.47-5.55-15.47-5.55s-1.12.43-5.42.54c-1.52,0-2.84,0-3.93,0a9.65,9.65,0,0,0,7.36,4.86,18.4,18.4,0,0,0,36,2.93,14.88,14.88,0,0,0,12.33-1.43,22.77,22.77,0,0,0,26.1,3.69,8.37,8.37,0,1,0,12.55-11.06A18.56,18.56,0,0,0,986.73,138Z"/><path class="cls-13" d="M966.61,140.76a5,5,0,1,1-5.05-5A5,5,0,0,1,966.61,140.76Z"/><path class="cls-13" d="M956.34,145.8a3.2,3.2,0,1,1-3.2-3.2A3.2,3.2,0,0,1,956.34,145.8Z"/><path class="cls-13" d="M905.79,151.15a3.2,3.2,0,1,1-3.2-3.19A3.2,3.2,0,0,1,905.79,151.15Z"/><path class="cls-13" d="M964.76,132.64a2.35,2.35,0,1,1-2.35-2.35A2.35,2.35,0,0,1,964.76,132.64Z"/><path class="cls-13" d="M910.5,145.51a2.36,2.36,0,1,1-2.35-2.36A2.35,2.35,0,0,1,910.5,145.51Z"/></g><path class="cls-14" d="M974.36,156.56a3.2,3.2,0,1,1-3.19-3.2A3.19,3.19,0,0,1,974.36,156.56Z"/><path class="cls-14" d="M977.3,151.41a2.06,2.06,0,1,1-2-2A2.05,2.05,0,0,1,977.3,151.41Z"/><path class="cls-12" d="M918.36,95.6a3.2,3.2,0,1,1-3.2-3.2A3.2,3.2,0,0,1,918.36,95.6Z"/><path class="cls-12" d="M909.83,130.29a5.22,5.22,0,1,1-5.21-5.21A5.21,5.21,0,0,1,909.83,130.29Z"/><path class="cls-12" d="M920.09,89.79a1.51,1.51,0,1,1-1.5-1.5A1.5,1.5,0,0,1,920.09,89.79Z"/><path class="cls-12" d="M936.62,110a1.5,1.5,0,1,1-1.5-1.5A1.5,1.5,0,0,1,936.62,110Z"/><path class="cls-9" d="M931.29,179.9v-2.25l-1.13.29c-.45,6.06-.63,15.51-.87,17.38-.52,4-1.32,8.67-2.13,12.19h2.63l1.5-8.54Z"/><path class="cls-2" d="M563.71,183a10.31,10.31,0,0,1-5.23-16.24,13,13,0,0,1,7.26-16.51,12.82,12.82,0,0,1,4.67-.9,12.9,12.9,0,0,1,24.38-8.44,13.32,13.32,0,0,1,.52,8.36l0,0a13.13,13.13,0,0,1,14.85,8.09,13,13,0,0,1,.77,2.8,5.42,5.42,0,0,1,1.69,6.42,5.53,5.53,0,0,1-2.57,2.77,10.21,10.21,0,0,1-18.17,8.42,8.21,8.21,0,0,1-6.68,1.62,12.67,12.67,0,0,1-12.88,6.93,4.64,4.64,0,0,1-8.73,0A4.56,4.56,0,0,1,563.71,183Z"/><path class="cls-5" d="M583.75,187.57a39.28,39.28,0,0,1,.07-4c-3.66-1.26-5.79-11.41-5.79-11.41,2.76,5.94,5,9,6.12,9.29.13-1.27.29-4.3.36-5.57s.14-2.19.28-3.07c.24-1.39-.47-7.63.15-8.21,0,0,1.16,9.12,1.64,8.11,1.51-3.17,2.34-3.66,4.13-6.34.23-.33-4.14,8.9-4.09,9.42.18,2.08.42,5.1.71,9.47a33.21,33.21,0,0,0,4.6-3.22c-.8-2.7,1.75-8,1.75-8-.08,2.85-1.17,6.65-.66,7,1.12-1.32,6.73-5.52,8.05-7.24,0,0-7.84,10.29-13.53,14.27.26,3.34.37,8.84.5,9.91.29,2.23.73,4.8,1.18,6.76h-6.64c.11-1,.36-1.89.38-2.93,0-2.05.1-9.29.34-10.73-8.28-4.12-15.23-14-15.23-14C574,182.89,581.28,187.37,583.75,187.57Z"/><path class="cls-12" d="M581.09,136.39c-6.05.79-7.89,2.72-10.84,5.83a12.81,12.81,0,0,1,7.63-8.82,13.08,13.08,0,0,1,16.91,7.48,13.32,13.32,0,0,1,.52,8.36l0,0a13.13,13.13,0,0,1,14.85,8.09,13.66,13.66,0,0,1,.57,1.82c-8.19-9.34-24.59-3.44-21.45-5.85C596.14,148.09,592.52,134.9,581.09,136.39Z"/><path class="cls-12" d="M573.14,152a31.39,31.39,0,0,0-9.57,2.25c-1.21.56-3.9,2.31-4.73,2.64a12.62,12.62,0,0,1,11.57-7.6S576.89,151.68,573.14,152Z"/><path class="cls-12" d="M596.21,158.06a1.78,1.78,0,1,0,1.77-1.77A1.77,1.77,0,0,0,596.21,158.06Z"/><path class="cls-12" d="M598.83,161.94a2.9,2.9,0,1,0,2.9-2.89A2.89,2.89,0,0,0,598.83,161.94Z"/><path class="cls-12" d="M600.89,156.92a.84.84,0,1,0,.84-.84A.84.84,0,0,0,600.89,156.92Z"/><g class="cls-10"><path class="cls-13" d="M556.93,176.64a10.29,10.29,0,0,1,1.55-9.91,8.31,8.31,0,0,0,5.51.17s-1.52,8.87,7.36,11.09c8.18,2,13.22-8.92,13.22-8.92A29.13,29.13,0,0,0,601,172.75c4.38-.38,4.44-5.25,6.36-8.13s1.29,2.28,3.55,1.52c.8-.27,1.49-.52,2.06-.73a5.7,5.7,0,0,1-.33,1.17,5.53,5.53,0,0,1-2.57,2.77,10.21,10.21,0,0,1-18.17,8.42,8.21,8.21,0,0,1-6.68,1.62,12.67,12.67,0,0,1-12.88,6.93,4.64,4.64,0,0,1-8.73,0,4.56,4.56,0,0,1,.08-3.39A10.29,10.29,0,0,1,556.93,176.64Z"/><path class="cls-13" d="M565.27,169.25a2.8,2.8,0,1,0,2.8-2.79A2.8,2.8,0,0,0,565.27,169.25Z"/><circle class="cls-13" cx="564.52" cy="162.33" r="1.77"/><circle class="cls-13" cx="567.6" cy="164.75" r="1.3"/><path class="cls-13" d="M582.69,140.31a1.88,1.88,0,1,0,1.88-1.87A1.88,1.88,0,0,0,582.69,140.31Z"/><path class="cls-13" d="M586.57,144.11a1.51,1.51,0,1,0,1.51-1.51A1.51,1.51,0,0,0,586.57,144.11Z"/></g><path class="cls-9" d="M586.93,189.46v-1.25l.63.16c.25,3.36.35,8.6.48,9.64.29,2.23.73,4.8,1.18,6.76h-1.46l-.83-4.74Z"/><path class="cls-14" d="M594.44,177.45a1.77,1.77,0,1,0,1.77-1.78A1.77,1.77,0,0,0,594.44,177.45Z"/><path class="cls-14" d="M592.8,174.59a1.15,1.15,0,1,0,1.15-1.14A1.15,1.15,0,0,0,592.8,174.59Z"/><polygon class="cls-4" points="3480.99 115.48 3471.84 127.11 3474.21 126.62 3473.22 129.52 3463.53 138.84 3468.87 138.88 3464.02 145.83 3458.38 150.55 3463.43 153.85 3451.37 163.67 3462.24 167.15 3446.58 179.02 3456.9 183.8 3442.95 194.3 3453.56 194.2 3456.31 195.47 3472.03 198.5 3499.03 196.63 3519.51 190.48 3506.16 186.47 3512.09 183.8 3498.74 170.17 3504.08 169.17 3496.36 155.58 3503.78 152.78 3494.04 144.47 3501.31 142.23 3490.77 136.2 3494.58 134.6 3487.76 127.44 3489.84 124.97 3480.99 115.48"/><polygon class="cls-5" points="3483.63 206.78 3474.98 206.78 3476.78 195.54 3482.72 195.54 3482.78 200.49 3483.63 206.78"/><polygon class="cls-6" points="3472.03 198.5 3499.03 196.63 3519.51 190.48 3506.16 186.47 3512.09 183.8 3498.74 170.17 3504.08 169.17 3496.36 155.58 3501.98 153.46 3494.04 144.47 3495.28 142.23 3490.77 136.2 3494.58 134.6 3487.76 127.44 3489.84 124.97 3481.64 116.5 3482.42 123.9 3478.26 126.31 3484.49 128.73 3483.9 136.47 3477.18 138.61 3484.49 145.56 3479.3 155.58 3493.79 164.65 3490.99 167.48 3479.43 171.05 3487.72 182.23 3496.36 187.96 3455.94 195.37 3456.31 195.47 3472.03 198.5"/><g class="cls-7"><polygon class="cls-8" points="3462.24 167.15 3446.58 179.02 3479.43 171.05 3465.15 169.76 3462.24 167.15"/><polygon class="cls-8" points="3463.43 153.85 3451.37 163.67 3462.24 167.15 3468.82 154.82 3463.43 153.85"/><polygon class="cls-8" points="3458.38 150.55 3460.36 151.84 3474.8 142.23 3466.77 141.89 3464.02 145.83 3458.38 150.55"/><polygon class="cls-8" points="3456.9 183.8 3442.95 194.3 3470.57 184.6 3456.9 183.8"/><polygon class="cls-8" points="3473.44 128.86 3473.22 129.52 3463.53 138.84 3465.15 138.85 3477.62 128.86 3473.44 128.86"/><polygon class="cls-8" points="3473.34 126.8 3478.36 122.81 3480.99 115.48 3471.84 127.11 3473.34 126.8"/></g><polygon class="cls-9" points="3476.76 206.78 3477.62 195.54 3476.78 195.54 3474.98 206.78 3476.76 206.78"/><g class="cls-7"><polygon class="cls-8" points="3467.2 153.09 3470.44 150.59 3470.44 152.75 3467.2 153.09"/><polygon class="cls-8" points="3484.09 151.84 3487.33 149.34 3487.33 151.5 3484.09 151.84"/><polygon class="cls-8" points="3475.46 135.7 3475.46 137.96 3477.14 136.83 3475.46 135.7"/><polygon class="cls-8" points="3465.15 164.65 3468.82 164.65 3468.82 161.77 3465.15 164.65"/><polygon class="cls-8" points="3483.15 126.1 3486.82 126.1 3486.82 123.22 3483.15 126.1"/><polygon class="cls-8" points="3492.35 160.01 3496.02 160.01 3496.02 157.14 3492.35 160.01"/><polygon class="cls-8" points="3465.36 182.35 3461.75 179.19 3459.99 181.51 3465.36 182.35"/><polygon class="cls-8" points="3467.62 189.05 3465.64 192.2 3462.68 192.2 3467.62 189.05"/><polygon class="cls-8" points="3473.64 138.02 3471.71 139.68 3470.03 138.02 3473.64 138.02"/><polygon class="cls-8" points="3475.08 166.95 3478.31 166.12 3474.29 164.46 3475.08 166.95"/></g><g class="cls-10"><polygon class="cls-11" points="3506.65 183.55 3503.09 183.55 3506.65 185.74 3506.65 183.55"/><polygon class="cls-11" points="3488.55 173.09 3484.99 173.09 3488.55 175.27 3488.55 173.09"/><polygon class="cls-11" points="3495.97 192.68 3492.41 192.68 3495.97 194.87 3495.97 192.68"/><polygon class="cls-11" points="3496.36 167.15 3492.01 168.25 3496.36 169.97 3496.36 167.15"/><polygon class="cls-11" points="3483.7 155.58 3487.72 156.69 3484.49 158.58 3483.7 155.58"/><polygon class="cls-11" points="3486.77 129.96 3490.79 131.06 3487.56 132.95 3486.77 129.96"/><polygon class="cls-11" points="3490.89 146.87 3488.78 146.87 3490.89 148.89 3490.89 146.87"/></g><polygon class="cls-4" points="3807.88 39.83 3791.15 61.11 3795.49 60.21 3793.68 65.5 3775.96 82.55 3785.73 82.62 3776.86 95.33 3766.55 103.96 3775.78 110 3753.72 127.96 3773.61 134.32 3744.96 156.03 3763.84 164.76 3738.34 183.96 3757.74 183.78 3762.75 186.11 3791.51 191.65 3840.88 188.23 3878.32 176.99 3853.9 169.65 3864.76 164.76 3840.34 139.84 3850.11 138.01 3836 113.17 3849.56 108.04 3831.75 92.85 3845.04 88.75 3825.78 77.73 3832.74 74.8 3820.27 61.71 3824.06 57.19 3807.88 39.83"/><polygon class="cls-5" points="3812.71 206.78 3796.9 206.78 3800.19 186.22 3811.04 186.22 3811.17 195.29 3812.71 206.78"/><polygon class="cls-6" points="3791.51 191.65 3840.88 188.23 3878.32 176.99 3853.9 169.65 3864.76 164.76 3840.34 139.84 3850.11 138.01 3836 113.17 3846.26 109.29 3831.75 92.85 3834.03 88.75 3825.78 77.73 3832.74 74.8 3820.27 61.71 3824.06 57.19 3809.08 41.7 3810.5 55.24 3802.9 59.64 3814.3 64.06 3813.21 78.22 3800.91 82.13 3814.3 94.84 3804.8 113.17 3831.3 129.74 3826.18 134.92 3805.03 141.45 3820.2 161.88 3836 172.38 3762.08 185.92 3762.75 186.11 3791.51 191.65"/><g class="cls-7"><polygon class="cls-8" points="3773.61 134.32 3744.96 156.03 3805.03 141.45 3778.92 139.1 3773.61 134.32"/><polygon class="cls-8" points="3775.78 110 3753.72 127.96 3773.61 134.32 3785.64 111.77 3775.78 110"/><polygon class="cls-8" points="3766.55 103.96 3770.16 106.32 3796.57 88.75 3781.88 88.13 3776.86 95.33 3766.55 103.96"/><polygon class="cls-8" points="3763.84 164.76 3738.34 183.96 3788.84 166.22 3763.84 164.76"/><polygon class="cls-8" points="3794.09 64.31 3793.68 65.5 3775.96 82.55 3778.92 82.57 3801.72 64.31 3794.09 64.31"/><polygon class="cls-8" points="3793.91 60.54 3803.08 53.23 3807.88 39.83 3791.15 61.11 3793.91 60.54"/></g><polygon class="cls-9" points="3800.15 206.78 3801.72 186.22 3800.19 186.22 3796.9 206.78 3800.15 206.78"/><g class="cls-7"><polygon class="cls-8" points="3782.67 108.61 3788.6 104.04 3788.6 107.99 3782.67 108.61"/><polygon class="cls-8" points="3813.56 106.32 3819.49 101.75 3819.49 105.7 3813.56 106.32"/><polygon class="cls-8" points="3797.77 76.8 3797.77 80.93 3800.85 78.87 3797.77 76.8"/><polygon class="cls-8" points="3778.92 129.74 3785.64 129.74 3785.64 124.48 3778.92 129.74"/><polygon class="cls-8" points="3811.84 59.26 3818.56 59.26 3818.56 54 3811.84 59.26"/><polygon class="cls-8" points="3828.66 121.27 3835.38 121.27 3835.38 116.01 3828.66 121.27"/><polygon class="cls-8" points="3779.31 162.1 3772.71 156.34 3769.5 160.58 3779.31 162.1"/><polygon class="cls-8" points="3783.44 174.36 3779.83 180.12 3774.4 180.12 3783.44 174.36"/><polygon class="cls-8" points="3794.45 81.05 3790.93 84.09 3787.85 81.05 3794.45 81.05"/><polygon class="cls-8" points="3797.08 133.96 3802.99 132.44 3795.64 129.39 3797.08 133.96"/></g><g class="cls-10"><polygon class="cls-11" points="3854.81 164.31 3848.3 164.31 3854.81 168.3 3854.81 164.31"/><polygon class="cls-11" points="3821.71 145.17 3815.2 145.17 3821.71 149.16 3821.71 145.17"/><polygon class="cls-11" points="3835.28 181 3828.76 181 3835.28 185 3835.28 181"/><polygon class="cls-11" points="3836 134.32 3828.04 136.33 3836 139.48 3836 134.32"/><polygon class="cls-11" points="3812.85 113.17 3820.2 115.19 3814.3 118.64 3812.85 113.17"/><polygon class="cls-11" points="3818.46 66.31 3825.81 68.33 3819.9 71.78 3818.46 66.31"/><polygon class="cls-11" points="3825.99 97.23 3822.13 97.23 3825.99 100.93 3825.99 97.23"/></g><path class="cls-2" d="M3993.09,181.43a6.79,6.79,0,0,0-7.41-1.19,13.27,13.27,0,0,0-10.87-9.67,13.56,13.56,0,0,0,2.45-8.2,13.12,13.12,0,0,0-26.23-.5,12.62,12.62,0,0,0-4.77-.79,13.29,13.29,0,0,0-12.75,13.81,13.43,13.43,0,0,0,.84,4.32,13.53,13.53,0,0,0-1.71,7,13.3,13.3,0,0,0,13.51,13.08,12.81,12.81,0,0,0,6.23-1.83c.11.11.2.24.32.35a8.29,8.29,0,0,0,11.71-.52,8.45,8.45,0,0,0,1.44-2.17,12.81,12.81,0,0,0,7.58,2.21,12.66,12.66,0,0,0,4.64-1,4.83,4.83,0,0,0,1.41,2.48,5,5,0,0,0,7.11-.34,5.11,5.11,0,0,0,1.14-5,7,7,0,0,0,5.6-2.24A6.9,6.9,0,0,0,3993.09,181.43Z"/><path class="cls-15" d="M3961.25,202.78c-.08,1-.11,1.78-.12,2.53h8.33a123.78,123.78,0,0,0,13.93-13.12c-1.7,1.87-8.9,6.41-10.34,7.85-.65-.38.75-4.5.85-7.6,0,0-3.26,5.75-2.25,8.67a45.51,45.51,0,0,1-5.89,3.5c-.38-4.74-.68-8-.92-10.27-.05-.57,5.55-10.58,5.26-10.22-2.31,2.91-3.36,3.44-5.31,6.87-.62,1.1-2.1-8.79-2.1-8.79-.79.64.11,7.4-.19,8.9a27.05,27.05,0,0,0-.37,3.33c-.08,1.38-.29,4.66-.46,6-1.47-.35-4.31-3.64-7.85-10.07C3953.82,190.41,3956.55,201.41,3961.25,202.78Z"/><path class="cls-15" d="M3960.18,205.31h3.75c-4.24-2-17.91-5.48-22.9-9.61C3941,195.7,3943,200.68,3960.18,205.31Z"/><path class="cls-12" d="M3968.15,157.49a2.45,2.45,0,1,1-2.44-2.45A2.44,2.44,0,0,1,3968.15,157.49Z"/><path class="cls-12" d="M3962.41,156.34a1.15,1.15,0,1,1-1.14-1.15A1.15,1.15,0,0,1,3962.41,156.34Z"/><g class="cls-10"><path class="cls-13" d="M3946.15,199.28a12.81,12.81,0,0,0,6.23-1.83c.11.11.2.24.32.35a8.29,8.29,0,0,0,11.71-.52,8.45,8.45,0,0,0,1.44-2.17,12.81,12.81,0,0,0,7.58,2.21,12.66,12.66,0,0,0,4.64-1,4.83,4.83,0,0,0,1.41,2.48,5,5,0,0,0,7.11-.34,5.11,5.11,0,0,0,1.14-5,7,7,0,0,0,6.37-10.81c-.86,2.08-2.1,4.63-3.4,5.7-2.34,1.95-4.93-2.41-7.31-4.76s-3.48.24-6.77,1.9-6.52-1.33-11.5-2.9S3951.5,188,3948.68,189s-7,3.51-12.21,1.16a10.41,10.41,0,0,1-3.75-2.86A13.27,13.27,0,0,0,3946.15,199.28Z"/><path class="cls-13" d="M3975.28,181.7a2.81,2.81,0,1,1-2.81-2.82A2.81,2.81,0,0,1,3975.28,181.7Z"/><path class="cls-13" d="M3978.71,180.85a1.29,1.29,0,1,1-1.29-1.29A1.29,1.29,0,0,1,3978.71,180.85Z"/></g><path class="cls-12" d="M3963.76,149.3A13.26,13.26,0,0,0,3951,161.86a12.82,12.82,0,0,0-4.77-.78,13.05,13.05,0,0,0-11.4,7.5c5.67-4.22,14.51-3,18.81-2.08a.83.83,0,0,0,.89-.38.84.84,0,0,0-.08-1l-1.33-1.55a1.45,1.45,0,0,1-.15-1.71c1.9-3.19,9.05-13.06,21.84-6.93A13,13,0,0,0,3963.76,149.3Z"/><path class="cls-12" d="M3974.83,170.53a26.84,26.84,0,0,0-12.42,4.81s8.34-2.4,15.85-1.62a21,21,0,0,1,4.49,1.14,13,13,0,0,0-7.94-4.29Z"/><polygon class="cls-4" points="2904.76 115.48 2895.61 127.11 2897.98 126.62 2896.99 129.52 2887.3 138.84 2892.64 138.88 2887.79 145.83 2882.15 150.55 2887.2 153.85 2875.14 163.67 2886.01 167.15 2870.35 179.02 2880.67 183.8 2866.72 194.3 2877.33 194.2 2880.08 195.47 2895.8 198.5 2922.8 196.63 2943.28 190.48 2929.93 186.47 2935.86 183.8 2922.51 170.17 2927.85 169.17 2920.14 155.58 2927.55 152.78 2917.81 144.47 2925.08 142.23 2914.55 136.2 2918.35 134.6 2911.53 127.44 2913.61 124.97 2904.76 115.48"/><polygon class="cls-5" points="2907.4 206.78 2898.75 206.78 2900.55 195.54 2906.49 195.54 2906.56 200.49 2907.4 206.78"/><polygon class="cls-6" points="2895.8 198.5 2922.8 196.63 2943.28 190.48 2929.93 186.47 2935.86 183.8 2922.51 170.17 2927.85 169.17 2920.14 155.58 2925.75 153.46 2917.81 144.47 2919.05 142.23 2914.55 136.2 2918.35 134.6 2911.53 127.44 2913.61 124.97 2905.41 116.5 2906.19 123.9 2902.03 126.31 2908.26 128.73 2907.67 136.47 2900.95 138.61 2908.26 145.56 2903.07 155.58 2917.56 164.65 2914.76 167.48 2903.2 171.05 2911.49 182.23 2920.14 187.96 2879.71 195.37 2880.08 195.47 2895.8 198.5"/><g class="cls-7"><polygon class="cls-8" points="2886.01 167.15 2870.35 179.02 2903.2 171.05 2888.92 169.76 2886.01 167.15"/><polygon class="cls-8" points="2887.2 153.85 2875.14 163.67 2886.01 167.15 2892.59 154.82 2887.2 153.85"/><polygon class="cls-8" points="2882.15 150.55 2884.13 151.84 2898.57 142.23 2890.54 141.89 2887.79 145.83 2882.15 150.55"/><polygon class="cls-8" points="2880.67 183.8 2866.72 194.3 2894.35 184.6 2880.67 183.8"/><polygon class="cls-8" points="2897.22 128.86 2896.99 129.52 2887.3 138.84 2888.92 138.85 2901.39 128.86 2897.22 128.86"/><polygon class="cls-8" points="2897.12 126.8 2902.13 122.81 2904.76 115.48 2895.61 127.11 2897.12 126.8"/></g><polygon class="cls-9" points="2900.53 206.78 2901.39 195.54 2900.55 195.54 2898.75 206.78 2900.53 206.78"/><g class="cls-7"><polygon class="cls-8" points="2890.97 153.09 2894.21 150.59 2894.21 152.75 2890.97 153.09"/><polygon class="cls-8" points="2907.86 151.84 2911.1 149.34 2911.1 151.5 2907.86 151.84"/><polygon class="cls-8" points="2899.23 135.7 2899.23 137.96 2900.91 136.83 2899.23 135.7"/><polygon class="cls-8" points="2888.92 164.65 2892.59 164.65 2892.59 161.77 2888.92 164.65"/><polygon class="cls-8" points="2906.92 126.1 2910.59 126.1 2910.59 123.22 2906.92 126.1"/><polygon class="cls-8" points="2916.12 160.01 2919.79 160.01 2919.79 157.14 2916.12 160.01"/><polygon class="cls-8" points="2889.13 182.35 2885.52 179.19 2883.76 181.51 2889.13 182.35"/><polygon class="cls-8" points="2891.39 189.05 2889.41 192.2 2886.45 192.2 2891.39 189.05"/><polygon class="cls-8" points="2897.41 138.02 2895.49 139.68 2893.8 138.02 2897.41 138.02"/><polygon class="cls-8" points="2898.85 166.95 2902.08 166.12 2898.06 164.46 2898.85 166.95"/></g><g class="cls-10"><polygon class="cls-11" points="2930.42 183.55 2926.86 183.55 2930.42 185.74 2930.42 183.55"/><polygon class="cls-11" points="2912.32 173.09 2908.76 173.09 2912.32 175.27 2912.32 173.09"/><polygon class="cls-11" points="2919.74 192.68 2916.18 192.68 2919.74 194.87 2919.74 192.68"/><polygon class="cls-11" points="2920.14 167.15 2915.78 168.25 2920.14 169.97 2920.14 167.15"/><polygon class="cls-11" points="2907.47 155.58 2911.49 156.69 2908.26 158.58 2907.47 155.58"/><polygon class="cls-11" points="2910.54 129.96 2914.56 131.06 2911.33 132.95 2910.54 129.96"/><polygon class="cls-11" points="2914.66 146.87 2912.55 146.87 2914.66 148.89 2914.66 146.87"/></g><path class="cls-2" d="M3231.57,164.73a14.56,14.56,0,0,0-1-24.09,18.44,18.44,0,0,0-17.71-18.36,17.82,17.82,0,0,0-6.62,1.1,18.24,18.24,0,0,0-36.47.7,19,19,0,0,0,3.39,11.35l0,.06a18.73,18.73,0,0,0-15.4,22.08,7.64,7.64,0,0,0,.89,9.33,7.79,7.79,0,0,0,4.77,2.43,14.43,14.43,0,0,0,28.21,2.29,11.63,11.63,0,0,0,9.66-1.12,17.87,17.87,0,0,0,20.47,2.9,6.56,6.56,0,1,0,9.84-8.67Z"/><path class="cls-5" d="M3198.49,183.19a54.61,54.61,0,0,0-.09-5.62c5.18-1.77,8.18-16.12,8.18-16.12-3.9,8.39-7,12.68-8.65,13.13-.18-1.8-.41-6.08-.51-7.88a41.39,41.39,0,0,0-.4-4.34c-.33-2,.66-10.78-.21-11.61,0,0-1.63,12.9-2.31,11.46-2.15-4.48-3.31-5.16-5.85-9-.32-.47,5.85,12.58,5.79,13.32-.26,2.94-.59,7.21-1,13.39a50,50,0,0,1-6.49-4.56c1.12-3.82-2.48-11.3-2.48-11.3.11,4,1.66,9.41.93,9.91-1.58-1.88-9.51-7.81-11.38-10.25,0,0,11.08,14.55,19.13,20.17-.37,4.72-.52,12.5-.71,14-.41,3.16-1,6.8-1.67,9.56h9.39a41,41,0,0,1-.53-4.14c-.06-2.9-.15-13.14-.48-15.17,11.7-5.82,21.53-19.84,21.53-19.84C3212.26,176.58,3202,182.92,3198.49,183.19Z"/><path class="cls-12" d="M3185.76,111.43c8.41-1.91,11.78-.24,17.22,2.44a18.07,18.07,0,0,0-14.44-8,18.47,18.47,0,0,0-18.77,18.17,19,19,0,0,0,3.39,11.35l0,.06a18.74,18.74,0,0,0-15.62,20.68c1.59-3.51,9-16.56,19.57-14.14,6.46,1.47,7.83,1.24,11.32-1.09,1.29-.86.06-1.35-5.29-3C3171.5,134.31,3169.86,115,3185.76,111.43Z"/><path class="cls-12" d="M3198.52,126.85c-1.92,2.65.28,2.82,5.42,1.44,3-.79,8.68-2.08,13.79-1.68,1.88.15,6.3,1.16,7.57,1.19a17.79,17.79,0,0,0-19.06-4.42S3200.45,124.2,3198.52,126.85Z"/><g class="cls-10"><path class="cls-13" d="M3237.47,153a14.55,14.55,0,0,0-6.9-12.38,18.88,18.88,0,0,0-.74-5,8,8,0,0,1-4.57,3.69c-5.06,1.53-1.93,4.18-1.93,4.18s6.74,11.63-4.33,18.31c-4.67,2.82-11.63,3.39-17.5,2-7-1.65-12.85-10.6-12.85-10.6s1.12,12.69-11.57,16.14c-6,1.64-12.13-4.34-12.13-4.34a16.47,16.47,0,0,1-4.25.42c-1.19,0-2.23,0-3.08,0a8.8,8.8,0,0,0,1,1.38,7.79,7.79,0,0,0,4.77,2.43,14.43,14.43,0,0,0,28.21,2.29,11.63,11.63,0,0,0,9.66-1.12,17.87,17.87,0,0,0,20.47,2.9,6.56,6.56,0,1,0,9.84-8.67A14.55,14.55,0,0,0,3237.47,153Z"/><circle class="cls-13" cx="3217.73" cy="155.18" r="3.95"/><path class="cls-13" d="M3213.64,159.13a2.51,2.51,0,1,1-2.51-2.51A2.51,2.51,0,0,1,3213.64,159.13Z"/><path class="cls-13" d="M3174,163.33a2.51,2.51,0,1,1-2.51-2.51A2.5,2.5,0,0,1,3174,163.33Z"/><path class="cls-13" d="M3220.24,148.81a1.84,1.84,0,1,1-1.84-1.84A1.84,1.84,0,0,1,3220.24,148.81Z"/><path class="cls-13" d="M3177.7,158.9a1.85,1.85,0,1,1-1.85-1.85A1.85,1.85,0,0,1,3177.7,158.9Z"/></g><path class="cls-14" d="M3227.77,167.57a2.51,2.51,0,1,1-2.51-2.51A2.5,2.5,0,0,1,3227.77,167.57Z"/><path class="cls-14" d="M3230.07,163.53a1.61,1.61,0,1,1-1.61-1.61A1.61,1.61,0,0,1,3230.07,163.53Z"/><path class="cls-12" d="M3183.86,119.77a2.51,2.51,0,1,1-2.5-2.51A2.51,2.51,0,0,1,3183.86,119.77Z"/><path class="cls-12" d="M3177.18,147a4.1,4.1,0,1,1-4.09-4.09A4.09,4.09,0,0,1,3177.18,147Z"/><path class="cls-12" d="M3185.22,115.21A1.18,1.18,0,1,1,3184,114,1.18,1.18,0,0,1,3185.22,115.21Z"/><path class="cls-12" d="M3198.18,131a1.18,1.18,0,1,1-1.18-1.17A1.17,1.17,0,0,1,3198.18,131Z"/><path class="cls-9" d="M3194,185.87V184.1l-.89.23c-.35,4.74-.49,12.15-.68,13.62-.41,3.16-1,6.8-1.67,9.56h2.06l1.18-6.7Z"/><polygon class="cls-4" points="3081.65 62.77 3070.03 85.3 3073.04 84.61 3071.78 88.69 3059.47 101.83 3066.26 101.88 3060.09 111.69 3052.93 118.34 3059.34 123 3049.54 141.75 3057.83 141.75 3041.25 160.7 3051.05 165.22 3033.33 173.89 3044.6 177.44 3050.29 179.23 3070.28 185.96 3104.58 183.32 3130.59 174.65 3113.63 168.99 3121.17 165.22 3104.2 146 3110.99 144.59 3101.19 125.44 3110.61 121.49 3101.19 115.08 3098.23 109.77 3103.51 107.92 3094.09 98.11 3098.93 95.85 3088.05 84.54 3092.89 82.28 3081.65 62.77"/><polygon class="cls-5" points="3086.11 207.51 3072.91 207.51 3076.31 182.19 3083.85 182.19 3085.04 199.53 3086.11 207.51"/><polygon class="cls-6" points="3070.28 185.96 3104.58 183.32 3130.59 174.65 3113.63 168.99 3121.17 165.22 3104.2 146 3110.99 144.59 3101.19 125.44 3110.61 121.49 3101.19 115.08 3098.23 109.77 3103.51 107.92 3094.09 98.11 3098.93 95.85 3088.05 84.54 3092.89 82.28 3082.48 64.21 3083.47 80.77 3078.19 84.17 3086.11 87.58 3085.36 98.49 3076.81 101.51 3086.11 111.31 3077.82 125.08 3097.92 138.22 3086.11 143.95 3072.91 145.24 3098.68 166.1 3085.1 173.6 3049.82 179.08 3050.29 179.23 3070.28 185.96"/><g class="cls-7"><polygon class="cls-8" points="3057.83 141.75 3041.25 160.7 3071.28 141.75 3057.83 141.75"/><polygon class="cls-8" points="3059.34 123 3049.54 141.75 3053.85 141.75 3066.19 124.36 3059.34 123"/><polygon class="cls-8" points="3052.93 118.34 3055.44 120.16 3063.24 112.56 3063.59 106.14 3060.09 111.69 3052.93 118.34"/><polygon class="cls-8" points="3051.05 165.22 3033.33 173.89 3081.96 165.22 3051.05 165.22"/><polygon class="cls-8" points="3072.07 87.77 3071.78 88.69 3059.47 101.83 3061.52 101.85 3077.37 87.77 3072.07 87.77"/><polygon class="cls-8" points="3071.94 84.86 3078.32 79.22 3081.65 62.77 3070.03 85.3 3071.94 84.86"/></g><polygon class="cls-9" points="3075.18 207.51 3077.37 182.19 3076.31 182.19 3072.91 207.51 3075.18 207.51"/><g class="cls-7"><polygon class="cls-8" points="3059.47 118.98 3063.59 115.45 3063.59 118.5 3059.47 118.98"/><polygon class="cls-8" points="3079.51 87.77 3079.51 90.95 3081.65 89.36 3079.51 87.77"/><polygon class="cls-8" points="3061.53 138.22 3066.19 138.22 3066.19 134.16 3061.53 138.22"/><polygon class="cls-8" points="3081.96 163 3077.37 158.56 3075.14 161.83 3081.96 163"/><polygon class="cls-8" points="3096.3 176.92 3091.72 172.48 3089.49 175.75 3096.3 176.92"/><polygon class="cls-8" points="3113.14 167.44 3108.55 163 3106.32 166.27 3113.14 167.44"/><polygon class="cls-8" points="3073.79 158.56 3071.28 163 3067.51 163 3073.79 158.56"/><polygon class="cls-8" points="3081.96 110.81 3079.51 113.15 3077.37 110.81 3081.96 110.81"/><polygon class="cls-8" points="3090.7 120.66 3088.25 123 3086.11 120.66 3090.7 120.66"/><polygon class="cls-8" points="3107.5 120.66 3105.05 123 3102.92 120.66 3107.5 120.66"/><polygon class="cls-8" points="3095.19 95.42 3092.74 97.76 3090.6 95.42 3095.19 95.42"/><polygon class="cls-8" points="3086.11 139.71 3090.21 138.54 3085.1 136.19 3086.11 139.71"/></g><g class="cls-10"><polygon class="cls-11" points="3109.74 169.56 3105.21 169.56 3109.74 172.63 3109.74 169.56"/><polygon class="cls-11" points="3101.19 147.25 3095.66 148.8 3101.19 151.22 3101.19 147.25"/><polygon class="cls-11" points="3085.1 125.44 3090.21 127 3086.11 129.66 3085.1 125.44"/><polygon class="cls-11" points="3092.89 98.99 3090.21 98.99 3092.89 101.85 3092.89 98.99"/></g><path class="cls-2" d="M3159.75,181.43a6.79,6.79,0,0,0-7.41-1.19,13.26,13.26,0,0,0-10.87-9.67,13.64,13.64,0,0,0,2.46-8.2,13.12,13.12,0,0,0-26.23-.5,12.66,12.66,0,0,0-4.77-.79,13.3,13.3,0,0,0-12.76,13.81,14,14,0,0,0,.84,4.32,13.62,13.62,0,0,0-1.71,7,13.3,13.3,0,0,0,13.51,13.08,12.88,12.88,0,0,0,6.24-1.83c.11.11.2.24.32.35a8.29,8.29,0,0,0,11.71-.52,8.45,8.45,0,0,0,1.44-2.17,12.78,12.78,0,0,0,7.57,2.21,12.57,12.57,0,0,0,4.64-1,4.85,4.85,0,0,0,1.42,2.48,5,5,0,0,0,7.1-.34,5.14,5.14,0,0,0,1.15-5,7,7,0,0,0,5.59-2.24A6.89,6.89,0,0,0,3159.75,181.43Z"/><path class="cls-15" d="M3127.91,202.78c-.07,1-.11,1.78-.11,2.53h8.32a123.78,123.78,0,0,0,13.93-13.12c-1.69,1.87-8.89,6.41-10.33,7.85-.66-.38.75-4.5.84-7.6,0,0-3.26,5.75-2.25,8.67a44.85,44.85,0,0,1-5.89,3.5c-.38-4.74-.68-8-.91-10.27-.06-.57,5.54-10.58,5.25-10.22-2.3,2.91-3.36,3.44-5.3,6.87-.62,1.1-2.11-8.79-2.11-8.79-.79.64.11,7.4-.19,8.9a29.29,29.29,0,0,0-.36,3.33c-.09,1.38-.3,4.66-.46,6-1.47-.35-4.31-3.64-7.86-10.07C3120.48,190.41,3123.21,201.41,3127.91,202.78Z"/><path class="cls-15" d="M3126.85,205.31h3.75c-4.25-2-17.92-5.48-22.9-9.61C3107.7,195.7,3109.66,200.68,3126.85,205.31Z"/><path class="cls-12" d="M3134.82,157.49a2.45,2.45,0,1,1-2.45-2.45A2.45,2.45,0,0,1,3134.82,157.49Z"/><path class="cls-12" d="M3129.08,156.34a1.15,1.15,0,1,1-1.15-1.15A1.16,1.16,0,0,1,3129.08,156.34Z"/><g class="cls-10"><path class="cls-13" d="M3112.81,199.28a12.88,12.88,0,0,0,6.24-1.83c.11.11.2.24.32.35a8.29,8.29,0,0,0,11.71-.52,8.45,8.45,0,0,0,1.44-2.17,12.78,12.78,0,0,0,7.57,2.21,12.57,12.57,0,0,0,4.64-1,4.85,4.85,0,0,0,1.42,2.48,5,5,0,0,0,7.1-.34,5.14,5.14,0,0,0,1.15-5,7,7,0,0,0,6.36-10.81c-.85,2.08-2.1,4.63-3.39,5.7-2.35,1.95-4.93-2.41-7.32-4.76s-3.48.24-6.77,1.9-6.52-1.33-11.5-2.9-13.62,5.46-16.44,6.41-7,3.51-12.2,1.16a10.24,10.24,0,0,1-3.75-2.86A13.26,13.26,0,0,0,3112.81,199.28Z"/><path class="cls-13" d="M3142,181.7a2.82,2.82,0,1,1-2.82-2.82A2.81,2.81,0,0,1,3142,181.7Z"/><path class="cls-13" d="M3145.37,180.85a1.29,1.29,0,1,1-1.29-1.29A1.29,1.29,0,0,1,3145.37,180.85Z"/></g><path class="cls-12" d="M3130.42,149.3a13.25,13.25,0,0,0-12.72,12.56,12.85,12.85,0,0,0-4.77-.78,13.08,13.08,0,0,0-11.41,7.5c5.67-4.22,14.52-3,18.82-2.08a.82.82,0,0,0,.8-1.35l-1.33-1.55a1.48,1.48,0,0,1-.15-1.71c1.9-3.19,9.05-13.06,21.84-6.93A13,13,0,0,0,3130.42,149.3Z"/><path class="cls-12" d="M3141.49,170.53a26.83,26.83,0,0,0-12.41,4.81s8.33-2.4,15.84-1.62a20.85,20.85,0,0,1,4.49,1.14,13,13,0,0,0-7.94-4.29S3141.48,170.55,3141.49,170.53Z"/><path class="cls-2" d="M3339.3,181.43a6.79,6.79,0,0,0-7.41-1.19,13.27,13.27,0,0,0-10.87-9.67,13.56,13.56,0,0,0,2.45-8.2,13.12,13.12,0,0,0-26.23-.5,12.62,12.62,0,0,0-4.77-.79,13.29,13.29,0,0,0-12.75,13.81,13.43,13.43,0,0,0,.84,4.32,13.53,13.53,0,0,0-1.71,7,13.3,13.3,0,0,0,13.51,13.08,12.84,12.84,0,0,0,6.23-1.83c.11.11.2.24.32.35a8.29,8.29,0,0,0,11.71-.52,8.45,8.45,0,0,0,1.44-2.17,12.81,12.81,0,0,0,12.22,1.19,4.83,4.83,0,0,0,1.41,2.48,5,5,0,0,0,7.11-.34,5.11,5.11,0,0,0,1.14-5,7,7,0,0,0,5.6-2.24A6.91,6.91,0,0,0,3339.3,181.43Z"/><path class="cls-15" d="M3307.46,202.78c-.08,1-.11,1.78-.12,2.53h8.33a123.78,123.78,0,0,0,13.93-13.12c-1.7,1.87-8.9,6.41-10.34,7.85-.65-.38.75-4.5.85-7.6,0,0-3.27,5.75-2.25,8.67a45.51,45.51,0,0,1-5.89,3.5c-.38-4.74-.68-8-.92-10.27-.05-.57,5.55-10.58,5.26-10.22C3314,187,3313,187.56,3311,191c-.62,1.1-2.1-8.79-2.1-8.79-.79.64.11,7.4-.19,8.9a27.05,27.05,0,0,0-.37,3.33c-.09,1.38-.29,4.66-.46,6-1.47-.35-4.31-3.64-7.85-10.07C3300,190.41,3302.76,201.41,3307.46,202.78Z"/><path class="cls-15" d="M3306.39,205.31h3.75c-4.24-2-17.91-5.48-22.9-9.61C3287.24,195.7,3289.2,200.68,3306.39,205.31Z"/><path class="cls-12" d="M3314.36,157.49a2.45,2.45,0,1,1-2.44-2.45A2.44,2.44,0,0,1,3314.36,157.49Z"/><path class="cls-12" d="M3308.62,156.34a1.15,1.15,0,1,1-1.14-1.15A1.15,1.15,0,0,1,3308.62,156.34Z"/><g class="cls-10"><path class="cls-13" d="M3292.36,199.28a12.84,12.84,0,0,0,6.23-1.83c.11.11.2.24.32.35a8.29,8.29,0,0,0,11.71-.52,8.45,8.45,0,0,0,1.44-2.17,12.81,12.81,0,0,0,12.22,1.19,4.83,4.83,0,0,0,1.41,2.48,5,5,0,0,0,7.11-.34,5.11,5.11,0,0,0,1.14-5,7,7,0,0,0,6.37-10.81c-.86,2.08-2.1,4.63-3.4,5.7-2.34,1.95-4.93-2.41-7.31-4.76s-3.48.24-6.77,1.9-6.52-1.33-11.5-2.9-13.62,5.46-16.44,6.41-7,3.51-12.21,1.16a10.41,10.41,0,0,1-3.75-2.86A13.27,13.27,0,0,0,3292.36,199.28Z"/><path class="cls-13" d="M3321.49,181.7a2.81,2.81,0,1,1-2.81-2.82A2.81,2.81,0,0,1,3321.49,181.7Z"/><path class="cls-13" d="M3324.92,180.85a1.29,1.29,0,1,1-1.29-1.29A1.29,1.29,0,0,1,3324.92,180.85Z"/></g><path class="cls-12" d="M3310,149.3a13.26,13.26,0,0,0-12.73,12.56,12.82,12.82,0,0,0-4.77-.78,13.08,13.08,0,0,0-11.41,7.5c5.67-4.22,14.52-3,18.82-2.08a.83.83,0,0,0,.89-.38.84.84,0,0,0-.08-1l-1.33-1.55a1.45,1.45,0,0,1-.15-1.71c1.9-3.19,9.05-13.06,21.84-6.93A13,13,0,0,0,3310,149.3Z"/><path class="cls-12" d="M3321,170.53a26.84,26.84,0,0,0-12.42,4.81s8.34-2.4,15.85-1.62a21,21,0,0,1,4.49,1.14,13,13,0,0,0-7.94-4.29Z"/><polygon class="cls-4" points="3666.87 39.89 3653.28 66.26 3656.8 65.44 3655.33 70.22 3640.92 85.6 3648.86 85.66 3641.66 97.13 3633.27 104.92 3640.77 110.36 3629.3 132.31 3639.01 132.31 3619.6 154.48 3631.07 159.77 3610.34 169.91 3623.52 174.06 3630.18 176.16 3653.56 184.03 3693.71 180.94 3724.14 170.8 3704.29 164.18 3713.11 159.77 3693.26 137.28 3701.2 135.63 3689.73 113.22 3700.76 108.6 3689.73 101.1 3686.28 94.89 3692.45 92.72 3681.43 81.25 3687.09 78.6 3674.36 65.37 3680.03 62.72 3666.87 39.89"/><polygon class="cls-5" points="3672.09 209.25 3656.65 209.25 3660.62 179.62 3669.44 179.62 3670.84 199.91 3672.09 209.25"/><polygon class="cls-6" points="3653.56 184.03 3693.71 180.94 3724.14 170.8 3704.29 164.18 3713.11 159.77 3693.26 137.28 3701.2 135.63 3689.73 113.22 3700.76 108.6 3689.73 101.1 3686.28 94.89 3692.45 92.72 3681.43 81.25 3687.09 78.6 3674.36 65.37 3680.03 62.72 3667.84 41.58 3669 60.96 3662.83 64.93 3672.09 68.92 3671.21 81.69 3661.21 85.22 3672.09 96.69 3662.39 112.81 3685.91 128.17 3672.09 134.88 3656.65 136.39 3686.8 160.8 3670.91 169.58 3629.64 175.99 3630.18 176.16 3653.56 184.03"/><g class="cls-7"><polygon class="cls-8" points="3639.01 132.31 3619.6 154.48 3654.74 132.31 3639.01 132.31"/><polygon class="cls-8" points="3640.77 110.36 3629.3 132.31 3634.35 132.31 3648.79 111.96 3640.77 110.36"/><polygon class="cls-8" points="3633.27 104.92 3636.2 107.05 3645.33 98.16 3645.74 90.63 3641.66 97.13 3633.27 104.92"/><polygon class="cls-8" points="3631.07 159.77 3610.34 169.91 3667.24 159.77 3631.07 159.77"/><polygon class="cls-8" points="3655.66 69.14 3655.33 70.22 3640.92 85.6 3643.32 85.62 3661.87 69.14 3655.66 69.14"/><polygon class="cls-8" points="3655.52 65.74 3662.97 59.15 3666.87 39.89 3653.28 66.26 3655.52 65.74"/></g><polygon class="cls-9" points="3659.3 209.25 3661.87 179.62 3660.62 179.62 3656.65 209.25 3659.3 209.25"/><g class="cls-7"><polygon class="cls-8" points="3640.92 105.66 3645.74 101.54 3645.74 105.1 3640.92 105.66"/><polygon class="cls-8" points="3664.37 69.14 3664.37 72.87 3666.87 71 3664.37 69.14"/><polygon class="cls-8" points="3643.33 128.17 3648.79 128.17 3648.79 123.42 3643.33 128.17"/><polygon class="cls-8" points="3667.24 157.17 3661.87 151.97 3659.26 155.8 3667.24 157.17"/><polygon class="cls-8" points="3684.02 173.46 3678.65 168.26 3676.04 172.09 3684.02 173.46"/><polygon class="cls-8" points="3703.72 162.37 3698.35 157.17 3695.74 160.99 3703.72 162.37"/><polygon class="cls-8" points="3657.68 151.97 3654.74 157.17 3650.33 157.17 3657.68 151.97"/><polygon class="cls-8" points="3667.24 96.1 3664.37 98.84 3661.87 96.1 3667.24 96.1"/><polygon class="cls-8" points="3677.46 107.62 3674.59 110.36 3672.09 107.62 3677.46 107.62"/><polygon class="cls-8" points="3697.12 107.62 3694.26 110.36 3691.76 107.62 3697.12 107.62"/><polygon class="cls-8" points="3682.71 78.1 3679.85 80.84 3677.35 78.1 3682.71 78.1"/><polygon class="cls-8" points="3672.09 129.92 3676.89 128.54 3670.91 125.8 3672.09 129.92"/></g><g class="cls-10"><polygon class="cls-11" points="3699.74 164.84 3694.44 164.84 3699.74 168.44 3699.74 164.84"/><polygon class="cls-11" points="3689.73 138.74 3683.26 140.55 3689.73 143.39 3689.73 138.74"/><polygon class="cls-11" points="3670.91 113.22 3676.89 115.04 3672.09 118.16 3670.91 113.22"/><polygon class="cls-11" points="3680.03 82.28 3676.89 82.28 3680.03 85.62 3680.03 82.28"/></g><path class="cls-2" d="M1746.54,181.43a6.79,6.79,0,0,0-7.41-1.19,13.28,13.28,0,0,0-10.88-9.67,13.5,13.5,0,0,0,2.46-8.2,13.12,13.12,0,0,0-26.23-.5,12.62,12.62,0,0,0-4.77-.79A13.29,13.29,0,0,0,1687,174.89a13.69,13.69,0,0,0,.83,4.32,13.72,13.72,0,0,0-1.71,7,13.31,13.31,0,0,0,13.51,13.08,12.88,12.88,0,0,0,6.24-1.83c.11.11.2.24.32.35a8.29,8.29,0,0,0,11.71-.52,8.45,8.45,0,0,0,1.44-2.17,12.81,12.81,0,0,0,12.22,1.19,4.83,4.83,0,0,0,1.41,2.48,5,5,0,0,0,7.1-.34,5.11,5.11,0,0,0,1.15-5,7,7,0,0,0,5.6-2.24A6.91,6.91,0,0,0,1746.54,181.43Z"/><path class="cls-15" d="M1714.7,202.78c-.08,1-.11,1.78-.12,2.53h8.33a123.78,123.78,0,0,0,13.93-13.12c-1.7,1.87-8.9,6.41-10.34,7.85-.66-.38.75-4.5.85-7.6,0,0-3.27,5.75-2.25,8.67a45.64,45.64,0,0,1-5.9,3.5c-.38-4.74-.67-8-.91-10.27-.06-.57,5.54-10.58,5.25-10.22-2.3,2.91-3.36,3.44-5.3,6.87-.62,1.1-2.1-8.79-2.1-8.79-.8.64.11,7.4-.19,8.9a27.05,27.05,0,0,0-.37,3.33c-.09,1.38-.29,4.66-.46,6-1.47-.35-4.31-3.64-7.86-10.07C1707.26,190.41,1710,201.41,1714.7,202.78Z"/><path class="cls-15" d="M1713.63,205.31h3.75c-4.25-2-17.91-5.48-22.9-9.61C1694.48,195.7,1696.44,200.68,1713.63,205.31Z"/><path class="cls-12" d="M1721.6,157.49a2.45,2.45,0,1,1-2.44-2.45A2.44,2.44,0,0,1,1721.6,157.49Z"/><path class="cls-12" d="M1715.86,156.34a1.15,1.15,0,1,1-1.15-1.15A1.15,1.15,0,0,1,1715.86,156.34Z"/><g class="cls-10"><path class="cls-13" d="M1699.59,199.28a12.88,12.88,0,0,0,6.24-1.83c.11.11.2.24.32.35a8.29,8.29,0,0,0,11.71-.52,8.45,8.45,0,0,0,1.44-2.17,12.81,12.81,0,0,0,12.22,1.19,4.83,4.83,0,0,0,1.41,2.48,5,5,0,0,0,7.1-.34,5.11,5.11,0,0,0,1.15-5,7,7,0,0,0,6.36-10.81c-.85,2.08-2.09,4.63-3.39,5.7-2.35,1.95-4.93-2.41-7.31-4.76s-3.49.24-6.77,1.9-6.53-1.33-11.51-2.9S1705,188,1702.13,189s-7,3.51-12.21,1.16a10.32,10.32,0,0,1-3.75-2.86A13.27,13.27,0,0,0,1699.59,199.28Z"/><path class="cls-13" d="M1728.73,181.7a2.82,2.82,0,1,1-2.81-2.82A2.81,2.81,0,0,1,1728.73,181.7Z"/><path class="cls-13" d="M1732.15,180.85a1.29,1.29,0,1,1-1.29-1.29A1.29,1.29,0,0,1,1732.15,180.85Z"/></g><path class="cls-12" d="M1717.21,149.3a13.25,13.25,0,0,0-12.73,12.56,12.82,12.82,0,0,0-4.77-.78,13.08,13.08,0,0,0-11.41,7.5c5.67-4.22,14.52-3,18.82-2.08a.83.83,0,0,0,.89-.38.84.84,0,0,0-.08-1l-1.33-1.55a1.45,1.45,0,0,1-.15-1.71c1.9-3.19,9-13.06,21.83-6.93A13,13,0,0,0,1717.21,149.3Z"/><path class="cls-12" d="M1728.28,170.53a26.84,26.84,0,0,0-12.42,4.81s8.34-2.4,15.85-1.62a20.93,20.93,0,0,1,4.48,1.14,13,13,0,0,0-7.94-4.29Z"/><path class="cls-2" d="M2310.88,181.43a6.79,6.79,0,0,0-7.41-1.19,13.27,13.27,0,0,0-10.87-9.67,13.56,13.56,0,0,0,2.45-8.2,13.12,13.12,0,0,0-26.23-.5,12.62,12.62,0,0,0-4.77-.79,13.29,13.29,0,0,0-12.75,13.81,13.43,13.43,0,0,0,.84,4.32,13.53,13.53,0,0,0-1.71,7,13.3,13.3,0,0,0,13.51,13.08,12.84,12.84,0,0,0,6.23-1.83c.11.11.2.24.32.35a8.29,8.29,0,0,0,11.71-.52,8.45,8.45,0,0,0,1.44-2.17,12.81,12.81,0,0,0,7.57,2.21,12.66,12.66,0,0,0,4.65-1,4.83,4.83,0,0,0,1.41,2.48,5,5,0,0,0,7.11-.34,5.11,5.11,0,0,0,1.14-5,7,7,0,0,0,5.6-2.24A6.91,6.91,0,0,0,2310.88,181.43Z"/><path class="cls-15" d="M2279,202.78c-.08,1-.11,1.78-.12,2.53h8.33a123.78,123.78,0,0,0,13.93-13.12c-1.7,1.87-8.9,6.41-10.34,7.85-.65-.38.75-4.5.85-7.6,0,0-3.26,5.75-2.25,8.67a45.51,45.51,0,0,1-5.89,3.5c-.38-4.74-.68-8-.92-10.27-.05-.57,5.55-10.58,5.26-10.22-2.31,2.91-3.36,3.44-5.31,6.87-.62,1.1-2.1-8.79-2.1-8.79-.79.64.11,7.4-.19,8.9a27.05,27.05,0,0,0-.37,3.33c-.08,1.38-.29,4.66-.46,6-1.47-.35-4.31-3.64-7.85-10.07C2271.61,190.41,2274.34,201.41,2279,202.78Z"/><path class="cls-15" d="M2278,205.31h3.75c-4.24-2-17.91-5.48-22.9-9.61C2258.82,195.7,2260.78,200.68,2278,205.31Z"/><path class="cls-12" d="M2285.94,157.49a2.45,2.45,0,1,1-2.44-2.45A2.44,2.44,0,0,1,2285.94,157.49Z"/><path class="cls-12" d="M2280.2,156.34a1.15,1.15,0,1,1-1.14-1.15A1.15,1.15,0,0,1,2280.2,156.34Z"/><g class="cls-10"><path class="cls-13" d="M2263.94,199.28a12.84,12.84,0,0,0,6.23-1.83c.11.11.2.24.32.35a8.29,8.29,0,0,0,11.71-.52,8.45,8.45,0,0,0,1.44-2.17,12.81,12.81,0,0,0,7.57,2.21,12.66,12.66,0,0,0,4.65-1,4.83,4.83,0,0,0,1.41,2.48,5,5,0,0,0,7.11-.34,5.11,5.11,0,0,0,1.14-5,7,7,0,0,0,6.37-10.81c-.86,2.08-2.1,4.63-3.4,5.7-2.34,1.95-4.93-2.41-7.31-4.76s-3.48.24-6.77,1.9-6.52-1.33-11.5-2.9-13.62,5.46-16.44,6.41-7,3.51-12.21,1.16a10.41,10.41,0,0,1-3.75-2.86A13.27,13.27,0,0,0,2263.94,199.28Z"/><path class="cls-13" d="M2293.07,181.7a2.81,2.81,0,1,1-2.81-2.82A2.81,2.81,0,0,1,2293.07,181.7Z"/><path class="cls-13" d="M2296.5,180.85a1.29,1.29,0,1,1-1.29-1.29A1.29,1.29,0,0,1,2296.5,180.85Z"/></g><path class="cls-12" d="M2281.55,149.3a13.26,13.26,0,0,0-12.73,12.56,12.82,12.82,0,0,0-4.77-.78,13.08,13.08,0,0,0-11.41,7.5c5.67-4.22,14.52-3,18.82-2.08a.83.83,0,0,0,.89-.38.84.84,0,0,0-.08-1l-1.33-1.55a1.45,1.45,0,0,1-.15-1.71c1.9-3.19,9.05-13.06,21.84-6.93A13,13,0,0,0,2281.55,149.3Z"/><path class="cls-12" d="M2292.62,170.53a26.84,26.84,0,0,0-12.42,4.81s8.34-2.4,15.85-1.62a21,21,0,0,1,4.49,1.14,13,13,0,0,0-7.94-4.29Z"/><polygon class="cls-4" points="2344.72 121.44 2336.74 131.58 2338.81 131.15 2337.95 133.68 2329.5 141.8 2334.16 141.83 2329.93 147.89 2325.01 152.01 2329.41 154.89 2318.9 163.45 2328.38 166.48 2314.72 176.83 2323.72 180.99 2311.57 190.14 2320.81 190.06 2323.2 191.17 2336.91 193.81 2360.45 192.18 2378.3 186.82 2366.66 183.32 2371.83 180.99 2360.19 169.11 2364.85 168.24 2358.12 156.4 2364.59 153.96 2356.09 146.71 2362.43 144.75 2353.25 139.5 2356.57 138.1 2350.62 131.87 2352.43 129.71 2344.72 121.44"/><polygon class="cls-5" points="2347.02 201.02 2339.48 201.02 2341.05 191.22 2346.22 191.22 2346.28 195.54 2347.02 201.02"/><polygon class="cls-6" points="2336.91 193.81 2360.45 192.18 2378.3 186.82 2366.66 183.32 2371.83 180.99 2360.19 169.11 2364.85 168.24 2358.12 156.4 2363.01 154.55 2356.09 146.71 2357.18 144.75 2353.25 139.5 2356.57 138.1 2350.62 131.87 2352.43 129.71 2345.29 122.33 2345.97 128.78 2342.34 130.88 2347.78 132.99 2347.26 139.74 2341.4 141.6 2347.78 147.66 2343.25 156.4 2355.88 164.3 2353.44 166.77 2343.36 169.88 2350.59 179.62 2358.12 184.62 2322.88 191.08 2323.2 191.17 2336.91 193.81"/><g class="cls-7"><polygon class="cls-8" points="2328.38 166.48 2314.72 176.83 2343.36 169.88 2330.91 168.76 2328.38 166.48"/><polygon class="cls-8" points="2329.41 154.89 2318.9 163.45 2328.38 166.48 2334.11 155.73 2329.41 154.89"/><polygon class="cls-8" points="2325.01 152.01 2326.73 153.13 2339.33 144.75 2332.32 144.46 2329.93 147.89 2325.01 152.01"/><polygon class="cls-8" points="2323.72 180.99 2311.57 190.14 2335.64 181.69 2323.72 180.99"/><polygon class="cls-8" points="2338.14 133.11 2337.95 133.68 2329.5 141.8 2330.91 141.81 2341.78 133.11 2338.14 133.11"/><polygon class="cls-8" points="2338.06 131.31 2342.43 127.82 2344.72 121.44 2336.74 131.58 2338.06 131.31"/></g><polygon class="cls-9" points="2341.03 201.02 2341.78 191.22 2341.05 191.22 2339.48 201.02 2341.03 201.02"/><g class="cls-7"><polygon class="cls-8" points="2332.7 154.22 2335.53 152.04 2335.53 153.93 2332.7 154.22"/><polygon class="cls-8" points="2347.43 153.13 2350.25 150.96 2350.25 152.84 2347.43 153.13"/><polygon class="cls-8" points="2339.9 139.06 2339.9 141.03 2341.37 140.05 2339.9 139.06"/><polygon class="cls-8" points="2330.91 164.3 2334.11 164.3 2334.11 161.79 2330.91 164.3"/><polygon class="cls-8" points="2346.61 130.7 2349.81 130.7 2349.81 128.19 2346.61 130.7"/><polygon class="cls-8" points="2354.63 160.26 2357.82 160.26 2357.82 157.75 2354.63 160.26"/><polygon class="cls-8" points="2331.1 179.73 2327.95 176.98 2326.42 179 2331.1 179.73"/><polygon class="cls-8" points="2333.07 185.57 2331.34 188.31 2328.76 188.31 2333.07 185.57"/><polygon class="cls-8" points="2338.32 141.09 2336.64 142.54 2335.17 141.09 2338.32 141.09"/><polygon class="cls-8" points="2339.57 166.31 2342.38 165.58 2338.88 164.13 2339.57 166.31"/></g><g class="cls-10"><polygon class="cls-11" points="2367.09 180.78 2363.99 180.78 2367.09 182.68 2367.09 180.78"/><polygon class="cls-11" points="2351.31 171.65 2348.21 171.65 2351.31 173.56 2351.31 171.65"/><polygon class="cls-11" points="2357.78 188.73 2354.67 188.73 2357.78 190.64 2357.78 188.73"/><polygon class="cls-11" points="2358.12 166.48 2354.33 167.44 2358.12 168.94 2358.12 166.48"/><polygon class="cls-11" points="2347.09 156.4 2350.59 157.36 2347.78 159.01 2347.09 156.4"/><polygon class="cls-11" points="2349.76 134.06 2353.26 135.02 2350.45 136.67 2349.76 134.06"/><polygon class="cls-11" points="2353.35 148.8 2351.51 148.8 2353.35 150.56 2353.35 148.8"/></g><polygon class="cls-4" points="2747.56 134.98 2740.95 143.4 2742.66 143.04 2741.94 145.14 2734.93 151.88 2738.8 151.91 2735.29 156.94 2731.21 160.35 2734.86 162.74 2726.14 169.84 2734 172.36 2722.67 180.94 2730.14 184.4 2720.05 191.99 2727.72 191.92 2729.71 192.84 2741.08 195.04 2760.61 193.68 2775.43 189.24 2765.77 186.33 2770.06 184.4 2760.4 174.54 2764.26 173.82 2758.68 163.99 2764.05 161.96 2757 155.95 2762.26 154.33 2754.64 149.97 2757.4 148.81 2752.46 143.64 2753.96 141.85 2747.56 134.98"/><polygon class="cls-5" points="2749.47 201.02 2743.22 201.02 2744.52 192.89 2748.81 192.89 2748.86 196.48 2749.47 201.02"/><polygon class="cls-6" points="2741.08 195.04 2760.61 193.68 2775.43 189.24 2765.77 186.33 2770.06 184.4 2760.4 174.54 2764.26 173.82 2758.68 163.99 2762.74 162.46 2757 155.95 2757.9 154.33 2754.64 149.97 2757.4 148.81 2752.46 143.64 2753.96 141.85 2748.03 135.72 2748.6 141.07 2745.59 142.81 2750.1 144.57 2749.67 150.16 2744.8 151.71 2750.1 156.74 2746.34 163.99 2756.82 170.55 2754.8 172.6 2746.43 175.18 2752.43 183.26 2758.68 187.41 2729.44 192.77 2729.71 192.84 2741.08 195.04"/><g class="cls-7"><polygon class="cls-8" points="2734 172.36 2722.67 180.94 2746.43 175.18 2736.11 174.25 2734 172.36"/><polygon class="cls-8" points="2734.86 162.74 2726.14 169.84 2734 172.36 2738.76 163.44 2734.86 162.74"/><polygon class="cls-8" points="2731.21 160.35 2732.64 161.28 2743.09 154.33 2737.28 154.09 2735.29 156.94 2731.21 160.35"/><polygon class="cls-8" points="2730.14 184.4 2720.05 191.99 2740.03 184.98 2730.14 184.4"/><polygon class="cls-8" points="2742.11 144.66 2741.94 145.14 2734.93 151.88 2736.1 151.89 2745.13 144.66 2742.11 144.66"/><polygon class="cls-8" points="2742.03 143.17 2745.66 140.28 2747.56 134.98 2740.95 143.4 2742.03 143.17"/></g><polygon class="cls-9" points="2744.5 201.02 2745.13 192.89 2744.52 192.89 2743.22 201.02 2744.5 201.02"/><g class="cls-7"><polygon class="cls-8" points="2737.59 162.19 2739.93 160.38 2739.93 161.94 2737.59 162.19"/><polygon class="cls-8" points="2749.81 161.28 2752.15 159.47 2752.15 161.04 2749.81 161.28"/><polygon class="cls-8" points="2743.56 149.61 2743.56 151.24 2744.78 150.42 2743.56 149.61"/><polygon class="cls-8" points="2736.11 170.55 2738.76 170.55 2738.76 168.46 2736.11 170.55"/><polygon class="cls-8" points="2749.13 142.66 2751.78 142.66 2751.78 140.58 2749.13 142.66"/><polygon class="cls-8" points="2755.78 167.2 2758.44 167.2 2758.44 165.11 2755.78 167.2"/><polygon class="cls-8" points="2736.26 183.35 2733.65 181.07 2732.38 182.75 2736.26 183.35"/><polygon class="cls-8" points="2737.89 188.2 2736.46 190.47 2734.32 190.47 2737.89 188.2"/><polygon class="cls-8" points="2742.25 151.29 2740.85 152.49 2739.64 151.29 2742.25 151.29"/><polygon class="cls-8" points="2743.29 172.21 2745.63 171.61 2742.72 170.41 2743.29 172.21"/></g><g class="cls-10"><polygon class="cls-11" points="2766.13 184.22 2763.55 184.22 2766.13 185.8 2766.13 184.22"/><polygon class="cls-11" points="2753.03 176.65 2750.46 176.65 2753.03 178.23 2753.03 176.65"/><polygon class="cls-11" points="2758.4 190.82 2755.82 190.82 2758.4 192.41 2758.4 190.82"/><polygon class="cls-11" points="2758.68 172.36 2755.54 173.15 2758.68 174.4 2758.68 172.36"/><polygon class="cls-11" points="2749.53 163.99 2752.43 164.79 2750.1 166.16 2749.53 163.99"/><polygon class="cls-11" points="2751.74 145.45 2754.65 146.25 2752.32 147.62 2751.74 145.45"/><polygon class="cls-11" points="2754.73 157.69 2753.2 157.69 2754.73 159.15 2754.73 157.69"/></g><path class="cls-2" d="M1203.46,183a10.31,10.31,0,0,1-5.23-16.24,13,13,0,0,1,7.27-16.51,12.77,12.77,0,0,1,4.66-.9,12.9,12.9,0,0,1,24.38-8.44,13.32,13.32,0,0,1,.52,8.36l0,0a13.13,13.13,0,0,1,14.85,8.09,13.6,13.6,0,0,1,.78,2.8,5.43,5.43,0,0,1,1.68,6.42,5.53,5.53,0,0,1-2.57,2.77,10.2,10.2,0,0,1-18.16,8.42,8.23,8.23,0,0,1-6.69,1.62,12.67,12.67,0,0,1-12.88,6.93,4.64,4.64,0,1,1-8.65-3.35Z"/><path class="cls-5" d="M1223.51,187.57a36.33,36.33,0,0,1,.06-4c-3.66-1.26-5.79-11.41-5.79-11.41,2.76,5.94,5,9,6.12,9.29.13-1.27.29-4.3.36-5.57a28,28,0,0,1,.29-3.07c.23-1.39-.47-7.63.15-8.21,0,0,1.15,9.12,1.63,8.11,1.52-3.17,2.34-3.66,4.14-6.34.22-.33-4.14,8.9-4.1,9.42.19,2.08.42,5.1.71,9.47a32.62,32.62,0,0,0,4.6-3.22c-.8-2.7,1.75-8,1.75-8-.08,2.85-1.17,6.65-.66,7,1.12-1.32,6.73-5.52,8-7.24,0,0-7.84,10.29-13.53,14.27.27,3.34.37,8.84.51,9.91.28,2.23.73,4.8,1.18,6.76h-6.65c.11-1,.36-1.89.38-2.93,0-2.05.1-9.29.34-10.73-8.28-4.12-15.23-14-15.23-14C1213.77,182.89,1221,187.37,1223.51,187.57Z"/><path class="cls-12" d="M1220.84,136.39c-6,.79-7.88,2.72-10.84,5.83a12.8,12.8,0,0,1,7.64-8.82,13.07,13.07,0,0,1,16.9,7.48,13.32,13.32,0,0,1,.52,8.36l0,0a13.13,13.13,0,0,1,14.85,8.09,12.34,12.34,0,0,1,.57,1.82c-8.18-9.34-24.59-3.44-21.44-5.85C1235.9,148.09,1232.28,134.9,1220.84,136.39Z"/><path class="cls-12" d="M1212.89,152a31.46,31.46,0,0,0-9.57,2.25c-1.2.56-3.89,2.31-4.73,2.64a12.65,12.65,0,0,1,11.57-7.6S1216.64,151.68,1212.89,152Z"/><path class="cls-12" d="M1236,158.06a1.78,1.78,0,1,0,1.78-1.77A1.78,1.78,0,0,0,1236,158.06Z"/><path class="cls-12" d="M1238.59,161.94a2.89,2.89,0,1,0,2.89-2.89A2.89,2.89,0,0,0,1238.59,161.94Z"/><path class="cls-12" d="M1240.64,156.92a.84.84,0,0,0,.84.83.83.83,0,0,0,.83-.83.84.84,0,0,0-.83-.84A.85.85,0,0,0,1240.64,156.92Z"/><g class="cls-10"><path class="cls-13" d="M1196.68,176.64a10.32,10.32,0,0,1,1.55-9.91,8.34,8.34,0,0,0,5.52.17s-1.52,8.87,7.35,11.09c8.18,2,13.22-8.92,13.22-8.92a29.13,29.13,0,0,0,16.45,3.68c4.38-.38,4.44-5.25,6.37-8.13s1.28,2.28,3.54,1.52c.81-.27,1.49-.52,2.06-.73a5.7,5.7,0,0,1-.33,1.17,5.53,5.53,0,0,1-2.57,2.77,10.2,10.2,0,0,1-18.16,8.42,8.23,8.23,0,0,1-6.69,1.62,12.67,12.67,0,0,1-12.88,6.93,4.64,4.64,0,1,1-8.65-3.35A10.31,10.31,0,0,1,1196.68,176.64Z"/><path class="cls-13" d="M1205,169.25a2.8,2.8,0,1,0,2.8-2.79A2.8,2.8,0,0,0,1205,169.25Z"/><circle class="cls-13" cx="1204.27" cy="162.33" r="1.77"/><circle class="cls-13" cx="1207.35" cy="164.75" r="1.3"/><path class="cls-13" d="M1222.45,140.31a1.88,1.88,0,1,0,1.87-1.87A1.88,1.88,0,0,0,1222.45,140.31Z"/><path class="cls-13" d="M1226.32,144.11a1.51,1.51,0,1,0,1.51-1.51A1.52,1.52,0,0,0,1226.32,144.11Z"/></g><path class="cls-9" d="M1226.68,189.46v-1.25l.63.16c.25,3.36.35,8.6.49,9.64.28,2.23.73,4.8,1.18,6.76h-1.47l-.83-4.74Z"/><circle class="cls-14" cx="1235.96" cy="177.45" r="1.77"/><path class="cls-14" d="M1232.56,174.59a1.14,1.14,0,1,0,1.14-1.14A1.14,1.14,0,0,0,1232.56,174.59Z"/><path class="cls-2" d="M2535.14,183a10.31,10.31,0,0,1-5.23-16.24,13,13,0,0,1,7.27-16.51,12.73,12.73,0,0,1,4.66-.9,12.9,12.9,0,0,1,24.38-8.44,13.32,13.32,0,0,1,.52,8.36l0,0a13.13,13.13,0,0,1,14.85,8.09,13,13,0,0,1,.77,2.8,5.42,5.42,0,0,1,1.69,6.42,5.53,5.53,0,0,1-2.57,2.77,10.21,10.21,0,0,1-18.17,8.42,8.21,8.21,0,0,1-6.68,1.62,12.67,12.67,0,0,1-12.88,6.93,4.64,4.64,0,0,1-8.73,0A4.56,4.56,0,0,1,2535.14,183Z"/><path class="cls-5" d="M2555.18,187.57a39.28,39.28,0,0,1,.07-4c-3.66-1.26-5.79-11.41-5.79-11.41,2.76,5.94,5,9,6.12,9.29.13-1.27.29-4.3.36-5.57s.14-2.19.28-3.07c.24-1.39-.46-7.63.15-8.21,0,0,1.16,9.12,1.64,8.11,1.51-3.17,2.34-3.66,4.13-6.34.23-.33-4.14,8.9-4.09,9.42.18,2.08.42,5.1.71,9.47a33.21,33.21,0,0,0,4.6-3.22c-.8-2.7,1.75-8,1.75-8-.08,2.85-1.17,6.65-.66,7,1.12-1.32,6.73-5.52,8.05-7.24,0,0-7.84,10.29-13.53,14.27.26,3.34.37,8.84.5,9.91.29,2.23.73,4.8,1.18,6.76H2554c.11-1,.36-1.89.38-2.93,0-2.05.1-9.29.34-10.73-8.28-4.12-15.23-14-15.23-14C2545.45,182.89,2552.71,187.37,2555.18,187.57Z"/><path class="cls-12" d="M2552.52,136.39c-6.05.79-7.89,2.72-10.84,5.83a12.8,12.8,0,0,1,7.64-8.82,13.07,13.07,0,0,1,16.9,7.48,13.32,13.32,0,0,1,.52,8.36l0,0a13.13,13.13,0,0,1,14.85,8.09,13.66,13.66,0,0,1,.57,1.82c-8.19-9.34-24.59-3.44-21.45-5.85C2567.57,148.09,2564,134.9,2552.52,136.39Z"/><path class="cls-12" d="M2544.57,152a31.39,31.39,0,0,0-9.57,2.25c-1.21.56-3.89,2.31-4.73,2.64a12.65,12.65,0,0,1,11.57-7.6S2548.32,151.68,2544.57,152Z"/><path class="cls-12" d="M2567.64,158.06a1.78,1.78,0,1,0,1.77-1.77A1.77,1.77,0,0,0,2567.64,158.06Z"/><path class="cls-12" d="M2570.26,161.94a2.9,2.9,0,1,0,2.9-2.89A2.89,2.89,0,0,0,2570.26,161.94Z"/><path class="cls-12" d="M2572.32,156.92a.84.84,0,1,0,.84-.84A.84.84,0,0,0,2572.32,156.92Z"/><g class="cls-10"><path class="cls-13" d="M2528.36,176.64a10.29,10.29,0,0,1,1.55-9.91,8.34,8.34,0,0,0,5.52.17s-1.53,8.87,7.35,11.09c8.18,2,13.22-8.92,13.22-8.92a29.13,29.13,0,0,0,16.45,3.68c4.38-.38,4.44-5.25,6.36-8.13s1.29,2.28,3.55,1.52c.8-.27,1.49-.52,2.06-.73a5.7,5.7,0,0,1-.33,1.17,5.53,5.53,0,0,1-2.57,2.77,10.21,10.21,0,0,1-18.17,8.42,8.21,8.21,0,0,1-6.68,1.62,12.67,12.67,0,0,1-12.88,6.93,4.64,4.64,0,0,1-8.73,0,4.56,4.56,0,0,1,.08-3.39A10.29,10.29,0,0,1,2528.36,176.64Z"/><path class="cls-13" d="M2536.7,169.25a2.8,2.8,0,1,0,2.8-2.79A2.8,2.8,0,0,0,2536.7,169.25Z"/><circle class="cls-13" cx="2535.95" cy="162.33" r="1.77"/><circle class="cls-13" cx="2539.03" cy="164.75" r="1.3"/><path class="cls-13" d="M2554.12,140.31a1.88,1.88,0,1,0,1.88-1.87A1.88,1.88,0,0,0,2554.12,140.31Z"/><path class="cls-13" d="M2558,144.11a1.51,1.51,0,1,0,1.51-1.51A1.51,1.51,0,0,0,2558,144.11Z"/></g><path class="cls-9" d="M2558.36,189.46v-1.25l.63.16c.25,3.36.35,8.6.48,9.64.29,2.23.73,4.8,1.18,6.76h-1.46l-.83-4.74Z"/><circle class="cls-14" cx="2567.64" cy="177.45" r="1.77"/><path class="cls-14" d="M2564.23,174.59a1.15,1.15,0,1,0,1.15-1.14A1.15,1.15,0,0,0,2564.23,174.59Z"/><path class="cls-2" d="M1283.36,186.85a4.41,4.41,0,0,0-4.82-.77,8.61,8.61,0,0,0-7.06-6.29,8.84,8.84,0,0,0,1.6-5.33,8.53,8.53,0,0,0-17-.32,8.22,8.22,0,0,0-3.1-.52,8.77,8.77,0,0,0-7.74,11.79,8.81,8.81,0,0,0-1.11,4.54,8.65,8.65,0,0,0,8.78,8.5,8.44,8.44,0,0,0,4.05-1.19c.07.07.13.16.21.23a5.4,5.4,0,0,0,7.61-.34,5.56,5.56,0,0,0,.93-1.41,8.37,8.37,0,0,0,4.92,1.44,8.22,8.22,0,0,0,3-.67,3.13,3.13,0,0,0,.92,1.61,3.25,3.25,0,0,0,4.61-.22,3.33,3.33,0,0,0,.75-3.26,4.53,4.53,0,0,0,3.64-1.46A4.48,4.48,0,0,0,1283.36,186.85Z"/><path class="cls-15" d="M1262.67,200.72c-.05.65-.07,1.16-.07,1.64H1268a80,80,0,0,0,9-8.52c-1.1,1.21-5.77,4.17-6.71,5.1-.43-.24.49-2.92.55-4.93,0,0-2.12,3.73-1.46,5.63a30.67,30.67,0,0,1-3.83,2.27c-.25-3.08-.44-5.21-.59-6.67,0-.37,3.6-6.88,3.41-6.64-1.5,1.89-2.19,2.23-3.45,4.46-.4.72-1.36-5.71-1.36-5.71-.52.41.07,4.81-.13,5.78a20,20,0,0,0-.24,2.17c0,.89-.19,3-.29,3.93-1-.23-2.81-2.37-5.11-6.55C1257.84,192.68,1259.61,199.83,1262.67,200.72Z"/><path class="cls-15" d="M1262,202.36h2.43c-2.76-1.29-11.64-3.56-14.88-6.23C1249.53,196.13,1250.81,199.36,1262,202.36Z"/><path class="cls-12" d="M1267.16,171.29a1.59,1.59,0,1,1-1.59-1.59A1.59,1.59,0,0,1,1267.16,171.29Z"/><path class="cls-12" d="M1263.43,170.54a.75.75,0,1,1-.75-.74A.75.75,0,0,1,1263.43,170.54Z"/><g class="cls-10"><path class="cls-13" d="M1252.86,198.45a8.44,8.44,0,0,0,4.05-1.19c.07.07.13.16.21.23a5.4,5.4,0,0,0,7.61-.34,5.56,5.56,0,0,0,.93-1.41,8.37,8.37,0,0,0,4.92,1.44,8.22,8.22,0,0,0,3-.67,3.13,3.13,0,0,0,.92,1.61,3.25,3.25,0,0,0,4.61-.22,3.33,3.33,0,0,0,.75-3.26,4.57,4.57,0,0,0,4.13-7,10.59,10.59,0,0,1-2.2,3.7c-1.53,1.27-3.2-1.57-4.76-3.09s-2.26.15-4.39,1.23-4.24-.86-7.48-1.89-8.84,3.56-10.68,4.17-4.57,2.28-7.93.76a6.82,6.82,0,0,1-2.44-1.86A8.63,8.63,0,0,0,1252.86,198.45Z"/><path class="cls-13" d="M1271.79,187a1.83,1.83,0,1,1-1.83-1.83A1.83,1.83,0,0,1,1271.79,187Z"/><path class="cls-13" d="M1274,186.48a.84.84,0,1,1-.83-.84A.83.83,0,0,1,1274,186.48Z"/></g><path class="cls-12" d="M1264.3,166a8.62,8.62,0,0,0-8.27,8.17,8.42,8.42,0,0,0-3.1-.52,8.53,8.53,0,0,0-7.41,4.88c3.69-2.74,9.43-2,12.23-1.35a.54.54,0,0,0,.58-.25.56.56,0,0,0-.06-.63l-.86-1a1,1,0,0,1-.1-1.12c1.23-2.07,5.88-8.48,14.19-4.5A8.48,8.48,0,0,0,1264.3,166Z"/><path class="cls-12" d="M1271.5,179.77a17.45,17.45,0,0,0-8.07,3.12,31.49,31.49,0,0,1,10.29-1,13.79,13.79,0,0,1,2.92.74,8.44,8.44,0,0,0-5.16-2.79Z"/><polygon class="cls-4" points="1845.61 74.21 1835.06 94.67 1837.8 94.04 1836.65 97.75 1825.47 109.69 1831.63 109.73 1826.04 118.64 1819.54 124.68 1825.36 128.91 1816.45 145.94 1823.98 145.94 1808.92 163.14 1817.82 167.25 1801.73 175.12 1811.96 178.34 1817.14 179.97 1835.28 186.08 1866.44 183.68 1890.06 175.81 1874.66 170.67 1881.5 167.25 1866.1 149.8 1872.26 148.52 1863.36 131.13 1871.92 127.54 1863.36 121.72 1860.68 116.9 1865.47 115.22 1856.91 106.31 1861.3 104.26 1851.43 93.98 1855.83 91.93 1845.61 74.21"/><polygon class="cls-5" points="1849.66 205.65 1837.68 205.65 1840.76 182.66 1847.61 182.66 1848.69 198.41 1849.66 205.65"/><polygon class="cls-6" points="1835.28 186.08 1866.44 183.68 1890.06 175.81 1874.66 170.67 1881.5 167.25 1866.1 149.8 1872.26 148.52 1863.36 131.13 1871.92 127.54 1863.36 121.72 1860.68 116.9 1865.47 115.22 1856.91 106.31 1861.3 104.26 1851.43 93.98 1855.83 91.93 1846.37 75.52 1847.27 90.56 1842.47 93.64 1849.66 96.74 1848.98 106.65 1841.22 109.39 1849.66 118.29 1842.13 130.8 1860.39 142.73 1849.66 147.94 1837.68 149.1 1861.08 168.05 1848.75 174.86 1816.71 179.84 1817.14 179.97 1835.28 186.08"/><g class="cls-7"><polygon class="cls-8" points="1823.98 145.94 1808.92 163.14 1836.2 145.94 1823.98 145.94"/><polygon class="cls-8" points="1825.36 128.91 1816.45 145.94 1820.37 145.94 1831.58 130.15 1825.36 128.91"/><polygon class="cls-8" points="1819.54 124.68 1821.81 126.33 1828.89 119.43 1829.21 113.59 1826.04 118.64 1819.54 124.68"/><polygon class="cls-8" points="1817.82 167.25 1801.73 175.12 1845.9 167.25 1817.82 167.25"/><polygon class="cls-8" points="1836.91 96.91 1836.65 97.75 1825.47 109.69 1827.34 109.7 1841.73 96.91 1836.91 96.91"/><polygon class="cls-8" points="1836.8 94.27 1842.59 89.16 1845.61 74.21 1835.06 94.67 1836.8 94.27"/></g><polygon class="cls-9" points="1839.73 205.65 1841.73 182.66 1840.76 182.66 1837.68 205.65 1839.73 205.65"/><g class="cls-7"><polygon class="cls-8" points="1825.47 125.25 1829.21 122.06 1829.21 124.82 1825.47 125.25"/><polygon class="cls-8" points="1843.67 96.91 1843.67 99.81 1845.61 98.36 1843.67 96.91"/><polygon class="cls-8" points="1827.34 142.73 1831.58 142.73 1831.58 139.04 1827.34 142.73"/><polygon class="cls-8" points="1845.9 165.24 1841.73 161.2 1839.7 164.17 1845.9 165.24"/><polygon class="cls-8" points="1858.92 177.88 1854.75 173.84 1852.73 176.81 1858.92 177.88"/><polygon class="cls-8" points="1874.21 169.27 1870.05 165.23 1868.02 168.2 1874.21 169.27"/><polygon class="cls-8" points="1838.48 161.2 1836.2 165.24 1832.77 165.24 1838.48 161.2"/><polygon class="cls-8" points="1845.9 117.84 1843.67 119.96 1841.73 117.84 1845.9 117.84"/><polygon class="cls-8" points="1853.83 126.78 1851.6 128.91 1849.66 126.78 1853.83 126.78"/><polygon class="cls-8" points="1869.09 126.78 1866.87 128.91 1864.93 126.78 1869.09 126.78"/><polygon class="cls-8" points="1857.91 103.86 1855.68 105.99 1853.74 103.86 1857.91 103.86"/><polygon class="cls-8" points="1849.66 144.08 1853.39 143.02 1848.75 140.89 1849.66 144.08"/></g><g class="cls-10"><polygon class="cls-11" points="1871.12 171.19 1867.01 171.19 1871.12 173.98 1871.12 171.19"/><polygon class="cls-11" points="1863.36 150.93 1858.34 152.34 1863.36 154.54 1863.36 150.93"/><polygon class="cls-11" points="1848.75 131.13 1853.39 132.54 1849.66 134.95 1848.75 131.13"/><polygon class="cls-11" points="1855.83 107.11 1853.39 107.11 1855.83 109.7 1855.83 107.11"/></g><polygon class="cls-4" points="2511.68 74.21 2501.12 94.67 2503.86 94.04 2502.72 97.75 2491.54 109.69 2497.7 109.73 2492.1 118.64 2485.6 124.68 2491.42 128.91 2482.52 145.94 2490.05 145.94 2474.99 163.14 2483.89 167.25 2467.8 175.12 2478.03 178.34 2483.2 179.97 2501.35 186.08 2532.5 183.68 2556.13 175.81 2540.72 170.67 2547.57 167.25 2532.16 149.8 2538.32 148.52 2529.42 131.13 2537.98 127.54 2529.42 121.72 2526.74 116.9 2531.53 115.22 2522.97 106.31 2527.37 104.26 2517.49 93.98 2521.89 91.93 2511.68 74.21"/><polygon class="cls-5" points="2515.73 205.65 2503.74 205.65 2506.83 182.66 2513.67 182.66 2514.76 198.41 2515.73 205.65"/><polygon class="cls-6" points="2501.35 186.08 2532.5 183.68 2556.13 175.81 2540.72 170.67 2547.57 167.25 2532.16 149.8 2538.32 148.52 2529.42 131.13 2537.98 127.54 2529.42 121.72 2526.74 116.9 2531.53 115.22 2522.97 106.31 2527.37 104.26 2517.49 93.98 2521.89 91.93 2512.43 75.52 2513.33 90.56 2508.54 93.64 2515.73 96.74 2515.04 106.65 2507.28 109.39 2515.73 118.29 2508.2 130.8 2526.45 142.73 2515.73 147.94 2503.74 149.1 2527.14 168.05 2514.82 174.86 2482.78 179.84 2483.2 179.97 2501.35 186.08"/><g class="cls-7"><polygon class="cls-8" points="2490.05 145.94 2474.99 163.14 2502.26 145.94 2490.05 145.94"/><polygon class="cls-8" points="2491.42 128.91 2482.52 145.94 2486.43 145.94 2497.64 130.15 2491.42 128.91"/><polygon class="cls-8" points="2485.6 124.68 2487.87 126.33 2494.96 119.43 2495.27 113.59 2492.1 118.64 2485.6 124.68"/><polygon class="cls-8" points="2483.89 167.25 2467.8 175.12 2511.96 167.25 2483.89 167.25"/><polygon class="cls-8" points="2502.98 96.91 2502.72 97.75 2491.54 109.69 2493.4 109.7 2507.8 96.91 2502.98 96.91"/><polygon class="cls-8" points="2502.86 94.27 2508.65 89.16 2511.68 74.21 2501.12 94.67 2502.86 94.27"/></g><polygon class="cls-9" points="2505.8 205.65 2507.8 182.66 2506.83 182.66 2503.74 205.65 2505.8 205.65"/><g class="cls-7"><polygon class="cls-8" points="2491.54 125.25 2495.27 122.06 2495.27 124.82 2491.54 125.25"/><polygon class="cls-8" points="2509.74 96.91 2509.74 99.81 2511.68 98.36 2509.74 96.91"/><polygon class="cls-8" points="2493.41 142.73 2497.64 142.73 2497.64 139.04 2493.41 142.73"/><polygon class="cls-8" points="2511.96 165.24 2507.8 161.2 2505.77 164.17 2511.96 165.24"/><polygon class="cls-8" points="2524.99 177.88 2520.82 173.84 2518.79 176.81 2524.99 177.88"/><polygon class="cls-8" points="2540.28 169.27 2536.11 165.23 2534.09 168.2 2540.28 169.27"/><polygon class="cls-8" points="2504.54 161.2 2502.26 165.24 2498.84 165.24 2504.54 161.2"/><polygon class="cls-8" points="2511.96 117.84 2509.74 119.96 2507.8 117.84 2511.96 117.84"/><polygon class="cls-8" points="2519.89 126.78 2517.67 128.91 2515.73 126.78 2519.89 126.78"/><polygon class="cls-8" points="2535.16 126.78 2532.93 128.91 2530.99 126.78 2535.16 126.78"/><polygon class="cls-8" points="2523.97 103.86 2521.75 105.99 2519.81 103.86 2523.97 103.86"/><polygon class="cls-8" points="2515.73 144.08 2519.45 143.02 2514.82 140.89 2515.73 144.08"/></g><g class="cls-10"><polygon class="cls-11" points="2537.18 171.19 2533.07 171.19 2537.18 173.98 2537.18 171.19"/><polygon class="cls-11" points="2529.42 150.93 2524.4 152.34 2529.42 154.54 2529.42 150.93"/><polygon class="cls-11" points="2514.82 131.13 2519.45 132.54 2515.73 134.95 2514.82 131.13"/><polygon class="cls-11" points="2521.89 107.11 2519.45 107.11 2521.89 109.7 2521.89 107.11"/></g><path class="cls-2" d="M2439.65,186.88a3.37,3.37,0,0,1,3.7-.58,6.64,6.64,0,0,1,5.44-4.84,6.79,6.79,0,0,1-1.23-4.1,6.55,6.55,0,0,1,13.1-.25,6.56,6.56,0,0,1,2.39-.39,6.64,6.64,0,0,1,6.37,6.9,6.74,6.74,0,0,1-.42,2.16,6.74,6.74,0,0,1,.85,3.49,6.63,6.63,0,0,1-6.74,6.53,6.35,6.35,0,0,1-3.12-.91l-.16.18a4.14,4.14,0,0,1-5.85-.27,4,4,0,0,1-.72-1.08,6.44,6.44,0,0,1-3.78,1.11,6.55,6.55,0,0,1-2.32-.51,2.41,2.41,0,0,1-.71,1.23,2.51,2.51,0,0,1-3.55-.17,2.53,2.53,0,0,1-.57-2.5,3.52,3.52,0,0,1-2.8-1.12A3.46,3.46,0,0,1,2439.65,186.88Z"/><path class="cls-15" d="M2455.56,197.55c0,.5.05.89.06,1.27h-4.16a62.63,62.63,0,0,1-7-6.56c.85.94,4.44,3.21,5.16,3.92.33-.19-.37-2.24-.42-3.79,0,0,1.63,2.87,1.12,4.33a23.65,23.65,0,0,0,2.95,1.75c.19-2.37.34-4,.45-5.13,0-.29-2.77-5.29-2.62-5.11a21.26,21.26,0,0,1,2.65,3.43c.31.55,1.05-4.39,1.05-4.39.4.32-.06,3.7.09,4.45a12.48,12.48,0,0,1,.19,1.66c0,.69.14,2.33.23,3,.73-.17,2.15-1.82,3.92-5C2459.27,191.37,2457.91,196.87,2455.56,197.55Z"/><path class="cls-15" d="M2456.09,198.82h-1.87c2.12-1,9-2.74,11.44-4.8C2465.66,194,2464.68,196.5,2456.09,198.82Z"/><path class="cls-12" d="M2452.11,174.93a1.22,1.22,0,1,0,1.22-1.23A1.22,1.22,0,0,0,2452.11,174.93Z"/><path class="cls-12" d="M2455,174.35a.57.57,0,1,0,1.14,0,.57.57,0,0,0-1.14,0Z"/><circle class="cls-12" cx="2442.13" cy="187.26" r="0.57"/><g class="cls-10"><path class="cls-13" d="M2463.11,195.8a6.35,6.35,0,0,1-3.12-.91l-.16.18a4.14,4.14,0,0,1-5.85-.27,4,4,0,0,1-.72-1.08,6.44,6.44,0,0,1-3.78,1.11,6.55,6.55,0,0,1-2.32-.51,2.41,2.41,0,0,1-.71,1.23,2.51,2.51,0,0,1-3.55-.17,2.53,2.53,0,0,1-.57-2.5,3.52,3.52,0,0,1-2.8-1.12,3.48,3.48,0,0,1-.38-4.28,8.54,8.54,0,0,0,1.69,2.85c1.18,1,2.47-1.21,3.66-2.38s1.74.11,3.38,1,3.26-.67,5.75-1.46,6.8,2.73,8.21,3.21,3.51,1.75,6.1.58a5.18,5.18,0,0,0,1.87-1.43A6.62,6.62,0,0,1,2463.11,195.8Z"/><path class="cls-13" d="M2448.55,187a1.41,1.41,0,1,0,1.4-1.41A1.4,1.4,0,0,0,2448.55,187Z"/><path class="cls-13" d="M2464.48,185.42a1.18,1.18,0,1,0,1.18-1.18A1.18,1.18,0,0,0,2464.48,185.42Z"/><path class="cls-13" d="M2446.84,186.6a.65.65,0,1,0,.64-.64A.64.64,0,0,0,2446.84,186.6Z"/><path class="cls-13" d="M2467.38,185.31a.65.65,0,1,0,.64-.64A.65.65,0,0,0,2467.38,185.31Z"/><path class="cls-13" d="M2463.8,183.5a.66.66,0,1,0,.66-.66A.66.66,0,0,0,2463.8,183.5Z"/></g><path class="cls-12" d="M2454.3,170.83a6.62,6.62,0,0,1,6.36,6.28,6.47,6.47,0,0,1,8.09,3.36c-2.84-2.11-7.26-1.51-9.41-1a.41.41,0,0,1-.44-.19.42.42,0,0,1,0-.49l.67-.77a.75.75,0,0,0,.07-.86c-.95-1.59-4.52-6.52-10.91-3.46A6.52,6.52,0,0,1,2454.3,170.83Z"/><path class="cls-12" d="M2448.77,181.44a13.41,13.41,0,0,1,6.21,2.4,24.15,24.15,0,0,0-7.92-.8,10.65,10.65,0,0,0-2.24.56,6.53,6.53,0,0,1,4-2.14Z"/><path class="cls-2" d="M2455.92,190.65a1.23,1.23,0,1,0,1.23-1.22A1.23,1.23,0,0,0,2455.92,190.65Z"/><path class="cls-2" d="M2455.55,188.59a.58.58,0,1,0,.57-.57A.57.57,0,0,0,2455.55,188.59Z"/><path class="cls-2" d="M2687,197.88a2.12,2.12,0,0,0-2.3-.37,4.13,4.13,0,0,0-3.38-3,4.22,4.22,0,0,0,.76-2.55,4.08,4.08,0,0,0-8.16-.16,3.84,3.84,0,0,0-1.48-.24,4.12,4.12,0,0,0-4,4.29,4,4,0,0,0,.26,1.34,4.2,4.2,0,0,0,3.67,6.24,3.92,3.92,0,0,0,1.94-.57l.09.11a2.59,2.59,0,0,0,3.65-.16,2.68,2.68,0,0,0,.44-.67,4,4,0,0,0,3.8.37,1.58,1.58,0,0,0,.44.77,1.57,1.57,0,0,0,2.21-.11,1.62,1.62,0,0,0,.36-1.56,2.18,2.18,0,0,0,1.74-.7A2.15,2.15,0,0,0,2687,197.88Z"/><path class="cls-15" d="M2677.13,204.52c0,.31,0,.55,0,.79h2.58a38.16,38.16,0,0,0,4.33-4.08c-.52.58-2.76,2-3.21,2.44-.2-.12.24-1.4.26-2.36,0,0-1,1.78-.7,2.69a12.63,12.63,0,0,1-1.83,1.09c-.11-1.47-.21-2.49-.28-3.19,0-.18,1.72-3.29,1.63-3.18a13.33,13.33,0,0,0-1.65,2.14c-.19.34-.65-2.74-.65-2.74-.25.2,0,2.3-.06,2.77a7.38,7.38,0,0,0-.11,1c0,.42-.1,1.44-.15,1.87-.45-.1-1.34-1.13-2.44-3.13C2674.82,200.67,2675.67,204.09,2677.13,204.52Z"/><path class="cls-15" d="M2676.8,205.31H2678c-1.32-.62-5.57-1.71-7.12-3C2670.85,202.32,2671.46,203.87,2676.8,205.31Z"/><path class="cls-12" d="M2679.28,190.44a.76.76,0,1,1-.76-.76A.76.76,0,0,1,2679.28,190.44Z"/><path class="cls-12" d="M2677.49,190.08a.36.36,0,1,1-.35-.36A.36.36,0,0,1,2677.49,190.08Z"/><g class="cls-10"><path class="cls-13" d="M2672.44,203.43a3.92,3.92,0,0,0,1.94-.57l.09.11a2.59,2.59,0,0,0,3.65-.16,2.68,2.68,0,0,0,.44-.67,4,4,0,0,0,3.8.37,1.58,1.58,0,0,0,.44.77,1.57,1.57,0,0,0,2.21-.11,1.62,1.62,0,0,0,.36-1.56,2.18,2.18,0,0,0,1.74-.7,2.15,2.15,0,0,0,.23-2.66,5,5,0,0,1-1.05,1.77c-.73.61-1.53-.75-2.28-1.48s-1.08.08-2.1.59-2-.41-3.58-.9-4.23,1.7-5.11,2-2.19,1.1-3.79.37a3.44,3.44,0,0,1-1.17-.89A4.12,4.12,0,0,0,2672.44,203.43Z"/><path class="cls-13" d="M2681.49,198a.88.88,0,0,1-1.75,0,.88.88,0,1,1,1.75,0Z"/><path class="cls-13" d="M2682.56,197.7a.4.4,0,0,1-.8,0,.4.4,0,1,1,.8,0Z"/></g><path class="cls-12" d="M2677.91,187.89a4.13,4.13,0,0,0-4,3.91,3.84,3.84,0,0,0-1.48-.24,4,4,0,0,0-3.54,2.33c1.76-1.31,4.51-.94,5.85-.65a.25.25,0,0,0,.27-.12.26.26,0,0,0,0-.3l-.42-.48a.44.44,0,0,1,0-.53,5,5,0,0,1,6.79-2.15A4.07,4.07,0,0,0,2677.91,187.89Z"/><path class="cls-12" d="M2681.35,194.5a8.36,8.36,0,0,0-3.86,1.49,15,15,0,0,1,4.93-.5,6.23,6.23,0,0,1,1.39.35,4,4,0,0,0-2.46-1.33Z"/><path class="cls-2" d="M2789,190.76a3.26,3.26,0,0,0-3.53-.56,6.28,6.28,0,0,0-5.17-4.6,6.45,6.45,0,0,0,1.17-3.9,6.24,6.24,0,0,0-12.48-.24,5.84,5.84,0,0,0-2.26-.37,6.4,6.4,0,0,0-5.67,8.62,6.41,6.41,0,0,0,5.61,9.54,6.12,6.12,0,0,0,3-.86c0,.05.09.11.15.16a3.94,3.94,0,0,0,5.57-.25,4.13,4.13,0,0,0,.69-1,6.13,6.13,0,0,0,3.6,1.06,6.2,6.2,0,0,0,2.2-.49,2.33,2.33,0,0,0,.68,1.18,2.43,2.43,0,0,0,3.92-2.55,3.33,3.33,0,0,0,2.66-1.07A3.28,3.28,0,0,0,2789,190.76Z"/><path class="cls-15" d="M2773.86,200.92c0,.47-.05.85-.05,1.2h4a58.69,58.69,0,0,0,6.62-6.24c-.8.89-4.23,3.05-4.91,3.74-.31-.18.36-2.14.4-3.62,0,0-1.55,2.74-1.07,4.13a20.86,20.86,0,0,1-2.8,1.66c-.18-2.25-.33-3.81-.44-4.88,0-.27,2.64-5,2.5-4.86a19.74,19.74,0,0,0-2.52,3.26c-.3.53-1-4.18-1-4.18-.38.3,0,3.52-.09,4.24a11.42,11.42,0,0,0-.17,1.58c-.05.65-.15,2.22-.22,2.87-.7-.16-2.06-1.72-3.74-4.78C2770.33,195,2771.63,200.27,2773.86,200.92Z"/><path class="cls-15" d="M2773.36,202.12h1.78c-2-.94-8.52-2.6-10.89-4.56C2764.25,197.56,2765.18,199.92,2773.36,202.12Z"/><path class="cls-12" d="M2777.15,179.38a1.17,1.17,0,1,1-1.16-1.17A1.16,1.16,0,0,1,2777.15,179.38Z"/><path class="cls-12" d="M2774.42,178.83a.55.55,0,1,1-.55-.55A.55.55,0,0,1,2774.42,178.83Z"/><g class="cls-10"><path class="cls-13" d="M2766.68,199.25a6.12,6.12,0,0,0,3-.86c0,.05.09.11.15.16a3.94,3.94,0,0,0,5.57-.25,4.13,4.13,0,0,0,.69-1,6.13,6.13,0,0,0,3.6,1.06,6.2,6.2,0,0,0,2.2-.49,2.33,2.33,0,0,0,.68,1.18,2.43,2.43,0,0,0,3.92-2.55,3.33,3.33,0,0,0,2.66-1.07,3.3,3.3,0,0,0,.37-4.07,7.83,7.83,0,0,1-1.62,2.71c-1.11.93-2.34-1.15-3.48-2.26s-1.65.11-3.22.9-3.1-.63-5.47-1.38-6.47,2.6-7.81,3-3.35,1.67-5.81.55a4.88,4.88,0,0,1-1.78-1.36A6.29,6.29,0,0,0,2766.68,199.25Z"/><path class="cls-13" d="M2780.54,190.89a1.34,1.34,0,1,1-1.34-1.34A1.34,1.34,0,0,1,2780.54,190.89Z"/><path class="cls-13" d="M2782.17,190.49a.62.62,0,1,1-1.23,0,.62.62,0,0,1,1.23,0Z"/></g><path class="cls-12" d="M2775.06,175.48a6.32,6.32,0,0,0-6.06,6,5.87,5.87,0,0,0-2.26-.37,6.22,6.22,0,0,0-5.43,3.56c2.7-2,6.91-1.43,9-1a.4.4,0,0,0,.38-.65l-.63-.73a.71.71,0,0,1-.07-.82c.9-1.52,4.3-6.21,10.39-3.29A6.22,6.22,0,0,0,2775.06,175.48Z"/><path class="cls-12" d="M2780.32,185.58a12.74,12.74,0,0,0-5.9,2.29,23.16,23.16,0,0,1,7.54-.77,10.16,10.16,0,0,1,2.13.54,6.21,6.21,0,0,0-3.78-2Z"/><polygon class="cls-4" points="2996.16 134.98 2989.55 143.4 2991.26 143.04 2990.55 145.14 2983.54 151.88 2987.4 151.91 2983.89 156.94 2979.81 160.35 2983.46 162.74 2974.74 169.84 2982.6 172.36 2971.27 180.94 2978.74 184.4 2968.65 191.99 2976.33 191.92 2978.31 192.84 2989.69 195.04 3009.22 193.68 3024.03 189.24 3014.37 186.33 3018.66 184.4 3009 174.54 3012.87 173.82 3007.29 163.99 3012.65 161.96 3005.6 155.95 3010.86 154.33 3003.24 149.97 3006 148.81 3001.06 143.64 3002.57 141.85 2996.16 134.98"/><polygon class="cls-5" points="2998.07 201.02 2991.82 201.02 2993.12 192.89 2997.41 192.89 2997.47 196.48 2998.07 201.02"/><polygon class="cls-6" points="2989.69 195.04 3009.22 193.68 3024.03 189.24 3014.37 186.33 3018.66 184.4 3009 174.54 3012.87 173.82 3007.29 163.99 3011.35 162.46 3005.6 155.95 3006.51 154.33 3003.24 149.97 3006 148.81 3001.06 143.64 3002.57 141.85 2996.64 135.72 2997.2 141.07 2994.2 142.81 2998.7 144.57 2998.27 150.16 2993.41 151.71 2998.7 156.74 2994.95 163.99 3005.43 170.55 3003.4 172.6 2995.03 175.18 3001.04 183.26 3007.29 187.41 2978.05 192.77 2978.31 192.84 2989.69 195.04"/><g class="cls-7"><polygon class="cls-8" points="2982.6 172.36 2971.27 180.94 2995.03 175.18 2984.71 174.25 2982.6 172.36"/><polygon class="cls-8" points="2983.46 162.74 2974.74 169.84 2982.6 172.36 2987.36 163.44 2983.46 162.74"/><polygon class="cls-8" points="2979.81 160.35 2981.24 161.28 2991.69 154.33 2985.88 154.09 2983.89 156.94 2979.81 160.35"/><polygon class="cls-8" points="2978.74 184.4 2968.65 191.99 2988.63 184.98 2978.74 184.4"/><polygon class="cls-8" points="2990.71 144.66 2990.55 145.14 2983.54 151.88 2984.71 151.89 2993.73 144.66 2990.71 144.66"/><polygon class="cls-8" points="2990.64 143.17 2994.27 140.28 2996.16 134.98 2989.55 143.4 2990.64 143.17"/></g><polygon class="cls-9" points="2993.11 201.02 2993.73 192.89 2993.12 192.89 2991.82 201.02 2993.11 201.02"/><g class="cls-7"><polygon class="cls-8" points="2986.19 162.19 2988.54 160.38 2988.54 161.94 2986.19 162.19"/><polygon class="cls-8" points="2998.41 161.28 3000.75 159.47 3000.75 161.04 2998.41 161.28"/><polygon class="cls-8" points="2992.16 149.61 2992.16 151.24 2993.38 150.42 2992.16 149.61"/><polygon class="cls-8" points="2984.71 170.55 2987.36 170.55 2987.36 168.46 2984.71 170.55"/><polygon class="cls-8" points="2997.73 142.66 3000.39 142.66 3000.39 140.58 2997.73 142.66"/><polygon class="cls-8" points="3004.39 167.2 3007.04 167.2 3007.04 165.11 3004.39 167.2"/><polygon class="cls-8" points="2984.86 183.35 2982.25 181.07 2980.98 182.75 2984.86 183.35"/><polygon class="cls-8" points="2986.5 188.2 2985.07 190.47 2982.92 190.47 2986.5 188.2"/><polygon class="cls-8" points="2990.85 151.29 2989.46 152.49 2988.24 151.29 2990.85 151.29"/><polygon class="cls-8" points="2991.89 172.21 2994.23 171.61 2991.32 170.41 2991.89 172.21"/></g><g class="cls-10"><polygon class="cls-11" points="3014.73 184.22 3012.15 184.22 3014.73 185.8 3014.73 184.22"/><polygon class="cls-11" points="3001.63 176.65 2999.06 176.65 3001.63 178.23 3001.63 176.65"/><polygon class="cls-11" points="3007 190.82 3004.42 190.82 3007 192.41 3007 190.82"/><polygon class="cls-11" points="3007.29 172.36 3004.14 173.15 3007.29 174.4 3007.29 172.36"/><polygon class="cls-11" points="2998.13 163.99 3001.04 164.79 2998.7 166.16 2998.13 163.99"/><polygon class="cls-11" points="3000.35 145.45 3003.26 146.25 3000.92 147.62 3000.35 145.45"/><polygon class="cls-11" points="3003.33 157.69 3001.8 157.69 3003.33 159.15 3003.33 157.69"/></g><path class="cls-2" d="M4263,190.76a3.24,3.24,0,0,0-3.52-.56,6.3,6.3,0,0,0-5.18-4.6,6.45,6.45,0,0,0,1.17-3.9,6.24,6.24,0,0,0-12.48-.24,5.84,5.84,0,0,0-2.26-.37,6.31,6.31,0,0,0-6.07,6.56,6.61,6.61,0,0,0,.4,2.06,6.41,6.41,0,0,0,5.61,9.54,6.12,6.12,0,0,0,3-.86c.05.05.09.11.15.16a3.94,3.94,0,0,0,5.57-.25,4.13,4.13,0,0,0,.69-1,6.13,6.13,0,0,0,3.6,1.06,6.2,6.2,0,0,0,2.2-.49,2.33,2.33,0,0,0,.68,1.18,2.43,2.43,0,0,0,3.92-2.55,3.33,3.33,0,0,0,2.66-1.07A3.28,3.28,0,0,0,4263,190.76Z"/><path class="cls-15" d="M4247.83,200.92c0,.47-.05.85-.05,1.2h4a59.22,59.22,0,0,0,6.63-6.24c-.81.89-4.24,3.05-4.92,3.74-.31-.18.36-2.14.4-3.62,0,0-1.55,2.74-1.07,4.13a20.86,20.86,0,0,1-2.8,1.66c-.18-2.25-.32-3.81-.43-4.88,0-.27,2.63-5,2.49-4.86a19.74,19.74,0,0,0-2.52,3.26c-.3.53-1-4.18-1-4.18-.38.3,0,3.52-.09,4.24a11.42,11.42,0,0,0-.17,1.58c-.05.65-.14,2.22-.22,2.87-.7-.16-2.05-1.72-3.74-4.78C4244.3,195,4245.6,200.27,4247.83,200.92Z"/><path class="cls-15" d="M4247.33,202.12h1.78c-2-.94-8.52-2.6-10.89-4.56C4238.22,197.56,4239.15,199.92,4247.33,202.12Z"/><path class="cls-12" d="M4251.12,179.38a1.16,1.16,0,1,1-1.16-1.17A1.16,1.16,0,0,1,4251.12,179.38Z"/><path class="cls-12" d="M4248.39,178.83a.55.55,0,1,1-.55-.55A.55.55,0,0,1,4248.39,178.83Z"/><g class="cls-10"><path class="cls-13" d="M4240.65,199.25a6.12,6.12,0,0,0,3-.86c.05.05.09.11.15.16a3.94,3.94,0,0,0,5.57-.25,4.13,4.13,0,0,0,.69-1,6.13,6.13,0,0,0,3.6,1.06,6.2,6.2,0,0,0,2.2-.49,2.33,2.33,0,0,0,.68,1.18,2.43,2.43,0,0,0,3.92-2.55,3.33,3.33,0,0,0,2.66-1.07,3.3,3.3,0,0,0,.37-4.07,7.83,7.83,0,0,1-1.62,2.71c-1.11.93-2.34-1.15-3.47-2.26s-1.66.11-3.22.9-3.11-.63-5.48-1.38-6.47,2.6-7.81,3-3.35,1.67-5.81.55a4.88,4.88,0,0,1-1.78-1.36A6.29,6.29,0,0,0,4240.65,199.25Z"/><path class="cls-13" d="M4254.51,190.89a1.34,1.34,0,1,1-1.34-1.34A1.34,1.34,0,0,1,4254.51,190.89Z"/><path class="cls-13" d="M4256.14,190.49a.62.62,0,1,1-1.23,0,.62.62,0,0,1,1.23,0Z"/></g><path class="cls-12" d="M4249,175.48a6.32,6.32,0,0,0-6.06,6,5.87,5.87,0,0,0-2.26-.37,6.22,6.22,0,0,0-5.43,3.56c2.7-2,6.91-1.43,8.95-1a.4.4,0,0,0,.39-.65l-.64-.73a.73.73,0,0,1-.07-.82c.9-1.52,4.3-6.21,10.39-3.29A6.22,6.22,0,0,0,4249,175.48Z"/><path class="cls-12" d="M4254.3,185.58a12.75,12.75,0,0,0-5.91,2.29,23.21,23.21,0,0,1,7.54-.77,10.16,10.16,0,0,1,2.13.54,6.21,6.21,0,0,0-3.78-2Z"/><path class="cls-2" d="M331.23,188.52A6.44,6.44,0,0,1,328,178.37,8.16,8.16,0,0,1,332.5,168a7.92,7.92,0,0,1,2.92-.56,8.07,8.07,0,0,1,15.25-5.28,8.42,8.42,0,0,1,.33,5.23l0,0a8.22,8.22,0,0,1,9.29,5.05,8.08,8.08,0,0,1,.48,1.76,3.38,3.38,0,0,1,1.06,4,3.43,3.43,0,0,1-1.61,1.74,6.38,6.38,0,0,1-11.36,5.26,5.13,5.13,0,0,1-4.18,1,7.91,7.91,0,0,1-8.06,4.34,2.9,2.9,0,1,1-5.41-2.1Z"/><path class="cls-5" d="M343.77,191.4a21.33,21.33,0,0,1,0-2.49c-2.29-.78-3.62-7.13-3.62-7.13,1.72,3.71,3.11,5.61,3.83,5.81.08-.8.18-2.69.22-3.49a19.1,19.1,0,0,1,.18-1.92c.14-.87-.3-4.77.09-5.14,0,0,.72,5.71,1,5.08a23.41,23.41,0,0,1,2.58-4c.14-.2-2.59,5.57-2.56,5.9.12,1.3.26,3.19.44,5.92a21.13,21.13,0,0,0,2.88-2c-.5-1.69,1.09-5,1.09-5,0,1.78-.73,4.16-.41,4.38.7-.83,4.21-3.46,5-4.53,0,0-4.9,6.43-8.46,8.92.16,2.09.22,5.53.31,6.2.18,1.4.46,3,.74,4.23H343a17.56,17.56,0,0,0,.24-1.83c0-1.29.06-5.82.21-6.72-5.17-2.57-9.52-8.77-9.52-8.77C337.68,188.48,342.22,191.28,343.77,191.4Z"/><path class="cls-12" d="M342.1,159.39c-3.78.49-4.93,1.7-6.78,3.65a8,8,0,0,1,4.78-5.52,8.17,8.17,0,0,1,10.57,4.68,8.42,8.42,0,0,1,.33,5.23l0,0a8.22,8.22,0,0,1,9.29,5.05,10,10,0,0,1,.36,1.14c-5.12-5.84-15.39-2.15-13.42-3.66C351.52,166.71,349.25,158.46,342.1,159.39Z"/><path class="cls-12" d="M337.13,169.17a19.69,19.69,0,0,0-6,1.41c-.75.35-2.43,1.44-2.95,1.65a7.87,7.87,0,0,1,7.23-4.75S339.47,169,337.13,169.17Z"/><path class="cls-12" d="M351.56,172.94a1.11,1.11,0,1,0,1.11-1.11A1.11,1.11,0,0,0,351.56,172.94Z"/><path class="cls-12" d="M353.2,175.37a1.81,1.81,0,1,0,1.81-1.81A1.81,1.81,0,0,0,353.2,175.37Z"/><circle class="cls-12" cx="355.01" cy="172.23" r="0.52"/><g class="cls-10"><path class="cls-13" d="M327,184.56a6.44,6.44,0,0,1,1-6.19,5.21,5.21,0,0,0,3.45.1s-1,5.55,4.6,6.94c5.12,1.27,8.27-5.58,8.27-5.58a18.2,18.2,0,0,0,10.29,2.3c2.74-.24,2.78-3.28,4-5.09s.8,1.43,2.22,1l1.28-.46a3.17,3.17,0,0,1-.2.73,3.43,3.43,0,0,1-1.61,1.74,6.38,6.38,0,0,1-11.36,5.26,5.13,5.13,0,0,1-4.18,1,7.91,7.91,0,0,1-8.06,4.34,2.9,2.9,0,1,1-5.41-2.1A6.41,6.41,0,0,1,327,184.56Z"/><path class="cls-13" d="M332.21,180A1.75,1.75,0,1,0,334,178.2,1.74,1.74,0,0,0,332.21,180Z"/><path class="cls-13" d="M330.63,175.61a1.11,1.11,0,1,0,1.11-1.11A1.11,1.11,0,0,0,330.63,175.61Z"/><path class="cls-13" d="M332.85,177.13a.81.81,0,0,0,.81.81.82.82,0,0,0,.82-.81.82.82,0,0,0-.82-.82A.82.82,0,0,0,332.85,177.13Z"/><path class="cls-13" d="M343.1,161.84a1.18,1.18,0,1,0,1.18-1.17A1.18,1.18,0,0,0,343.1,161.84Z"/><path class="cls-13" d="M345.53,164.22a.95.95,0,0,0,1.89,0,.95.95,0,1,0-1.89,0Z"/></g><path class="cls-9" d="M345.75,192.58v-.78l.4.1c.15,2.1.22,5.38.3,6,.18,1.4.46,3,.74,4.23h-.91l-.53-3Z"/><path class="cls-14" d="M350.45,185.07a1.11,1.11,0,1,0,1.11-1.11A1.11,1.11,0,0,0,350.45,185.07Z"/><path class="cls-14" d="M349.43,183.28a.72.72,0,0,0,1.43,0,.72.72,0,0,0-1.43,0Z"/><path class="cls-2" d="M155.3,174.22a11.33,11.33,0,0,1,.77-18.74,14.34,14.34,0,0,1,13.78-14.28,13.65,13.65,0,0,1,5.16.85,14.19,14.19,0,0,1,28.37.54,14.69,14.69,0,0,1-2.64,8.83l0,.05a14.45,14.45,0,0,1,12.25,14,14.63,14.63,0,0,1-.27,3.19,6,6,0,0,1-4.4,9.15,11.22,11.22,0,0,1-21.95,1.78,9,9,0,0,1-7.52-.87A13.91,13.91,0,0,1,163,181a5.1,5.1,0,1,1-7.65-6.75Z"/><path class="cls-5" d="M181,188.59a38.66,38.66,0,0,1,.07-4.37c-4-1.39-6.37-12.55-6.37-12.55,3,6.53,5.47,9.87,6.73,10.22.14-1.41.32-4.74.4-6.13a30.37,30.37,0,0,1,.31-3.38c.25-1.53-.52-8.39.16-9,0,0,1.27,10,1.8,8.91,1.67-3.48,2.57-4,4.55-7,.25-.37-4.55,9.79-4.5,10.36.2,2.29.46,5.61.78,10.42a37.14,37.14,0,0,0,5.05-3.55c-.87-3,1.93-8.79,1.93-8.79-.08,3.14-1.29,7.32-.72,7.71,1.23-1.46,7.4-6.08,8.85-8,0,0-8.62,11.32-14.88,15.69.29,3.68.4,9.73.55,10.9.32,2.46.81,5.29,1.3,7.44h-7.31a32.11,32.11,0,0,0,.42-3.22c.05-2.26.11-10.22.37-11.81-9.1-4.53-16.75-15.43-16.75-15.43C170.32,183.45,178.32,188.37,181,188.59Z"/><path class="cls-12" d="M190.94,132.75c-6.54-1.49-9.17-.19-13.4,1.9a14.06,14.06,0,0,1,11.23-6.2,14.38,14.38,0,0,1,14.61,14.14,14.69,14.69,0,0,1-2.64,8.83l0,.05a14.45,14.45,0,0,1,12.25,14,14.63,14.63,0,0,1-.1,2.1c-1.24-2.73-7-12.88-15.23-11-5,1.15-6.08,1-8.81-.85-1-.66,0-1.05,4.13-2.34C202,150.56,203.32,135.56,190.94,132.75Z"/><path class="cls-12" d="M181,144.75c1.5,2.06-.21,2.19-4.22,1.12a34.47,34.47,0,0,0-10.73-1.31c-1.46.12-4.9.9-5.88.93a13.9,13.9,0,0,1,9.67-4.29,13.65,13.65,0,0,1,5.16.85S179.51,142.68,181,144.75Z"/><g class="cls-10"><path class="cls-13" d="M150.71,165.11a11.31,11.31,0,0,1,5.36-9.63,14.88,14.88,0,0,1,.58-3.86,6.29,6.29,0,0,0,3.55,2.87c3.94,1.19,1.5,3.25,1.5,3.25s-5.24,9,3.38,14.25c3.63,2.19,9,2.64,13.62,1.56,5.44-1.29,10-8.25,10-8.25s-.87,9.87,9,12.56c4.67,1.27,9.44-3.38,9.44-3.38a12.61,12.61,0,0,0,3.31.33l2.39,0a5.62,5.62,0,0,1-.78,1.07,6,6,0,0,1-3.7,1.89,11.22,11.22,0,0,1-21.95,1.78,9,9,0,0,1-7.52-.87A13.91,13.91,0,0,1,163,181a5.1,5.1,0,1,1-7.65-6.75A11.31,11.31,0,0,1,150.71,165.11Z"/><path class="cls-13" d="M163,166.79a3.08,3.08,0,1,0,3.07-3.08A3.07,3.07,0,0,0,163,166.79Z"/><path class="cls-13" d="M169.25,169.87a2,2,0,1,0,1.95-2A2,2,0,0,0,169.25,169.87Z"/><path class="cls-13" d="M200.08,173.13a2,2,0,1,0,1.95-1.95A2,2,0,0,0,200.08,173.13Z"/><path class="cls-13" d="M164.11,161.84a1.44,1.44,0,1,0,1.43-1.44A1.43,1.43,0,0,0,164.11,161.84Z"/><path class="cls-13" d="M197.22,169.68a1.43,1.43,0,1,0,1.43-1.43A1.44,1.44,0,0,0,197.22,169.68Z"/></g><path class="cls-14" d="M158.25,176.43a1.95,1.95,0,1,0,1.95-2A2,2,0,0,0,158.25,176.43Z"/><path class="cls-14" d="M156.46,173.29a1.26,1.26,0,1,0,1.26-1.26A1.25,1.25,0,0,0,156.46,173.29Z"/><path class="cls-12" d="M192.41,139.24a2,2,0,1,0,2-2A2,2,0,0,0,192.41,139.24Z"/><path class="cls-12" d="M197.62,160.4a3.19,3.19,0,1,0,3.18-3.18A3.18,3.18,0,0,0,197.62,160.4Z"/><path class="cls-12" d="M191.36,135.7a.92.92,0,1,0,.92-.92A.92.92,0,0,0,191.36,135.7Z"/><path class="cls-12" d="M181.28,148a.92.92,0,0,0,1.83,0,.92.92,0,1,0-1.83,0Z"/><path class="cls-9" d="M184.53,190.67v-1.38l.69.18c.27,3.69.38,9.46.53,10.6.32,2.46.81,5.29,1.3,7.44h-1.6l-.92-5.21Z"/></g></g></svg>