<svg xmlns="http://www.w3.org/2000/svg" viewBox="0 0 4500 163.02"><defs><style>.cls-1{fill:#8aa451;}.cls-2{fill:#493b34;}.cls-11,.cls-3{fill:#e5e884;}.cls-3,.cls-4,.cls-7,.cls-9{opacity:0.5;}.cls-5{fill:#385a27;}.cls-6{fill:#87ad54;}.cls-7{fill:#a86f41;}.cls-8{fill:#477d50;}.cls-12,.cls-9{fill:#364a31;}.cls-10{opacity:0.2;}.cls-13{fill:#504943;}.cls-14{fill:none;}</style></defs><title>trees2</title><g id="Layer_2" data-name="Layer 2"><g id="Layer_1-2" data-name="Layer 1"><path class="cls-1" d="M27.77,116.9a11.75,11.75,0,0,1,.81-19.48A14.93,14.93,0,0,1,43,82.58a14.58,14.58,0,0,1,5.38.88A14.81,14.81,0,0,1,78,84a15.25,15.25,0,0,1-2.75,9.18.08.08,0,0,1,0,.05,15.11,15.11,0,0,1,12.51,17.85,6.16,6.16,0,0,1-.73,7.55,6.27,6.27,0,0,1-3.87,2,11.72,11.72,0,0,1-22.9,1.85,9.47,9.47,0,0,1-7.85-.9,14.57,14.57,0,0,1-16.62,2.34,5.32,5.32,0,1,1-8-7Z"/><path class="cls-2" d="M54.63,131.83a42,42,0,0,1,.08-4.54c-4.21-1.44-6.65-13-6.65-13,3.17,6.78,5.71,10.26,7,10.62.15-1.46.34-4.92.42-6.38a33,33,0,0,1,.32-3.51c.27-1.58-.53-8.71.18-9.38,0,0,1.32,10.43,1.87,9.27,1.74-3.62,2.69-4.18,4.75-7.24.26-.39-4.75,10.17-4.7,10.76.21,2.39.48,5.84.82,10.83A40.29,40.29,0,0,0,64,125.54c-.91-3.09,2-9.14,2-9.14-.08,3.26-1.34,7.6-.75,8,1.28-1.52,7.72-6.31,9.24-8.28,0,0-9,11.76-15.54,16.31.31,3.81.43,10.11.58,11.33.33,2.55.84,5.49,1.36,7.72H53.28c.13-1.1.41-2.16.44-3.34.05-2.35.11-10.63.39-12.27-9.51-4.71-17.49-16-17.49-16C43.45,126.49,51.79,131.61,54.63,131.83Z"/><path class="cls-3" d="M65,73.8c-6.83-1.54-9.57-.19-14,2a14.66,14.66,0,0,1,11.72-6.44A15,15,0,0,1,78,84a15.25,15.25,0,0,1-2.75,9.18.08.08,0,0,1,0,.05A15,15,0,0,1,88,107.79,14.41,14.41,0,0,1,87.9,110C86.62,107.14,80.62,96.59,72,98.55c-5.24,1.19-6.35,1-9.19-.89-1-.69,0-1.08,4.3-2.43C76.55,92.31,77.88,76.73,65,73.8Z"/><path class="cls-3" d="M54.61,86.27c1.56,2.14-.23,2.28-4.41,1.17A35.74,35.74,0,0,0,39,86.08c-1.52.12-5.11.93-6.14,1a14.54,14.54,0,0,1,15.48-3.58S53,84.12,54.61,86.27Z"/><g class="cls-4"><path class="cls-5" d="M23,107.43a11.73,11.73,0,0,1,5.6-10,15.61,15.61,0,0,1,.6-4,6.58,6.58,0,0,0,3.71,3c4.11,1.23,1.57,3.38,1.57,3.38S29,109.18,38,114.58c3.79,2.28,9.44,2.74,14.21,1.62,5.68-1.33,10.43-8.57,10.43-8.57s-.91,10.26,9.39,13.05c4.88,1.32,9.86-3.51,9.86-3.51a13.84,13.84,0,0,0,3.45.34l2.5,0a6.18,6.18,0,0,1-.82,1.12,6.27,6.27,0,0,1-3.87,2,11.72,11.72,0,0,1-22.9,1.85,9.47,9.47,0,0,1-7.85-.9,14.57,14.57,0,0,1-16.62,2.34,5.32,5.32,0,1,1-8-7A11.74,11.74,0,0,1,23,107.43Z"/><path class="cls-5" d="M35.79,109.18A3.21,3.21,0,1,0,39,106,3.2,3.2,0,0,0,35.79,109.18Z"/><path class="cls-5" d="M42.33,112.37a2,2,0,1,0,2-2A2,2,0,0,0,42.33,112.37Z"/><path class="cls-5" d="M74.51,115.77a2,2,0,1,0,2-2A2,2,0,0,0,74.51,115.77Z"/><path class="cls-5" d="M37,104a1.5,1.5,0,1,0,1.5-1.49A1.5,1.5,0,0,0,37,104Z"/><path class="cls-5" d="M71.52,112.18A1.5,1.5,0,1,0,73,110.69,1.49,1.49,0,0,0,71.52,112.18Z"/></g><path class="cls-6" d="M30.85,119.19a2,2,0,1,0,2-2A2,2,0,0,0,30.85,119.19Z"/><path class="cls-6" d="M29,115.93a1.31,1.31,0,1,0,1.31-1.3A1.31,1.31,0,0,0,29,115.93Z"/><path class="cls-3" d="M66.51,80.55a2,2,0,1,0,2-2A2,2,0,0,0,66.51,80.55Z"/><path class="cls-3" d="M71.94,102.54a3.32,3.32,0,1,0,3.32-3.31A3.31,3.31,0,0,0,71.94,102.54Z"/><path class="cls-3" d="M65.41,76.86a1,1,0,1,0,1-1A1,1,0,0,0,65.41,76.86Z"/><path class="cls-3" d="M54.88,89.65a1,1,0,1,0,1-1A1,1,0,0,0,54.88,89.65Z"/><path class="cls-7" d="M58.28,134v-1.43l.72.19c.28,3.84.4,9.83.55,11,.33,2.55.84,5.49,1.36,7.72H59.24l-1-5.41Z"/><polygon class="cls-8" points="4019.46 48.58 4008.24 62.79 4011.15 62.19 4009.93 65.73 3998.04 77.12 4004.59 77.16 3998.64 85.66 3991.73 91.42 3997.92 95.45 3983.12 107.45 3996.46 111.7 3977.24 126.2 3989.91 132.04 3972.8 144.86 3985.81 144.75 3989.18 146.3 4008.47 150 4041.6 147.72 4066.72 140.21 4050.34 135.3 4057.62 132.04 4041.23 115.39 4047.79 114.17 4038.32 97.57 4047.42 94.15 4035.47 83.99 4044.39 81.25 4031.47 73.89 4036.14 71.93 4027.77 63.2 4030.31 60.17 4019.46 48.58"/><polygon class="cls-2" points="4022.69 160.11 4012.09 160.11 4014.3 146.38 4021.58 146.38 4021.67 152.44 4022.69 160.11"/><polygon class="cls-9" points="4008.47 150 4041.6 147.72 4066.72 140.21 4050.34 135.3 4057.62 132.04 4041.23 115.39 4047.79 114.17 4038.32 97.57 4045.21 94.98 4035.47 83.99 4037 81.25 4031.47 73.89 4036.14 71.93 4027.77 63.2 4030.31 60.17 4020.26 49.83 4021.21 58.87 4016.12 61.81 4023.76 64.77 4023.03 74.22 4014.78 76.83 4023.76 85.33 4017.39 97.57 4035.17 108.64 4031.73 112.11 4017.54 116.47 4027.72 130.12 4038.32 137.13 3988.73 146.17 3989.18 146.3 4008.47 150"/><g class="cls-10"><polygon class="cls-11" points="3996.46 111.7 3977.24 126.2 4017.54 116.47 4000.03 114.89 3996.46 111.7"/><polygon class="cls-11" points="3997.92 95.45 3983.12 107.45 3996.46 111.7 4004.53 96.64 3997.92 95.45"/><polygon class="cls-11" points="3991.73 91.42 3994.15 93 4011.87 81.25 4002.01 80.84 3998.64 85.66 3991.73 91.42"/><polygon class="cls-11" points="3989.91 132.04 3972.8 144.86 4006.68 133.02 3989.91 132.04"/><polygon class="cls-11" points="4010.2 64.93 4009.93 65.73 3998.04 77.12 4000.02 77.13 4015.33 64.93 4010.2 64.93"/><polygon class="cls-11" points="4010.08 62.41 4016.24 57.53 4019.46 48.58 4008.24 62.79 4010.08 62.41"/></g><polygon class="cls-7" points="4014.27 160.11 4015.33 146.38 4014.3 146.38 4012.09 160.11 4014.27 160.11"/><g class="cls-10"><polygon class="cls-11" points="4002.55 94.52 4006.52 91.47 4006.52 94.11 4002.55 94.52"/><polygon class="cls-11" points="4023.27 93 4027.24 89.94 4027.24 92.58 4023.27 93"/><polygon class="cls-11" points="4012.67 73.28 4012.67 76.04 4014.74 74.66 4012.67 73.28"/><polygon class="cls-11" points="4000.03 108.64 4004.53 108.64 4004.53 105.13 4000.03 108.64"/><polygon class="cls-11" points="4022.12 61.55 4026.62 61.55 4026.62 58.04 4022.12 61.55"/><polygon class="cls-11" points="4033.4 102.98 4037.9 102.98 4037.9 99.47 4033.4 102.98"/><polygon class="cls-11" points="4000.29 130.27 3995.86 126.42 3993.7 129.25 4000.29 130.27"/><polygon class="cls-11" points="4003.06 138.45 4000.64 142.3 3996.99 142.3 4003.06 138.45"/><polygon class="cls-11" points="4010.45 76.12 4008.08 78.14 4006.02 76.12 4010.45 76.12"/><polygon class="cls-11" points="4012.21 111.46 4016.17 110.44 4011.24 108.41 4012.21 111.46"/></g><g class="cls-4"><polygon class="cls-12" points="4050.94 131.74 4046.57 131.74 4050.94 134.4 4050.94 131.74"/><polygon class="cls-12" points="4028.74 118.95 4024.37 118.95 4028.74 121.62 4028.74 118.95"/><polygon class="cls-12" points="4037.84 142.89 4033.47 142.89 4037.84 145.56 4037.84 142.89"/><polygon class="cls-12" points="4038.32 111.7 4032.98 113.04 4038.32 115.15 4038.32 111.7"/><polygon class="cls-12" points="4022.79 97.57 4027.72 98.92 4023.76 101.23 4022.79 97.57"/><polygon class="cls-12" points="4026.55 66.26 4031.48 67.61 4027.52 69.92 4026.55 66.26"/><polygon class="cls-12" points="4031.61 86.92 4029.02 86.92 4031.61 89.39 4031.61 86.92"/></g><polygon class="cls-8" points="3895.76 61.28 3885.81 73.88 3888.39 73.34 3887.32 76.48 3876.78 86.57 3882.59 86.61 3877.32 94.13 3871.19 99.24 3876.67 102.82 3863.56 113.45 3875.38 117.22 3858.35 130.06 3869.57 135.24 3854.41 146.6 3865.95 146.5 3868.93 147.87 3886.03 151.16 3915.38 149.13 3937.64 142.47 3923.12 138.13 3929.57 135.24 3915.05 120.48 3920.86 119.4 3912.48 104.69 3920.54 101.66 3909.95 92.66 3917.85 90.24 3906.4 83.71 3910.54 81.98 3903.12 74.23 3905.38 71.56 3895.76 61.28"/><polygon class="cls-2" points="3898.63 160.11 3889.23 160.11 3891.19 147.94 3897.64 147.94 3897.72 153.31 3898.63 160.11"/><polygon class="cls-9" points="3886.03 151.16 3915.38 149.13 3937.64 142.47 3923.12 138.13 3929.57 135.24 3915.05 120.48 3920.86 119.4 3912.48 104.69 3918.58 102.4 3909.95 92.66 3911.3 90.24 3906.4 83.71 3910.54 81.98 3903.12 74.23 3905.38 71.56 3896.47 62.39 3897.32 70.4 3892.8 73 3899.57 75.62 3898.93 84 3891.62 86.32 3899.57 93.84 3893.93 104.69 3909.68 114.5 3906.64 117.57 3894.06 121.44 3903.08 133.53 3912.48 139.75 3868.53 147.76 3868.93 147.87 3886.03 151.16"/><g class="cls-10"><polygon class="cls-11" points="3875.38 117.22 3858.35 130.06 3894.06 121.44 3878.54 120.04 3875.38 117.22"/><polygon class="cls-11" points="3876.67 102.82 3863.56 113.45 3875.38 117.22 3882.53 103.87 3876.67 102.82"/><polygon class="cls-11" points="3871.19 99.24 3873.33 100.64 3889.03 90.24 3880.3 89.87 3877.32 94.13 3871.19 99.24"/><polygon class="cls-11" points="3869.57 135.24 3854.41 146.6 3884.44 136.1 3869.57 135.24"/><polygon class="cls-11" points="3887.56 75.77 3887.32 76.48 3876.78 86.57 3878.54 86.58 3892.1 75.77 3887.56 75.77"/><polygon class="cls-11" points="3887.45 73.54 3892.91 69.21 3895.76 61.28 3885.81 73.88 3887.45 73.54"/></g><polygon class="cls-7" points="3891.16 160.11 3892.1 147.94 3891.19 147.94 3889.23 160.11 3891.16 160.11"/><g class="cls-10"><polygon class="cls-11" points="3880.77 101.99 3884.29 99.29 3884.29 101.63 3880.77 101.99"/><polygon class="cls-11" points="3899.14 100.64 3902.66 97.94 3902.66 100.28 3899.14 100.64"/><polygon class="cls-11" points="3889.75 83.17 3889.75 85.61 3891.58 84.39 3889.75 83.17"/><polygon class="cls-11" points="3878.54 114.5 3882.53 114.5 3882.53 111.39 3878.54 114.5"/><polygon class="cls-11" points="3898.11 72.78 3902.11 72.78 3902.11 69.66 3898.11 72.78"/><polygon class="cls-11" points="3908.11 109.49 3912.11 109.49 3912.11 106.37 3908.11 109.49"/><polygon class="cls-11" points="3878.77 133.66 3874.85 130.25 3872.94 132.76 3878.77 133.66"/><polygon class="cls-11" points="3881.23 140.92 3879.08 144.33 3875.86 144.33 3881.23 140.92"/><polygon class="cls-11" points="3887.78 85.68 3885.68 87.48 3883.85 85.68 3887.78 85.68"/><polygon class="cls-11" points="3889.34 117 3892.85 116.1 3888.48 114.3 3889.34 117"/></g><g class="cls-4"><polygon class="cls-12" points="3923.66 134.97 3919.79 134.97 3923.66 137.33 3923.66 134.97"/><polygon class="cls-12" points="3903.98 123.64 3900.11 123.64 3903.98 126 3903.98 123.64"/><polygon class="cls-12" points="3912.05 144.85 3908.17 144.85 3912.05 147.22 3912.05 144.85"/><polygon class="cls-12" points="3912.48 117.22 3907.74 118.4 3912.48 120.27 3912.48 117.22"/><polygon class="cls-12" points="3898.71 104.69 3903.08 105.89 3899.57 107.93 3898.71 104.69"/><polygon class="cls-12" points="3902.05 76.95 3906.41 78.15 3902.91 80.19 3902.05 76.95"/><polygon class="cls-12" points="3906.53 95.26 3904.23 95.26 3906.53 97.45 3906.53 95.26"/></g><polygon class="cls-8" points="3525.32 61.28 3515.38 73.88 3517.96 73.34 3516.88 76.48 3506.34 86.57 3512.15 86.61 3506.88 94.13 3500.75 99.24 3506.23 102.82 3493.12 113.45 3504.94 117.22 3487.91 130.06 3499.14 135.24 3483.98 146.6 3495.51 146.5 3498.49 147.87 3515.59 151.16 3544.94 149.13 3567.2 142.47 3552.68 138.13 3559.13 135.24 3544.62 120.48 3550.42 119.4 3542.04 104.69 3550.1 101.66 3539.51 92.66 3547.41 90.24 3535.96 83.71 3540.1 81.98 3532.68 74.23 3534.94 71.56 3525.32 61.28"/><polygon class="cls-2" points="3528.19 160.11 3518.79 160.11 3520.75 147.94 3527.2 147.94 3527.28 153.31 3528.19 160.11"/><polygon class="cls-9" points="3515.59 151.16 3544.94 149.13 3567.2 142.47 3552.68 138.13 3559.13 135.24 3544.62 120.48 3550.42 119.4 3542.04 104.69 3548.14 102.4 3539.51 92.66 3540.86 90.24 3535.96 83.71 3540.1 81.98 3532.68 74.23 3534.94 71.56 3526.03 62.39 3526.88 70.4 3522.36 73 3529.14 75.62 3528.49 84 3521.18 86.32 3529.14 93.84 3523.49 104.69 3539.24 114.5 3536.2 117.57 3523.62 121.44 3532.64 133.53 3542.04 139.75 3498.09 147.76 3498.49 147.87 3515.59 151.16"/><g class="cls-10"><polygon class="cls-11" points="3504.94 117.22 3487.91 130.06 3523.62 121.44 3508.1 120.04 3504.94 117.22"/><polygon class="cls-11" points="3506.23 102.82 3493.12 113.45 3504.94 117.22 3512.09 103.87 3506.23 102.82"/><polygon class="cls-11" points="3500.75 99.24 3502.89 100.64 3518.6 90.24 3509.86 89.87 3506.88 94.13 3500.75 99.24"/><polygon class="cls-11" points="3499.14 135.24 3483.98 146.6 3514 136.1 3499.14 135.24"/><polygon class="cls-11" points="3517.12 75.77 3516.88 76.48 3506.34 86.57 3508.1 86.58 3521.66 75.77 3517.12 75.77"/><polygon class="cls-11" points="3517.01 73.54 3522.47 69.21 3525.32 61.28 3515.38 73.88 3517.01 73.54"/></g><polygon class="cls-7" points="3520.73 160.11 3521.66 147.94 3520.75 147.94 3518.79 160.11 3520.73 160.11"/><g class="cls-10"><polygon class="cls-11" points="3510.34 101.99 3513.86 99.29 3513.86 101.63 3510.34 101.99"/><polygon class="cls-11" points="3528.7 100.64 3532.22 97.94 3532.22 100.28 3528.7 100.64"/><polygon class="cls-11" points="3519.31 83.17 3519.31 85.61 3521.14 84.39 3519.31 83.17"/><polygon class="cls-11" points="3508.1 114.5 3512.09 114.5 3512.09 111.39 3508.1 114.5"/><polygon class="cls-11" points="3527.68 72.78 3531.67 72.78 3531.67 69.66 3527.68 72.78"/><polygon class="cls-11" points="3537.68 109.49 3541.67 109.49 3541.67 106.37 3537.68 109.49"/><polygon class="cls-11" points="3508.34 133.66 3504.41 130.25 3502.5 132.76 3508.34 133.66"/><polygon class="cls-11" points="3510.79 140.92 3508.64 144.33 3505.42 144.33 3510.79 140.92"/><polygon class="cls-11" points="3517.34 85.68 3515.24 87.48 3513.41 85.68 3517.34 85.68"/><polygon class="cls-11" points="3518.9 117 3522.41 116.1 3518.04 114.3 3518.9 117"/></g><g class="cls-4"><polygon class="cls-12" points="3553.22 134.97 3549.35 134.97 3553.22 137.33 3553.22 134.97"/><polygon class="cls-12" points="3533.54 123.64 3529.67 123.64 3533.54 126 3533.54 123.64"/><polygon class="cls-12" points="3541.61 144.85 3537.74 144.85 3541.61 147.22 3541.61 144.85"/><polygon class="cls-12" points="3542.04 117.22 3537.3 118.4 3542.04 120.27 3542.04 117.22"/><polygon class="cls-12" points="3528.27 104.69 3532.64 105.89 3529.14 107.93 3528.27 104.69"/><polygon class="cls-12" points="3531.61 76.95 3535.98 78.15 3532.47 80.19 3531.61 76.95"/><polygon class="cls-12" points="3536.09 95.26 3533.79 95.26 3536.09 97.45 3536.09 95.26"/></g><polygon class="cls-8" points="4311.52 61.28 4301.57 73.88 4304.15 73.34 4303.07 76.48 4292.54 86.57 4298.35 86.61 4293.07 94.13 4286.95 99.24 4292.43 102.82 4279.32 113.45 4291.14 117.22 4274.11 130.06 4285.33 135.24 4270.17 146.6 4281.7 146.5 4284.69 147.87 4301.78 151.16 4331.14 149.13 4353.39 142.47 4338.88 138.13 4345.33 135.24 4330.81 120.48 4336.62 119.4 4328.23 104.69 4336.3 101.66 4325.71 92.66 4333.61 90.24 4322.16 83.71 4326.3 81.98 4318.88 74.23 4321.14 71.56 4311.52 61.28"/><polygon class="cls-2" points="4314.39 160.11 4304.99 160.11 4306.94 147.94 4313.4 147.94 4313.47 153.31 4314.39 160.11"/><polygon class="cls-9" points="4301.78 151.16 4331.14 149.13 4353.39 142.47 4338.88 138.13 4345.33 135.24 4330.81 120.48 4336.62 119.4 4328.23 104.69 4334.34 102.4 4325.71 92.66 4327.06 90.24 4322.16 83.71 4326.3 81.98 4318.88 74.23 4321.14 71.56 4312.23 62.39 4313.07 70.4 4308.56 73 4315.33 75.62 4314.69 84 4307.38 86.32 4315.33 93.84 4309.69 104.69 4325.44 114.5 4322.39 117.57 4309.82 121.44 4318.84 133.53 4328.23 139.75 4284.29 147.76 4284.69 147.87 4301.78 151.16"/><g class="cls-10"><polygon class="cls-11" points="4291.14 117.22 4274.11 130.06 4309.82 121.44 4294.3 120.04 4291.14 117.22"/><polygon class="cls-11" points="4292.43 102.82 4279.32 113.45 4291.14 117.22 4298.29 103.87 4292.43 102.82"/><polygon class="cls-11" points="4286.95 99.24 4289.09 100.64 4304.79 90.24 4296.06 89.87 4293.07 94.13 4286.95 99.24"/><polygon class="cls-11" points="4285.33 135.24 4270.17 146.6 4300.2 136.1 4285.33 135.24"/><polygon class="cls-11" points="4303.32 75.77 4303.07 76.48 4292.54 86.57 4294.3 86.58 4307.86 75.77 4303.32 75.77"/><polygon class="cls-11" points="4303.21 73.54 4308.66 69.21 4311.52 61.28 4301.57 73.88 4303.21 73.54"/></g><polygon class="cls-7" points="4306.92 160.11 4307.86 147.94 4306.94 147.94 4304.99 160.11 4306.92 160.11"/><g class="cls-10"><polygon class="cls-11" points="4296.53 101.99 4300.05 99.29 4300.05 101.63 4296.53 101.99"/><polygon class="cls-11" points="4314.9 100.64 4318.42 97.94 4318.42 100.28 4314.9 100.64"/><polygon class="cls-11" points="4305.51 83.17 4305.51 85.61 4307.34 84.39 4305.51 83.17"/><polygon class="cls-11" points="4294.3 114.5 4298.29 114.5 4298.29 111.39 4294.3 114.5"/><polygon class="cls-11" points="4313.87 72.78 4317.86 72.78 4317.86 69.66 4313.87 72.78"/><polygon class="cls-11" points="4323.87 109.49 4327.86 109.49 4327.86 106.37 4323.87 109.49"/><polygon class="cls-11" points="4294.53 133.66 4290.61 130.25 4288.7 132.76 4294.53 133.66"/><polygon class="cls-11" points="4296.99 140.92 4294.84 144.33 4291.61 144.33 4296.99 140.92"/><polygon class="cls-11" points="4303.53 85.68 4301.44 87.48 4299.61 85.68 4303.53 85.68"/><polygon class="cls-11" points="4305.1 117 4308.61 116.1 4304.24 114.3 4305.1 117"/></g><g class="cls-4"><polygon class="cls-12" points="4339.42 134.97 4335.55 134.97 4339.42 137.33 4339.42 134.97"/><polygon class="cls-12" points="4319.74 123.64 4315.87 123.64 4319.74 126 4319.74 123.64"/><polygon class="cls-12" points="4327.8 144.85 4323.93 144.85 4327.8 147.22 4327.8 144.85"/><polygon class="cls-12" points="4328.23 117.22 4323.5 118.4 4328.23 120.27 4328.23 117.22"/><polygon class="cls-12" points="4314.47 104.69 4318.84 105.89 4315.33 107.93 4314.47 104.69"/><polygon class="cls-12" points="4317.8 76.95 4322.17 78.15 4318.66 80.19 4317.8 76.95"/><polygon class="cls-12" points="4322.28 95.26 4319.99 95.26 4322.28 97.45 4322.28 95.26"/></g><path class="cls-1" d="M3408.86,101.83a20.06,20.06,0,0,1,1.38-33.26,25.51,25.51,0,0,1,24.55-25.34,24.65,24.65,0,0,1,9.19,1.51,25.29,25.29,0,0,1,50.56,1,26,26,0,0,1-4.7,15.67l0,.09A25.89,25.89,0,0,1,3511.25,92a10.54,10.54,0,0,1-1.25,12.89,10.73,10.73,0,0,1-6.61,3.34,20,20,0,0,1-39.11,3.17,16.18,16.18,0,0,1-13.4-1.54,24.85,24.85,0,0,1-28.38,4,9.08,9.08,0,1,1-13.64-12Z"/><path class="cls-2" d="M3454.72,127.33a72,72,0,0,1,.14-7.76c-7.19-2.45-11.36-22.26-11.36-22.26,5.42,11.58,9.75,17.51,12,18.13.25-2.49.57-8.4.7-10.88a58.93,58.93,0,0,1,.56-6c.46-2.71-.92-14.88.3-16,0,0,2.25,17.8,3.2,15.82,3-6.18,4.58-7.12,8.11-12.36.44-.65-8.12,17.37-8,18.39.36,4.06.82,10,1.4,18.49a67.66,67.66,0,0,0,9-6.3c-1.55-5.26,3.43-15.6,3.43-15.6-.14,5.57-2.29,13-1.28,13.68,2.19-2.6,13.18-10.78,15.78-14.15,0,0-15.37,20.09-26.53,27.86.52,6.51.72,17.26,1,19.34.56,4.36,1.43,9.38,2.32,13.19h-13a56.43,56.43,0,0,0,.74-5.7c.08-4,.2-18.15.67-21-16.23-8-29.85-27.39-29.85-27.39C3435.63,118.21,3449.88,127,3454.72,127.33Z"/><path class="cls-3" d="M3472.38,28.25c-11.66-2.64-16.35-.34-23.88,3.37a25.06,25.06,0,0,1,20-11,25.57,25.57,0,0,1,26,25.09,26,26,0,0,1-4.7,15.67l0,.09A25.82,25.82,0,0,1,3511.54,90c-2.2-4.85-12.44-22.86-27.13-19.52-9,2-10.85,1.71-15.7-1.51-1.78-1.18-.07-1.86,7.34-4.16C3492.15,59.84,3494.43,33.23,3472.38,28.25Z"/><path class="cls-3" d="M3454.68,49.53c2.67,3.66-.38,3.89-7.52,2-4.13-1.1-12-2.88-19.12-2.32-2.6.2-8.73,1.59-10.49,1.63a24.94,24.94,0,0,1,17.24-7.61,24.65,24.65,0,0,1,9.19,1.51S3452,45.87,3454.68,49.53Z"/><g class="cls-4"><path class="cls-5" d="M3400.68,85.67a20.07,20.07,0,0,1,9.56-17.1,26.61,26.61,0,0,1,1-6.84,11.2,11.2,0,0,0,6.33,5.1c7,2.11,2.67,5.76,2.67,5.76s-9.34,16.06,6,25.28c6.47,3.89,16.12,4.68,24.27,2.77,9.7-2.28,17.81-14.64,17.81-14.64s-1.56,17.52,16,22.29c8.32,2.26,16.82-6,16.82-6s1.21.46,5.89.58c1.66,0,3.09.06,4.27.06a11.32,11.32,0,0,1-1.39,1.91,10.73,10.73,0,0,1-6.61,3.34,20,20,0,0,1-39.11,3.17,16.18,16.18,0,0,1-13.4-1.54,24.85,24.85,0,0,1-28.38,4,9.08,9.08,0,1,1-13.64-12A20,20,0,0,1,3400.68,85.67Z"/><path class="cls-5" d="M3422.56,88.65a5.48,5.48,0,1,0,5.48-5.46A5.46,5.46,0,0,0,3422.56,88.65Z"/><path class="cls-5" d="M3433.72,94.1a3.48,3.48,0,1,0,3.47-3.46A3.47,3.47,0,0,0,3433.72,94.1Z"/><path class="cls-5" d="M3488.67,99.9a3.48,3.48,0,1,0,3.48-3.46A3.47,3.47,0,0,0,3488.67,99.9Z"/><path class="cls-5" d="M3424.56,79.86a2.56,2.56,0,1,0,2.56-2.55A2.55,2.55,0,0,0,3424.56,79.86Z"/><path class="cls-5" d="M3483.56,93.78a2.56,2.56,0,1,0,2.55-2.54A2.55,2.55,0,0,0,3483.56,93.78Z"/></g><path class="cls-6" d="M3414.12,105.75a3.48,3.48,0,1,0,3.48-3.46A3.47,3.47,0,0,0,3414.12,105.75Z"/><path class="cls-6" d="M3410.93,100.18a2.24,2.24,0,1,0,2.24-2.23A2.23,2.23,0,0,0,3410.93,100.18Z"/><path class="cls-3" d="M3475,39.76a3.48,3.48,0,1,0,3.48-3.46A3.47,3.47,0,0,0,3475,39.76Z"/><path class="cls-3" d="M3484.28,77.31a5.67,5.67,0,1,0,5.67-5.64A5.66,5.66,0,0,0,3484.28,77.31Z"/><path class="cls-3" d="M3473.13,33.47a1.63,1.63,0,1,0,1.63-1.63A1.63,1.63,0,0,0,3473.13,33.47Z"/><path class="cls-3" d="M3455.15,55.31a1.64,1.64,0,1,0,1.63-1.62A1.63,1.63,0,0,0,3455.15,55.31Z"/><path class="cls-7" d="M3461,131v-2.44l1.23.31c.49,6.56.69,16.79,1,18.82.56,4.36,1.43,9.38,2.32,13.19h-2.87l-1.63-9.24Z"/><path class="cls-1" d="M4401.37,114.59a15.74,15.74,0,0,0-1.08-26.08A20,20,0,0,0,4381,68.64a19.44,19.44,0,0,0-7.21,1.19,19.83,19.83,0,0,0-39.63.76,20.33,20.33,0,0,0,3.68,12.28s0,0,0,.07a20.11,20.11,0,0,0-17.11,19.46,20.39,20.39,0,0,0,.37,4.44,8.27,8.27,0,0,0,1,10.11,8.49,8.49,0,0,0,5.18,2.62,15.7,15.7,0,0,0,30.67,2.48,12.66,12.66,0,0,0,10.51-1.21,19.5,19.5,0,0,0,22.25,3.14,7.12,7.12,0,1,0,10.69-9.39Z"/><path class="cls-2" d="M4365.41,134.58a55.44,55.44,0,0,0-.1-6.08c5.64-1.93,8.9-17.46,8.9-17.46-4.24,9.08-7.65,13.73-9.41,14.22-.19-2-.44-6.59-.55-8.53-.1-1.73-.21-3.36-.43-4.71-.36-2.12.72-11.66-.24-12.56,0,0-1.77,14-2.51,12.41-2.33-4.85-3.59-5.59-6.35-9.69-.35-.52,6.36,13.62,6.29,14.41-.28,3.19-.65,7.81-1.1,14.5a53.65,53.65,0,0,1-7.06-4.94c1.22-4.12-2.69-12.23-2.69-12.23.12,4.37,1.8,10.18,1,10.73-1.72-2-10.34-8.45-12.37-11.1,0,0,12.05,15.76,20.8,21.84-.41,5.11-.57,13.53-.78,15.17-.44,3.41-1.12,7.36-1.81,10.34h10.21a41.93,41.93,0,0,1-.58-4.47c-.07-3.15-.16-14.23-.53-16.43,12.73-6.3,23.41-21.48,23.41-21.48C4380.38,127.43,4369.21,134.28,4365.41,134.58Z"/><path class="cls-3" d="M4351.57,56.9c9.14-2.07,12.81-.27,18.72,2.64a19.65,19.65,0,0,0-15.69-8.62,20,20,0,0,0-20.4,19.67,20.33,20.33,0,0,0,3.68,12.28s0,0,0,.07a20.2,20.2,0,0,0-17,22.39c1.72-3.81,9.75-17.92,21.27-15.31,7,1.6,8.5,1.35,12.31-1.18,1.39-.93.05-1.46-5.76-3.26C4336.07,81.67,4334.28,60.81,4351.57,56.9Z"/><path class="cls-3" d="M4365.45,73.58c-2.1,2.87.29,3.06,5.89,1.57,3.24-.86,9.44-2.25,15-1.82,2,.16,6.85,1.25,8.22,1.28a19.41,19.41,0,0,0-20.72-4.78S4367.54,70.72,4365.45,73.58Z"/><g class="cls-4"><path class="cls-5" d="M4407.78,101.92a15.73,15.73,0,0,0-7.49-13.41,20.61,20.61,0,0,0-.81-5.36,8.72,8.72,0,0,1-5,4c-5.51,1.66-2.1,4.53-2.1,4.53s7.32,12.58-4.71,19.81c-5.08,3.06-12.65,3.67-19,2.17-7.61-1.78-14-11.47-14-11.47s1.21,13.74-12.58,17.47c-6.52,1.77-13.19-4.7-13.19-4.7a17.79,17.79,0,0,1-4.62.46c-1.3,0-2.42,0-3.35,0a9.08,9.08,0,0,0,1.09,1.5,8.49,8.49,0,0,0,5.18,2.62,15.7,15.7,0,0,0,30.67,2.48,12.66,12.66,0,0,0,10.51-1.21,19.5,19.5,0,0,0,22.25,3.14,7.12,7.12,0,1,0,10.69-9.39A15.73,15.73,0,0,0,4407.78,101.92Z"/><ellipse class="cls-5" cx="4386.33" cy="104.25" rx="4.3" ry="4.28"/><path class="cls-5" d="M4381.88,108.53a2.73,2.73,0,1,1-2.73-2.71A2.72,2.72,0,0,1,4381.88,108.53Z"/><path class="cls-5" d="M4338.8,113.07a2.73,2.73,0,1,1-2.73-2.71A2.72,2.72,0,0,1,4338.8,113.07Z"/><path class="cls-5" d="M4389.06,97.36a2,2,0,1,1-2-2A2,2,0,0,1,4389.06,97.36Z"/><path class="cls-5" d="M4342.81,108.28a2,2,0,1,1-2-2A2,2,0,0,1,4342.81,108.28Z"/></g><path class="cls-6" d="M4397.24,117.66a2.73,2.73,0,1,1-2.72-2.71A2.71,2.71,0,0,1,4397.24,117.66Z"/><path class="cls-6" d="M4399.74,113.29a1.75,1.75,0,1,1-1.75-1.74A1.75,1.75,0,0,1,4399.74,113.29Z"/><path class="cls-3" d="M4349.51,65.92a2.73,2.73,0,1,1-2.72-2.71A2.72,2.72,0,0,1,4349.51,65.92Z"/><path class="cls-3" d="M4342.24,95.37a4.45,4.45,0,1,1-4.45-4.43A4.43,4.43,0,0,1,4342.24,95.37Z"/><path class="cls-3" d="M4351,61a1.28,1.28,0,1,1-1.28-1.27A1.28,1.28,0,0,1,4351,61Z"/><path class="cls-3" d="M4365.08,78.12a1.29,1.29,0,1,1-1.28-1.28A1.27,1.27,0,0,1,4365.08,78.12Z"/><path class="cls-7" d="M4360.53,137.47v-1.91l-1,.25c-.38,5.14-.54,13.16-.75,14.75-.44,3.41-1.12,7.36-1.81,10.34h2.24l1.28-7.25Z"/><path class="cls-1" d="M3654.29,127.2a14.5,14.5,0,0,1-7.4-22.89A18.36,18.36,0,0,1,3657.18,81a17.83,17.83,0,0,1,6.61-1.26,18.26,18.26,0,0,1,34.51-11.91,18.74,18.74,0,0,1,.74,11.79l.05,0a18.6,18.6,0,0,1,21,11.4,18.41,18.41,0,0,1,1.1,4,7.59,7.59,0,0,1,2.39,9A7.69,7.69,0,0,1,3720,108a14.45,14.45,0,0,1-25.72,11.87,11.67,11.67,0,0,1-9.47,2.29,17.9,17.9,0,0,1-18.23,9.76,6.57,6.57,0,1,1-12.25-4.72Z"/><path class="cls-2" d="M3682.68,133.68a51.52,51.52,0,0,1,.09-5.6c-5.19-1.77-8.2-16.08-8.2-16.08,3.91,8.36,7,12.65,8.66,13.1.19-1.8.42-6.07.51-7.87a41.25,41.25,0,0,1,.41-4.33c.33-2-.67-10.74.21-11.57,0,0,1.63,12.86,2.32,11.43,2.14-4.47,3.31-5.15,5.85-8.93.32-.47-5.86,12.55-5.79,13.28.25,2.94.58,7.19,1,13.36a47.78,47.78,0,0,0,6.5-4.55c-1.12-3.8,2.49-11.27,2.49-11.27-.11,4-1.66,9.38-.93,9.88,1.58-1.87,9.52-7.78,11.39-10.22,0,0-11.1,14.52-19.16,20.12.38,4.71.52,12.47.72,14,.41,3.14,1,6.77,1.67,9.52H3681a40.58,40.58,0,0,0,.54-4.12c.06-2.9.14-13.1.48-15.14-11.72-5.8-21.56-19.78-21.56-19.78C3668.89,127.09,3679.18,133.41,3682.68,133.68Z"/><path class="cls-3" d="M3678.9,61.53c-8.57,1.11-11.16,3.84-15.34,8.22a18,18,0,0,1,10.81-12.43,18.53,18.53,0,0,1,23.93,10.54,18.74,18.74,0,0,1,.74,11.79l.05,0a18.6,18.6,0,0,1,21,11.4,18.82,18.82,0,0,1,.82,2.58c-11.6-13.18-34.82-4.85-30.37-8.26C3700.22,78,3695.09,59.43,3678.9,61.53Z"/><path class="cls-3" d="M3667.64,83.58c-3.08.28-8.88,1-13.54,3.18-1.71.79-5.52,3.25-6.7,3.72a17.87,17.87,0,0,1,16.39-10.71S3673,83.09,3667.64,83.58Z"/><path class="cls-3" d="M3700.31,92.08a2.51,2.51,0,1,0,2.51-2.5A2.5,2.5,0,0,0,3700.31,92.08Z"/><path class="cls-3" d="M3704,97.56a4.1,4.1,0,1,0,4.09-4.08A4.08,4.08,0,0,0,3704,97.56Z"/><path class="cls-3" d="M3706.94,90.48a1.18,1.18,0,1,0,1.18-1.18A1.18,1.18,0,0,0,3706.94,90.48Z"/><g class="cls-4"><path class="cls-5" d="M3644.69,118.28a14.47,14.47,0,0,1,2.2-14,11.86,11.86,0,0,0,7.81.23s-2.16,12.52,10.41,15.64c11.58,2.88,18.72-12.57,18.72-12.57a41.41,41.41,0,0,0,23.29,5.19c6.2-.54,6.29-7.41,9-11.47s1.82,3.22,5,2.15c1.14-.39,2.12-.74,2.91-1a7.59,7.59,0,0,1-.46,1.64A7.69,7.69,0,0,1,3720,108a14.45,14.45,0,0,1-25.72,11.87,11.67,11.67,0,0,1-9.47,2.29,17.9,17.9,0,0,1-18.23,9.76,6.57,6.57,0,1,1-12.25-4.72A14.57,14.57,0,0,1,3644.69,118.28Z"/><path class="cls-5" d="M3656.51,107.87a4,4,0,1,0,4-4A4,4,0,0,0,3656.51,107.87Z"/><path class="cls-5" d="M3652.93,98.1a2.52,2.52,0,1,0,2.51-2.5A2.51,2.51,0,0,0,3652.93,98.1Z"/><path class="cls-5" d="M3658,101.52a1.85,1.85,0,1,0,1.84-1.84A1.83,1.83,0,0,0,3658,101.52Z"/><path class="cls-5" d="M3681.17,67.07a2.66,2.66,0,1,0,2.66-2.65A2.65,2.65,0,0,0,3681.17,67.07Z"/><path class="cls-5" d="M3686.66,72.42a2.14,2.14,0,1,0,2.14-2.14A2.13,2.13,0,0,0,3686.66,72.42Z"/></g><path class="cls-7" d="M3687.17,136.35v-1.76l.89.22c.36,4.74.5,12.13.69,13.6.41,3.14,1,6.77,1.67,9.52h-2.07l-1.18-6.67Z"/><path class="cls-6" d="M3697.8,119.42a2.51,2.51,0,1,0,2.51-2.5A2.5,2.5,0,0,0,3697.8,119.42Z"/><path class="cls-6" d="M3695.49,115.39a1.62,1.62,0,1,0,1.62-1.61A1.62,1.62,0,0,0,3695.49,115.39Z"/><path class="cls-1" d="M3229,127.2a14.5,14.5,0,0,1-7.4-22.89A18.36,18.36,0,0,1,3231.87,81a17.83,17.83,0,0,1,6.61-1.26A18.26,18.26,0,0,1,3273,67.86a18.81,18.81,0,0,1,.74,11.79l.05,0a18.6,18.6,0,0,1,21,11.4,18.41,18.41,0,0,1,1.1,4,7.61,7.61,0,0,1,2.39,9,7.73,7.73,0,0,1-3.64,3.91,14.45,14.45,0,0,1-25.72,11.87,11.67,11.67,0,0,1-9.47,2.29,17.9,17.9,0,0,1-18.23,9.76A6.57,6.57,0,1,1,3229,127.2Z"/><path class="cls-2" d="M3257.37,133.68a51.52,51.52,0,0,1,.09-5.6c-5.19-1.77-8.2-16.08-8.2-16.08,3.91,8.36,7,12.65,8.66,13.1.19-1.8.42-6.07.51-7.87a41.25,41.25,0,0,1,.41-4.33c.33-2-.67-10.74.21-11.57,0,0,1.63,12.86,2.32,11.43,2.14-4.47,3.3-5.15,5.85-8.93.32-.47-5.86,12.55-5.79,13.28.25,2.94.58,7.19,1,13.36a47.78,47.78,0,0,0,6.5-4.55c-1.12-3.8,2.49-11.27,2.49-11.27-.11,4-1.66,9.38-.93,9.88,1.58-1.87,9.52-7.78,11.39-10.22,0,0-11.1,14.52-19.16,20.12.38,4.71.52,12.47.72,14,.41,3.14,1,6.77,1.67,9.52h-9.41a40.58,40.58,0,0,0,.54-4.12c.06-2.9.14-13.1.48-15.14-11.72-5.8-21.56-19.78-21.56-19.78C3243.58,127.09,3253.87,133.41,3257.37,133.68Z"/><path class="cls-3" d="M3253.59,61.53c-8.57,1.11-11.16,3.84-15.35,8.22a18.09,18.09,0,0,1,10.82-12.43A18.53,18.53,0,0,1,3273,67.86a18.81,18.81,0,0,1,.74,11.79l.05,0a18.6,18.6,0,0,1,21,11.4,18.82,18.82,0,0,1,.82,2.58c-11.6-13.18-34.82-4.85-30.37-8.26C3274.91,78,3269.78,59.43,3253.59,61.53Z"/><path class="cls-3" d="M3242.33,83.58c-3.08.28-8.88,1-13.54,3.18-1.71.79-5.52,3.25-6.7,3.72a17.87,17.87,0,0,1,16.39-10.71S3247.64,83.09,3242.33,83.58Z"/><path class="cls-3" d="M3275,92.08a2.51,2.51,0,1,0,2.51-2.5A2.5,2.5,0,0,0,3275,92.08Z"/><path class="cls-3" d="M3278.71,97.56a4.1,4.1,0,1,0,4.1-4.08A4.09,4.09,0,0,0,3278.71,97.56Z"/><path class="cls-3" d="M3281.63,90.48a1.18,1.18,0,1,0,1.18-1.18A1.18,1.18,0,0,0,3281.63,90.48Z"/><g class="cls-4"><path class="cls-5" d="M3219.38,118.28a14.47,14.47,0,0,1,2.2-14,11.86,11.86,0,0,0,7.81.23s-2.16,12.52,10.41,15.64c11.58,2.88,18.72-12.57,18.72-12.57a41.41,41.41,0,0,0,23.29,5.19c6.2-.54,6.29-7.41,9-11.47s1.82,3.22,5,2.15c1.14-.39,2.11-.74,2.91-1a7.59,7.59,0,0,1-.46,1.64,7.73,7.73,0,0,1-3.64,3.91,14.45,14.45,0,0,1-25.72,11.87,11.67,11.67,0,0,1-9.47,2.29,17.9,17.9,0,0,1-18.23,9.76A6.57,6.57,0,1,1,3229,127.2,14.57,14.57,0,0,1,3219.38,118.28Z"/><path class="cls-5" d="M3231.2,107.87a4,4,0,1,0,4-4A4,4,0,0,0,3231.2,107.87Z"/><path class="cls-5" d="M3227.62,98.1a2.51,2.51,0,1,0,2.51-2.5A2.51,2.51,0,0,0,3227.62,98.1Z"/><path class="cls-5" d="M3232.64,101.52a1.85,1.85,0,1,0,1.85-1.84A1.84,1.84,0,0,0,3232.64,101.52Z"/><path class="cls-5" d="M3255.86,67.07a2.66,2.66,0,1,0,2.66-2.65A2.65,2.65,0,0,0,3255.86,67.07Z"/><path class="cls-5" d="M3261.35,72.42a2.14,2.14,0,1,0,2.14-2.14A2.13,2.13,0,0,0,3261.35,72.42Z"/></g><path class="cls-7" d="M3261.86,136.35v-1.76l.89.22c.35,4.74.5,12.13.69,13.6.41,3.14,1,6.77,1.67,9.52H3263l-1.18-6.67Z"/><path class="cls-6" d="M3272.49,119.42a2.51,2.51,0,1,0,2.51-2.5A2.5,2.5,0,0,0,3272.49,119.42Z"/><path class="cls-6" d="M3270.18,115.39a1.62,1.62,0,1,0,1.62-1.61A1.62,1.62,0,0,0,3270.18,115.39Z"/><polygon class="cls-8" points="3621.98 0 3609 25.05 3612.37 24.28 3610.96 28.82 3597.22 43.43 3604.79 43.48 3597.91 54.38 3589.92 61.78 3597.07 66.95 3586.13 87.8 3595.39 87.8 3576.87 108.86 3587.81 113.89 3568.03 123.53 3580.61 127.47 3586.97 129.46 3609.28 136.94 3647.58 134.01 3676.62 124.37 3657.68 118.08 3666.1 113.89 3647.16 92.53 3654.73 90.96 3643.79 69.67 3654.31 65.28 3643.79 58.15 3640.49 52.25 3646.38 50.19 3635.86 39.29 3641.26 36.78 3629.12 24.2 3634.53 21.69 3621.98 0"/><polygon class="cls-2" points="3626.95 160.9 3612.22 160.9 3616.01 132.75 3624.43 132.75 3625.76 152.03 3626.95 160.9"/><polygon class="cls-9" points="3609.28 136.94 3647.58 134.01 3676.62 124.37 3657.68 118.08 3666.1 113.89 3647.16 92.53 3654.73 90.96 3643.79 69.67 3654.31 65.28 3643.79 58.15 3640.49 52.25 3646.38 50.19 3635.86 39.29 3641.26 36.78 3629.12 24.2 3634.53 21.69 3622.91 1.6 3624.01 20.01 3618.12 23.79 3626.95 27.58 3626.11 39.71 3616.57 43.06 3626.95 53.96 3617.7 69.27 3640.14 83.87 3626.95 90.25 3612.22 91.68 3640.99 114.87 3625.83 123.21 3586.45 129.3 3586.97 129.46 3609.28 136.94"/><g class="cls-10"><polygon class="cls-11" points="3595.39 87.8 3576.87 108.86 3610.4 87.8 3595.39 87.8"/><polygon class="cls-11" points="3597.07 66.95 3586.13 87.8 3590.95 87.8 3604.72 68.47 3597.07 66.95"/><polygon class="cls-11" points="3589.92 61.78 3592.71 63.8 3601.42 55.36 3601.81 48.21 3597.91 54.38 3589.92 61.78"/><polygon class="cls-11" points="3587.81 113.89 3568.03 123.53 3622.32 113.89 3587.81 113.89"/><polygon class="cls-11" points="3611.28 27.79 3610.96 28.82 3597.22 43.43 3599.51 43.44 3617.2 27.79 3611.28 27.79"/><polygon class="cls-11" points="3611.14 24.56 3618.26 18.29 3621.98 0 3609 25.05 3611.14 24.56"/></g><polygon class="cls-7" points="3614.75 160.9 3617.2 132.75 3616.01 132.75 3612.22 160.9 3614.75 160.9"/><g class="cls-10"><polygon class="cls-11" points="3597.22 62.48 3601.81 58.57 3601.81 61.95 3597.22 62.48"/><polygon class="cls-11" points="3619.59 27.79 3619.59 31.33 3621.98 29.56 3619.59 27.79"/><polygon class="cls-11" points="3599.51 83.87 3604.72 83.87 3604.72 79.36 3599.51 83.87"/><polygon class="cls-11" points="3622.32 111.43 3617.2 106.49 3614.71 110.12 3622.32 111.43"/><polygon class="cls-11" points="3638.34 126.9 3633.21 121.96 3630.72 125.59 3638.34 126.9"/><polygon class="cls-11" points="3657.14 116.36 3652.01 111.42 3649.53 115.06 3657.14 116.36"/><polygon class="cls-11" points="3613.21 106.49 3610.4 111.43 3606.19 111.43 3613.21 106.49"/><polygon class="cls-11" points="3622.32 53.4 3619.59 56.01 3617.2 53.4 3622.32 53.4"/><polygon class="cls-11" points="3632.08 64.35 3629.34 66.95 3626.95 64.35 3632.08 64.35"/><polygon class="cls-11" points="3650.84 64.35 3648.11 66.95 3645.72 64.35 3650.84 64.35"/><polygon class="cls-11" points="3637.09 36.3 3634.36 38.9 3631.97 36.3 3637.09 36.3"/><polygon class="cls-11" points="3626.95 85.53 3631.53 84.23 3625.83 81.62 3626.95 85.53"/></g><g class="cls-4"><polygon class="cls-12" points="3653.33 118.71 3648.28 118.71 3653.33 122.13 3653.33 118.71"/><polygon class="cls-12" points="3643.79 93.91 3637.62 95.63 3643.79 98.33 3643.79 93.91"/><polygon class="cls-12" points="3625.83 69.67 3631.53 71.4 3626.95 74.36 3625.83 69.67"/><polygon class="cls-12" points="3634.53 40.27 3631.53 40.27 3634.53 43.44 3634.53 40.27"/></g><polygon class="cls-8" points="4217.14 4.22 4204.51 28.61 4207.78 27.86 4206.41 32.28 4193.03 46.51 4200.41 46.56 4193.71 57.17 4185.92 64.38 4192.89 69.42 4182.23 89.72 4191.25 89.72 4173.22 110.23 4183.87 115.13 4164.61 124.51 4176.86 128.35 4183.05 130.29 4204.77 137.57 4242.07 134.71 4270.35 125.33 4251.9 119.2 4260.1 115.13 4241.66 94.32 4249.04 92.8 4238.38 72.06 4248.63 67.78 4238.38 60.85 4235.17 55.1 4240.91 53.1 4230.66 42.48 4235.92 40.03 4224.1 27.79 4229.36 25.34 4217.14 4.22"/><polygon class="cls-2" points="4221.99 160.9 4207.64 160.9 4211.33 133.49 4219.53 133.49 4220.83 152.26 4221.99 160.9"/><polygon class="cls-9" points="4204.77 137.57 4242.07 134.71 4270.35 125.33 4251.9 119.2 4260.1 115.13 4241.66 94.32 4249.04 92.8 4238.38 72.06 4248.63 67.78 4238.38 60.85 4235.17 55.1 4240.91 53.1 4230.66 42.48 4235.92 40.03 4224.1 27.79 4229.36 25.34 4218.04 5.78 4219.12 23.71 4213.38 27.38 4221.99 31.08 4221.17 42.89 4211.88 46.16 4221.99 56.77 4212.97 71.68 4234.83 85.89 4221.99 92.1 4207.64 93.5 4235.65 116.08 4220.9 124.2 4182.54 130.13 4183.05 130.29 4204.77 137.57"/><g class="cls-10"><polygon class="cls-11" points="4191.25 89.72 4173.22 110.23 4205.87 89.72 4191.25 89.72"/><polygon class="cls-11" points="4192.89 69.42 4182.23 89.72 4186.92 89.72 4200.34 70.89 4192.89 69.42"/><polygon class="cls-11" points="4185.92 64.38 4188.65 66.35 4197.13 58.12 4197.5 51.16 4193.71 57.17 4185.92 64.38"/><polygon class="cls-11" points="4183.87 115.13 4164.61 124.51 4217.48 115.13 4183.87 115.13"/><polygon class="cls-11" points="4206.73 31.28 4206.41 32.28 4193.03 46.51 4195.26 46.52 4212.49 31.28 4206.73 31.28"/><polygon class="cls-11" points="4206.59 28.13 4213.52 22.03 4217.14 4.22 4204.51 28.61 4206.59 28.13"/></g><polygon class="cls-7" points="4210.1 160.9 4212.49 133.49 4211.33 133.49 4207.64 160.9 4210.1 160.9"/><g class="cls-10"><polygon class="cls-11" points="4193.03 65.06 4197.5 61.25 4197.5 64.55 4193.03 65.06"/><polygon class="cls-11" points="4214.81 31.28 4214.81 34.73 4217.14 33 4214.81 31.28"/><polygon class="cls-11" points="4195.27 85.89 4200.34 85.89 4200.34 81.5 4195.27 85.89"/><polygon class="cls-11" points="4217.48 112.72 4212.49 107.91 4210.07 111.45 4217.48 112.72"/><polygon class="cls-11" points="4233.07 127.79 4228.08 122.98 4225.66 126.52 4233.07 127.79"/><polygon class="cls-11" points="4251.38 117.53 4246.39 112.72 4243.96 116.26 4251.38 117.53"/><polygon class="cls-11" points="4208.6 107.91 4205.87 112.72 4201.77 112.72 4208.6 107.91"/><polygon class="cls-11" points="4217.48 56.22 4214.81 58.76 4212.49 56.22 4217.48 56.22"/><polygon class="cls-11" points="4226.98 66.88 4224.31 69.42 4221.99 66.88 4226.98 66.88"/><polygon class="cls-11" points="4245.25 66.88 4242.58 69.42 4240.26 66.88 4245.25 66.88"/><polygon class="cls-11" points="4231.86 39.56 4229.19 42.1 4226.87 39.56 4231.86 39.56"/><polygon class="cls-11" points="4221.99 87.51 4226.45 86.24 4220.9 83.7 4221.99 87.51"/></g><g class="cls-4"><polygon class="cls-12" points="4247.67 119.82 4242.75 119.82 4247.67 123.15 4247.67 119.82"/><polygon class="cls-12" points="4238.38 95.67 4232.37 97.35 4238.38 99.97 4238.38 95.67"/><polygon class="cls-12" points="4220.9 72.06 4226.45 73.75 4221.99 76.63 4220.9 72.06"/><polygon class="cls-12" points="4229.36 43.44 4226.45 43.44 4229.36 46.52 4229.36 43.44"/></g><path class="cls-1" d="M3034.77,116.9a11.74,11.74,0,0,1,.8-19.48A14.94,14.94,0,0,1,3050,82.58a14.67,14.67,0,0,1,5.39.88,14.81,14.81,0,0,1,29.6.57,15.19,15.19,0,0,1-2.75,9.18l0,.05A15,15,0,0,1,3095,107.79a15.79,15.79,0,0,1-.27,3.32,6.18,6.18,0,0,1-.73,7.55,6.32,6.32,0,0,1-3.87,2,11.72,11.72,0,0,1-22.91,1.85,9.44,9.44,0,0,1-7.84-.9,14.59,14.59,0,0,1-16.63,2.34,5.31,5.31,0,1,1-8-7Z"/><path class="cls-2" d="M3061.63,131.83a41.74,41.74,0,0,1,.07-4.54c-4.21-1.44-6.65-13-6.65-13,3.17,6.78,5.71,10.26,7,10.62.15-1.46.33-4.92.41-6.38a32.86,32.86,0,0,1,.33-3.51c.27-1.58-.54-8.71.17-9.38,0,0,1.32,10.43,1.88,9.27,1.74-3.62,2.68-4.18,4.75-7.24.25-.39-4.76,10.17-4.7,10.76.21,2.39.47,5.84.81,10.83a39.73,39.73,0,0,0,5.28-3.68c-.91-3.09,2-9.14,2-9.14-.09,3.26-1.35,7.6-.76,8,1.29-1.52,7.73-6.31,9.24-8.28,0,0-9,11.76-15.53,16.31.3,3.81.42,10.11.58,11.33.33,2.55.84,5.49,1.36,7.72h-7.63a31.7,31.7,0,0,0,.43-3.34c.05-2.35.12-10.63.39-12.27-9.5-4.71-17.48-16-17.48-16C3050.45,126.49,3058.79,131.61,3061.63,131.83Z"/><path class="cls-3" d="M3072,73.8c-6.83-1.54-9.58-.19-14,2a14.66,14.66,0,0,1,11.72-6.44A15,15,0,0,1,3084.94,84a15.19,15.19,0,0,1-2.75,9.18l0,.05A15,15,0,0,1,3095,107.79a15.84,15.84,0,0,1-.1,2.19c-1.29-2.84-7.28-13.39-15.89-11.43-5.25,1.19-6.35,1-9.2-.89-1-.69,0-1.08,4.31-2.43C3083.54,92.31,3084.88,76.73,3072,73.8Z"/><path class="cls-3" d="M3061.6,86.27c1.56,2.14-.22,2.28-4.4,1.17a35.74,35.74,0,0,0-11.2-1.36c-1.52.12-5.11.93-6.14,1a14.54,14.54,0,0,1,15.48-3.58S3060,84.12,3061.6,86.27Z"/><g class="cls-4"><path class="cls-5" d="M3030,107.43a11.75,11.75,0,0,1,5.6-10,15.61,15.61,0,0,1,.61-4,6.58,6.58,0,0,0,3.71,3c4.11,1.23,1.56,3.38,1.56,3.38s-5.47,9.4,3.52,14.8c3.8,2.28,9.44,2.74,14.22,1.62,5.68-1.33,10.43-8.57,10.43-8.57s-.91,10.26,9.39,13.05c4.87,1.32,9.85-3.51,9.85-3.51a13.84,13.84,0,0,0,3.45.34l2.5,0a6.63,6.63,0,0,1-.81,1.12,6.32,6.32,0,0,1-3.87,2,11.72,11.72,0,0,1-22.91,1.85,9.44,9.44,0,0,1-7.84-.9,14.59,14.59,0,0,1-16.63,2.34,5.31,5.31,0,1,1-8-7A11.73,11.73,0,0,1,3030,107.43Z"/><path class="cls-5" d="M3042.79,109.18A3.21,3.21,0,1,0,3046,106,3.2,3.2,0,0,0,3042.79,109.18Z"/><path class="cls-5" d="M3049.32,112.37a2,2,0,1,0,2-2A2,2,0,0,0,3049.32,112.37Z"/><path class="cls-5" d="M3081.5,115.77a2,2,0,1,0,2-2A2,2,0,0,0,3081.5,115.77Z"/><path class="cls-5" d="M3044,104a1.5,1.5,0,1,0,1.5-1.49A1.5,1.5,0,0,0,3044,104Z"/><path class="cls-5" d="M3078.51,112.18a1.5,1.5,0,1,0,1.5-1.49A1.49,1.49,0,0,0,3078.51,112.18Z"/></g><path class="cls-6" d="M3037.85,119.19a2,2,0,1,0,2-2A2,2,0,0,0,3037.85,119.19Z"/><path class="cls-6" d="M3036,115.93a1.31,1.31,0,1,0,1.31-1.3A1.31,1.31,0,0,0,3036,115.93Z"/><path class="cls-3" d="M3073.5,80.55a2,2,0,1,0,2-2A2,2,0,0,0,3073.5,80.55Z"/><path class="cls-3" d="M3078.93,102.54a3.33,3.33,0,1,0,3.32-3.31A3.31,3.31,0,0,0,3078.93,102.54Z"/><path class="cls-3" d="M3072.4,76.86a1,1,0,1,0,1-1A1,1,0,0,0,3072.4,76.86Z"/><path class="cls-3" d="M3061.88,89.65a1,1,0,1,0,.95-1A1,1,0,0,0,3061.88,89.65Z"/><path class="cls-7" d="M3065.27,134v-1.43l.72.19c.29,3.84.4,9.83.56,11,.33,2.55.84,5.49,1.36,7.72h-1.68l-1-5.41Z"/><path class="cls-1" d="M1150.05,132.67a7.43,7.43,0,0,0-8.06-1.28,14.37,14.37,0,0,0-11.81-10.47,14.73,14.73,0,0,0,2.67-8.88,14.27,14.27,0,0,0-28.52-.55,14,14,0,0,0-5.19-.85,14.42,14.42,0,0,0-13.86,15,15,15,0,0,0,.91,4.68,14.74,14.74,0,0,0-1.86,7.57A14.44,14.44,0,0,0,1099,152a14,14,0,0,0,6.78-2c.12.13.22.26.35.38a9,9,0,0,0,12.73-.56,9.16,9.16,0,0,0,1.56-2.35,13.91,13.91,0,0,0,13.28,1.29,5.15,5.15,0,0,0,1.54,2.68,5.55,5.55,0,0,0,9-5.79,7.65,7.65,0,0,0,6.08-2.44A7.44,7.44,0,0,0,1150.05,132.67Z"/><path class="cls-13" d="M1115.44,155.78c-.09,1.08-.12,1.93-.13,2.74h9a134.49,134.49,0,0,0,15.14-14.2c-1.84,2-9.67,6.94-11.23,8.5-.72-.41.82-4.87.92-8.23,0,0-3.55,6.22-2.45,9.39a47.89,47.89,0,0,1-6.4,3.78c-.42-5.13-.74-8.67-1-11.11-.07-.62,6-11.45,5.7-11.06-2.5,3.15-3.65,3.72-5.76,7.43-.67,1.19-2.29-9.51-2.29-9.51-.86.68.12,8-.21,9.63a28.93,28.93,0,0,0-.39,3.61c-.1,1.49-.32,5-.5,6.54-1.6-.37-4.69-3.94-8.54-10.9C1107.36,142.39,1110.33,154.3,1115.44,155.78Z"/><path class="cls-13" d="M1114.28,158.52h4.07c-4.61-2.16-19.47-5.93-24.89-10.4C1093.46,148.12,1095.59,153.51,1114.28,158.52Z"/><path class="cls-3" d="M1122.94,106.75a2.66,2.66,0,1,1-2.66-2.64A2.66,2.66,0,0,1,1122.94,106.75Z"/><path class="cls-3" d="M1116.7,105.51a1.25,1.25,0,1,1-1.24-1.24A1.23,1.23,0,0,1,1116.7,105.51Z"/><g class="cls-4"><path class="cls-5" d="M1099,152a14,14,0,0,0,6.78-2c.12.13.22.26.35.38a9,9,0,0,0,12.73-.56,9.16,9.16,0,0,0,1.56-2.35,13.91,13.91,0,0,0,13.28,1.29,5.15,5.15,0,0,0,1.54,2.68,5.55,5.55,0,0,0,9-5.79,7.65,7.65,0,0,0,6.08-2.44,7.51,7.51,0,0,0,.84-9.27c-.93,2.25-2.29,5-3.69,6.17-2.56,2.11-5.36-2.61-8-5.15s-3.78.25-7.36,2.05-7.09-1.43-12.5-3.14-14.8,5.92-17.87,6.94-7.65,3.8-13.27,1.26a11.42,11.42,0,0,1-4.07-3.09A14.37,14.37,0,0,0,1099,152Z"/><path class="cls-5" d="M1130.69,133a3.06,3.06,0,1,1-3-3.05A3,3,0,0,1,1130.69,133Z"/><path class="cls-5" d="M1134.42,132.05a1.41,1.41,0,1,1-1.41-1.4A1.4,1.4,0,0,1,1134.42,132.05Z"/></g><path class="cls-3" d="M1118.16,97.89a14.38,14.38,0,0,0-13.83,13.6,14,14,0,0,0-5.19-.85,14.24,14.24,0,0,0-12.4,8.12c6.17-4.57,15.79-3.27,20.46-2.25a.92.92,0,0,0,1-.42.89.89,0,0,0-.09-1l-1.45-1.68a1.58,1.58,0,0,1-.16-1.85c2.06-3.46,9.83-14.14,23.74-7.5A14.18,14.18,0,0,0,1118.16,97.89Z"/><path class="cls-3" d="M1130.2,120.88a29.27,29.27,0,0,0-13.5,5.19s9.07-2.59,17.23-1.74a22.44,22.44,0,0,1,4.88,1.23,14.18,14.18,0,0,0-8.63-4.64A.05.05,0,0,1,1130.2,120.88Z"/><path class="cls-1" d="M1853.3,127.24a7,7,0,0,1,7.56-1.2,13.49,13.49,0,0,1,11.09-9.82,13.8,13.8,0,0,1-2.51-8.33,13.38,13.38,0,0,1,26.75-.51,13,13,0,0,1,4.87-.8,13.52,13.52,0,0,1,13,14,13.81,13.81,0,0,1-.85,4.39,13.83,13.83,0,0,1,1.74,7.1,13.53,13.53,0,0,1-13.77,13.28,13.08,13.08,0,0,1-6.36-1.86c-.12.12-.21.25-.33.36a8.49,8.49,0,0,1-13.41-2.73,13.14,13.14,0,0,1-12.46,1.21,4.93,4.93,0,0,1-1.44,2.51,5.15,5.15,0,0,1-7.24-.34,5.2,5.2,0,0,1-1.18-5.1,7.15,7.15,0,0,1-5.7-2.28A7,7,0,0,1,1853.3,127.24Z"/><path class="cls-13" d="M1885.77,148.92c.08,1,.12,1.81.12,2.57h-8.49a125.17,125.17,0,0,1-14.2-13.32c1.73,1.9,9.07,6.51,10.53,8,.68-.39-.76-4.58-.86-7.72,0,0,3.33,5.83,2.3,8.8a44.83,44.83,0,0,0,6,3.55c.38-4.81.69-8.13.93-10.43.06-.57-5.65-10.74-5.36-10.37,2.35,3,3.43,3.49,5.41,7,.63,1.11,2.14-8.93,2.14-8.93.81.64-.11,7.51.2,9a27.49,27.49,0,0,1,.37,3.38c.09,1.4.3,4.73.47,6.14,1.5-.35,4.4-3.7,8-10.23C1893.35,136.36,1890.57,147.53,1885.77,148.92Z"/><path class="cls-13" d="M1886.86,151.49H1883c4.33-2,18.27-5.56,23.35-9.75C1906.39,141.74,1904.39,146.79,1886.86,151.49Z"/><path class="cls-3" d="M1878.73,102.93a2.5,2.5,0,1,0,2.5-2.48A2.49,2.49,0,0,0,1878.73,102.93Z"/><path class="cls-3" d="M1884.59,101.76a1.17,1.17,0,1,0,1.16-1.16A1.16,1.16,0,0,0,1884.59,101.76Z"/><path class="cls-3" d="M1857.2,128a1.17,1.17,0,1,0,1.17-1.16A1.17,1.17,0,0,0,1857.2,128Z"/><g class="cls-4"><path class="cls-5" d="M1901.18,145.37a13.08,13.08,0,0,1-6.36-1.86c-.12.12-.21.25-.33.36a8.49,8.49,0,0,1-13.41-2.73,13.14,13.14,0,0,1-12.46,1.21,4.93,4.93,0,0,1-1.44,2.51,5.15,5.15,0,0,1-7.24-.34,5.2,5.2,0,0,1-1.18-5.1,7.15,7.15,0,0,1-5.7-2.28,7,7,0,0,1-.78-8.69c.87,2.1,2.14,4.7,3.46,5.79,2.39,2,5-2.46,7.46-4.84s3.55.24,6.9,1.93,6.65-1.35,11.73-3,13.89,5.55,16.76,6.51,7.18,3.57,12.45,1.18a10.75,10.75,0,0,0,3.83-2.9A13.51,13.51,0,0,1,1901.18,145.37Z"/><path class="cls-5" d="M1871.46,127.51a2.87,2.87,0,1,0,2.87-2.85A2.87,2.87,0,0,0,1871.46,127.51Z"/><path class="cls-5" d="M1904,124.26a2.41,2.41,0,1,0,2.41-2.4A2.4,2.4,0,0,0,1904,124.26Z"/><path class="cls-5" d="M1868,126.66a1.32,1.32,0,1,0,1.32-1.31A1.32,1.32,0,0,0,1868,126.66Z"/><path class="cls-5" d="M1909.9,124a1.32,1.32,0,1,0,1.31-1.31A1.31,1.31,0,0,0,1909.9,124Z"/><path class="cls-5" d="M1902.6,120.37a1.35,1.35,0,1,0,1.34-1.34A1.34,1.34,0,0,0,1902.6,120.37Z"/></g><path class="cls-3" d="M1883.21,94.61a13.5,13.5,0,0,1,13,12.76,13.14,13.14,0,0,1,4.87-.79,13.35,13.35,0,0,1,11.63,7.61c-5.78-4.28-14.81-3.06-19.19-2.11a.84.84,0,0,1-.82-1.37l1.35-1.57a1.48,1.48,0,0,0,.16-1.74c-1.94-3.24-9.23-13.26-22.28-7A13.33,13.33,0,0,1,1883.21,94.61Z"/><path class="cls-3" d="M1871.92,116.18a27.41,27.41,0,0,1,12.67,4.88s-8.5-2.44-16.17-1.64a21.78,21.78,0,0,0-4.57,1.15,13.33,13.33,0,0,1,8.1-4.35S1871.94,116.19,1871.92,116.18Z"/><path class="cls-1" d="M1886.52,134.89a2.49,2.49,0,1,0,2.49-2.48A2.49,2.49,0,0,0,1886.52,134.89Z"/><path class="cls-1" d="M1885.75,130.71a1.18,1.18,0,1,0,1.18-1.17A1.17,1.17,0,0,0,1885.75,130.71Z"/><path class="cls-1" d="M2756.8,135.64a4.53,4.53,0,0,1,4.94-.79,8.84,8.84,0,0,1,7.25-6.42,9.1,9.1,0,0,1-1.64-5.45,8.75,8.75,0,0,1,17.49-.33,8.64,8.64,0,0,1,3.18-.52,8.85,8.85,0,0,1,8.51,9.17,9,9,0,0,1-.56,2.86,9.11,9.11,0,0,1,1.14,4.65,8.85,8.85,0,0,1-9,8.68,8.67,8.67,0,0,1-4.16-1.22c-.07.08-.13.16-.21.24a5.54,5.54,0,0,1-7.81-.35,5.41,5.41,0,0,1-1-1.44,8.56,8.56,0,0,1-5.05,1.47,8.35,8.35,0,0,1-3.09-.68,3.2,3.2,0,0,1-1,1.65,3.35,3.35,0,0,1-4.73-.23,3.39,3.39,0,0,1-.77-3.33,4.66,4.66,0,0,1-3.73-1.49A4.57,4.57,0,0,1,2756.8,135.64Z"/><path class="cls-13" d="M2778,149.81c0,.66.07,1.18.08,1.68h-5.55a81.64,81.64,0,0,1-9.29-8.71c1.13,1.24,5.93,4.26,6.89,5.22.44-.26-.5-3-.56-5.05,0,0,2.17,3.81,1.5,5.76A29.66,29.66,0,0,0,2775,151c.25-3.15.45-5.32.61-6.82,0-.38-3.7-7-3.51-6.78,1.54,1.93,2.24,2.28,3.54,4.56.41.73,1.4-5.84,1.4-5.84.53.42-.07,4.91.13,5.91a18.46,18.46,0,0,1,.24,2.21c.06.91.2,3.1.31,4,1-.22,2.87-2.41,5.24-6.68C2783,141.6,2781.17,148.9,2778,149.81Z"/><path class="cls-13" d="M2778.74,151.49h-2.5c2.83-1.32,12-3.64,15.27-6.37C2791.51,145.12,2790.2,148.42,2778.74,151.49Z"/><path class="cls-3" d="M2773.43,119.74a1.63,1.63,0,1,0,1.63-1.62A1.63,1.63,0,0,0,2773.43,119.74Z"/><path class="cls-3" d="M2777.25,119a.77.77,0,1,0,.77-.76A.77.77,0,0,0,2777.25,119Z"/><path class="cls-3" d="M2759.35,136.14a.77.77,0,1,0,.77-.76A.76.76,0,0,0,2759.35,136.14Z"/><g class="cls-4"><path class="cls-5" d="M2788.1,147.49a8.67,8.67,0,0,1-4.16-1.22c-.07.08-.13.16-.21.24a5.54,5.54,0,0,1-7.81-.35,5.41,5.41,0,0,1-1-1.44,8.56,8.56,0,0,1-5.05,1.47,8.35,8.35,0,0,1-3.09-.68,3.2,3.2,0,0,1-1,1.65,3.35,3.35,0,0,1-4.73-.23,3.39,3.39,0,0,1-.77-3.33,4.66,4.66,0,0,1-3.73-1.49,4.59,4.59,0,0,1-.51-5.68,11.06,11.06,0,0,0,2.26,3.78c1.57,1.29,3.29-1.6,4.88-3.16s2.32.15,4.52,1.26,4.34-.88,7.66-1.93,9.08,3.63,11,4.26,4.69,2.33,8.14.77a6.86,6.86,0,0,0,2.5-1.9A8.82,8.82,0,0,1,2788.1,147.49Z"/><path class="cls-5" d="M2768.67,135.81a1.88,1.88,0,1,0,1.88-1.86A1.87,1.87,0,0,0,2768.67,135.81Z"/><path class="cls-5" d="M2789.93,133.69a1.58,1.58,0,1,0,1.58-1.57A1.58,1.58,0,0,0,2789.93,133.69Z"/><path class="cls-5" d="M2766.39,135.26a.86.86,0,1,0,.86-.86A.86.86,0,0,0,2766.39,135.26Z"/><path class="cls-5" d="M2793.8,133.54a.86.86,0,1,0,.86-.85A.86.86,0,0,0,2793.8,133.54Z"/><path class="cls-5" d="M2789,131.14a.88.88,0,1,0,.88-.87A.88.88,0,0,0,2789,131.14Z"/></g><path class="cls-3" d="M2776.36,114.31a8.8,8.8,0,0,1,8.48,8.34,8.64,8.64,0,0,1,10.79,4.46c-3.78-2.81-9.68-2-12.55-1.38a.56.56,0,0,1-.54-.9l.89-1a1,1,0,0,0,.1-1.14c-1.27-2.11-6-8.66-14.56-4.59A8.68,8.68,0,0,1,2776.36,114.31Z"/><path class="cls-3" d="M2769,128.41a17.85,17.85,0,0,1,8.27,3.18,32.51,32.51,0,0,0-10.56-1.07,13.88,13.88,0,0,0-3,.76,8.69,8.69,0,0,1,5.29-2.85A0,0,0,0,0,2769,128.41Z"/><path class="cls-1" d="M2778.52,140.64a1.63,1.63,0,1,0,1.63-1.62A1.63,1.63,0,0,0,2778.52,140.64Z"/><path class="cls-1" d="M2778,137.9a.77.77,0,1,0,.77-.76A.76.76,0,0,0,2778,137.9Z"/><path class="cls-1" d="M1779.59,127.2a14.51,14.51,0,0,1-7.41-22.89A18.36,18.36,0,0,1,1782.47,81a17.87,17.87,0,0,1,6.61-1.26,18.26,18.26,0,0,1,34.51-11.91,18.75,18.75,0,0,1,.75,11.79l.05,0a18.61,18.61,0,0,1,21,11.4,19,19,0,0,1,1.1,4,7.59,7.59,0,0,1,2.38,9,7.72,7.72,0,0,1-3.63,3.91,14.45,14.45,0,0,1-25.72,11.87,11.67,11.67,0,0,1-9.47,2.29,17.9,17.9,0,0,1-18.24,9.76,6.49,6.49,0,0,1-3.91,4,6.59,6.59,0,0,1-8.45-3.89A6.48,6.48,0,0,1,1779.59,127.2Z"/><path class="cls-2" d="M1808,133.68a49.3,49.3,0,0,1,.1-5.6c-5.19-1.77-8.21-16.08-8.21-16.08,3.91,8.36,7.05,12.65,8.67,13.1.18-1.8.41-6.07.51-7.87a41.44,41.44,0,0,1,.4-4.33c.33-2-.66-10.74.21-11.57,0,0,1.64,12.86,2.32,11.43,2.14-4.47,3.31-5.15,5.86-8.93.31-.47-5.87,12.55-5.8,13.28.26,2.94.59,7.19,1,13.36a48.51,48.51,0,0,0,6.51-4.55c-1.12-3.8,2.48-11.27,2.48-11.27-.11,4-1.66,9.38-.93,9.88,1.59-1.87,9.53-7.78,11.4-10.22,0,0-11.1,14.52-19.16,20.12.37,4.71.52,12.47.71,14,.41,3.14,1,6.77,1.68,9.52h-9.41a40.61,40.61,0,0,0,.53-4.12c.06-2.9.15-13.1.48-15.14-11.72-5.8-21.56-19.78-21.56-19.78C1794.18,127.09,1804.47,133.41,1808,133.68Z"/><path class="cls-3" d="M1804.19,61.53c-8.56,1.11-11.16,3.84-15.34,8.22a18.07,18.07,0,0,1,10.81-12.43,18.53,18.53,0,0,1,23.93,10.54,18.75,18.75,0,0,1,.75,11.79l.05,0a18.63,18.63,0,0,1,21.83,14c-11.59-13.18-34.82-4.85-30.36-8.26C1825.51,78,1820.39,59.43,1804.19,61.53Z"/><path class="cls-3" d="M1792.94,83.58c-3.08.28-8.88,1-13.55,3.18-1.71.79-5.51,3.25-6.69,3.72a17.84,17.84,0,0,1,16.38-10.71S1798.25,83.09,1792.94,83.58Z"/><path class="cls-3" d="M1825.61,92.08a2.51,2.51,0,1,0,2.51-2.5A2.5,2.5,0,0,0,1825.61,92.08Z"/><path class="cls-3" d="M1829.32,97.56a4.1,4.1,0,1,0,4.1-4.08A4.08,4.08,0,0,0,1829.32,97.56Z"/><path class="cls-3" d="M1832.23,90.48a1.19,1.19,0,1,0,1.19-1.18A1.18,1.18,0,0,0,1832.23,90.48Z"/><g class="cls-4"><path class="cls-5" d="M1770,118.28a14.46,14.46,0,0,1,2.19-14,11.86,11.86,0,0,0,7.81.23s-2.15,12.52,10.41,15.64c11.59,2.88,18.73-12.57,18.73-12.57a41.36,41.36,0,0,0,23.28,5.19c6.21-.54,6.29-7.41,9-11.47s1.82,3.22,5,2.15l2.91-1a7.62,7.62,0,0,1-.47,1.64,7.72,7.72,0,0,1-3.63,3.91,14.45,14.45,0,0,1-25.72,11.87,11.67,11.67,0,0,1-9.47,2.29,17.9,17.9,0,0,1-18.24,9.76,6.49,6.49,0,0,1-3.91,4,6.59,6.59,0,0,1-8.45-3.89,6.48,6.48,0,0,1,.12-4.79A14.52,14.52,0,0,1,1770,118.28Z"/><path class="cls-5" d="M1781.8,107.87a4,4,0,1,0,4-4A4,4,0,0,0,1781.8,107.87Z"/><path class="cls-5" d="M1778.23,98.1a2.51,2.51,0,1,0,2.51-2.5A2.5,2.5,0,0,0,1778.23,98.1Z"/><path class="cls-5" d="M1783.25,101.52a1.85,1.85,0,1,0,1.84-1.84A1.84,1.84,0,0,0,1783.25,101.52Z"/><path class="cls-5" d="M1806.47,67.07a2.66,2.66,0,1,0,2.66-2.65A2.65,2.65,0,0,0,1806.47,67.07Z"/><path class="cls-5" d="M1812,72.42a2.14,2.14,0,1,0,2.14-2.14A2.13,2.13,0,0,0,1812,72.42Z"/></g><path class="cls-7" d="M1812.47,136.35v-1.76l.89.22c.35,4.74.49,12.13.68,13.6.41,3.14,1,6.77,1.68,9.52h-2.07l-1.18-6.67Z"/><path class="cls-6" d="M1823.09,119.42a2.52,2.52,0,1,0,2.52-2.5A2.51,2.51,0,0,0,1823.09,119.42Z"/><path class="cls-6" d="M1820.78,115.39a1.62,1.62,0,1,0,1.62-1.61A1.62,1.62,0,0,0,1820.78,115.39Z"/><polygon class="cls-8" points="2129.8 81.98 2122.56 91.14 2124.44 90.75 2123.65 93.03 2115.99 100.38 2120.21 100.41 2116.38 105.88 2111.92 109.6 2115.91 112.2 2106.37 119.93 2114.97 122.67 2102.58 132.02 2110.74 135.78 2099.72 144.05 2108.11 143.97 2110.28 144.98 2122.72 147.37 2144.07 145.89 2160.26 141.05 2149.7 137.89 2154.39 135.78 2143.83 125.05 2148.06 124.26 2141.96 113.56 2147.82 111.36 2140.12 104.81 2145.87 103.05 2137.54 98.3 2140.55 97.04 2135.15 91.4 2136.79 89.45 2129.8 81.98"/><polygon class="cls-2" points="2131.88 153.88 2125.04 153.88 2126.47 145.03 2131.16 145.03 2131.22 148.93 2131.88 153.88"/><polygon class="cls-9" points="2122.72 147.37 2144.07 145.89 2160.26 141.05 2149.7 137.89 2154.39 135.78 2143.83 125.05 2148.06 124.26 2141.96 113.56 2146.4 111.89 2140.12 104.81 2141.1 103.05 2137.54 98.3 2140.55 97.04 2135.15 91.4 2136.79 89.45 2130.31 82.78 2130.93 88.61 2127.64 90.51 2132.57 92.41 2132.1 98.51 2126.78 100.19 2132.57 105.67 2128.46 113.56 2139.92 120.7 2137.71 122.93 2128.56 125.75 2135.12 134.54 2141.96 139.06 2109.99 144.89 2110.28 144.98 2122.72 147.37"/><g class="cls-10"><polygon class="cls-11" points="2114.97 122.67 2102.58 132.02 2128.56 125.75 2117.27 124.73 2114.97 122.67"/><polygon class="cls-11" points="2115.91 112.2 2106.37 119.93 2114.97 122.67 2120.17 112.96 2115.91 112.2"/><polygon class="cls-11" points="2111.92 109.6 2113.48 110.62 2124.91 103.05 2118.55 102.78 2116.38 105.88 2111.92 109.6"/><polygon class="cls-11" points="2110.74 135.78 2099.72 144.05 2121.56 136.41 2110.74 135.78"/><polygon class="cls-11" points="2123.83 92.52 2123.65 93.03 2115.99 100.38 2117.27 100.39 2127.13 92.52 2123.83 92.52"/><polygon class="cls-11" points="2123.75 90.9 2127.72 87.75 2129.8 81.98 2122.56 91.14 2123.75 90.9"/></g><polygon class="cls-7" points="2126.45 153.88 2127.13 145.03 2126.47 145.03 2125.04 153.88 2126.45 153.88"/><g class="cls-10"><polygon class="cls-11" points="2118.89 111.6 2121.45 109.63 2121.45 111.33 2118.89 111.6"/><polygon class="cls-11" points="2132.25 110.62 2134.82 108.65 2134.82 110.35 2132.25 110.62"/><polygon class="cls-11" points="2125.42 97.9 2125.42 99.68 2126.76 98.79 2125.42 97.9"/><polygon class="cls-11" points="2117.27 120.7 2120.17 120.7 2120.17 118.43 2117.27 120.7"/><polygon class="cls-11" points="2131.51 90.34 2134.41 90.34 2134.41 88.08 2131.51 90.34"/><polygon class="cls-11" points="2138.78 117.05 2141.69 117.05 2141.69 114.78 2138.78 117.05"/><polygon class="cls-11" points="2117.44 134.64 2114.58 132.16 2113.19 133.98 2117.44 134.64"/><polygon class="cls-11" points="2119.22 139.92 2117.66 142.4 2115.32 142.4 2119.22 139.92"/><polygon class="cls-11" points="2123.99 99.73 2122.46 101.04 2121.13 99.73 2123.99 99.73"/><polygon class="cls-11" points="2125.13 122.52 2127.68 121.86 2124.5 120.55 2125.13 122.52"/></g><g class="cls-4"><polygon class="cls-12" points="2150.09 135.59 2147.28 135.59 2150.09 137.31 2150.09 135.59"/><polygon class="cls-12" points="2135.78 127.35 2132.96 127.35 2135.78 129.07 2135.78 127.35"/><polygon class="cls-12" points="2141.64 142.78 2138.83 142.78 2141.64 144.5 2141.64 142.78"/><polygon class="cls-12" points="2141.96 122.67 2138.51 123.54 2141.96 124.89 2141.96 122.67"/><polygon class="cls-12" points="2131.95 113.56 2135.12 114.43 2132.57 115.92 2131.95 113.56"/><polygon class="cls-12" points="2134.37 93.38 2137.55 94.25 2134.99 95.74 2134.37 93.38"/><polygon class="cls-12" points="2137.63 106.7 2135.96 106.7 2137.63 108.29 2137.63 106.7"/></g><polygon class="cls-8" points="4469.71 82.39 4462.52 91.5 4464.38 91.12 4463.6 93.38 4455.98 100.68 4460.18 100.71 4456.37 106.16 4451.94 109.85 4455.9 112.44 4446.42 120.13 4454.97 122.85 4442.65 132.15 4450.77 135.89 4439.8 144.11 4448.15 144.03 4450.3 145.03 4462.67 147.4 4483.9 145.94 4500 141.12 4489.5 137.98 4494.17 135.89 4483.67 125.21 4487.87 124.43 4481.8 113.79 4487.64 111.6 4479.97 105.09 4485.69 103.34 4477.4 98.62 4480.4 97.36 4475.04 91.76 4476.67 89.83 4469.71 82.39"/><polygon class="cls-2" points="4471.78 153.88 4464.99 153.88 4466.4 145.08 4471.07 145.08 4471.12 148.96 4471.78 153.88"/><polygon class="cls-9" points="4462.67 147.4 4483.9 145.94 4500 141.12 4489.5 137.98 4494.17 135.89 4483.67 125.21 4487.87 124.43 4481.8 113.79 4486.22 112.13 4479.97 105.09 4480.95 103.34 4477.4 98.62 4480.4 97.36 4475.04 91.76 4476.67 89.83 4470.22 83.19 4470.83 88.99 4467.57 90.87 4472.47 92.77 4472 98.83 4466.71 100.5 4472.47 105.95 4468.38 113.79 4479.78 120.89 4477.58 123.11 4468.48 125.91 4475.01 134.66 4481.8 139.15 4450.01 144.95 4450.3 145.03 4462.67 147.4"/><g class="cls-10"><polygon class="cls-11" points="4454.97 122.85 4442.65 132.15 4468.48 125.91 4457.26 124.9 4454.97 122.85"/><polygon class="cls-11" points="4455.9 112.44 4446.42 120.13 4454.97 122.85 4460.14 113.2 4455.9 112.44"/><polygon class="cls-11" points="4451.94 109.85 4453.49 110.86 4464.85 103.34 4458.53 103.07 4456.37 106.16 4451.94 109.85"/><polygon class="cls-11" points="4450.77 135.89 4439.8 144.11 4461.52 136.51 4450.77 135.89"/><polygon class="cls-11" points="4463.78 92.87 4463.6 93.38 4455.98 100.68 4457.25 100.69 4467.06 92.87 4463.78 92.87"/><polygon class="cls-11" points="4463.7 91.26 4467.65 88.13 4469.71 82.39 4462.52 91.5 4463.7 91.26"/></g><polygon class="cls-7" points="4466.38 153.88 4467.06 145.08 4466.4 145.08 4464.99 153.88 4466.38 153.88"/><g class="cls-10"><polygon class="cls-11" points="4458.87 111.84 4461.42 109.88 4461.42 111.58 4458.87 111.84"/><polygon class="cls-11" points="4472.15 110.86 4474.7 108.91 4474.7 110.6 4472.15 110.86"/><polygon class="cls-11" points="4465.36 98.22 4465.36 99.99 4466.69 99.11 4465.36 98.22"/><polygon class="cls-11" points="4457.26 120.89 4460.14 120.89 4460.14 118.64 4457.26 120.89"/><polygon class="cls-11" points="4471.41 90.71 4474.3 90.71 4474.3 88.45 4471.41 90.71"/><polygon class="cls-11" points="4478.65 117.26 4481.53 117.26 4481.53 115.01 4478.65 117.26"/><polygon class="cls-11" points="4457.42 134.75 4454.58 132.28 4453.2 134.1 4457.42 134.75"/><polygon class="cls-11" points="4459.2 140 4457.65 142.46 4455.31 142.46 4459.2 140"/><polygon class="cls-11" points="4463.94 100.04 4462.42 101.34 4461.1 100.04 4463.94 100.04"/><polygon class="cls-11" points="4465.06 122.69 4467.6 122.05 4464.44 120.74 4465.06 122.69"/></g><g class="cls-4"><polygon class="cls-12" points="4489.89 135.69 4487.09 135.69 4489.89 137.4 4489.89 135.69"/><polygon class="cls-12" points="4475.66 127.5 4472.86 127.5 4475.66 129.21 4475.66 127.5"/><polygon class="cls-12" points="4481.49 142.84 4478.69 142.84 4481.49 144.55 4481.49 142.84"/><polygon class="cls-12" points="4481.8 122.85 4478.38 123.71 4481.8 125.06 4481.8 122.85"/><polygon class="cls-12" points="4471.85 113.79 4475.01 114.66 4472.47 116.14 4471.85 113.79"/><polygon class="cls-12" points="4474.26 93.73 4477.42 94.59 4474.88 96.07 4474.26 93.73"/><polygon class="cls-12" points="4477.5 106.97 4475.84 106.97 4477.5 108.55 4477.5 106.97"/></g><rect class="cls-14" y="141.12" width="4500" height="21.9"/></g></g></svg>