<svg xmlns="http://www.w3.org/2000/svg" viewBox="0 0 262.64 174.94"><defs><style>.cls-1{fill:#3da4d1;}.cls-2{fill:#e56e6e;}.cls-3{fill:#40b56f;}</style></defs><title>logodisplay</title><g id="Layer_2" data-name="Layer 2"><g id="Layer_1-2" data-name="Layer 1"><path class="cls-1" d="M247.66,143.3q-7.71,6.16-20.3,8.54T191,154.22H161q-7.56,0-14.7,5.88A149.13,149.13,0,0,0,131,174.94a80.55,80.55,0,0,0-14-13.44q-8.67-6.72-16.24-6.72H71.4q-23.52,0-36.12-2.38T15,143.86q-7.7-6.15-15-18.76l10.36-5a49.38,49.38,0,0,0,16,14q9.24,5,24.36,5h51.8q7.29,0,14.84,5.18a94.8,94.8,0,0,1,13.44,11.06q16.8-16.8,28.56-16.8H212q15.12,0,24.36-5a49.38,49.38,0,0,0,16-14l10.36,5Q255.35,137.14,247.66,143.3Z"/><path class="cls-2" d="M236,20.72q-9.24-5-24.36-5H51q-15.12,0-24.36,5a50.93,50.93,0,0,0-16,13.72L.28,29.4a79.35,79.35,0,0,1,12.6-16.94A40.06,40.06,0,0,1,29,3.08Q38.64,0,53.48,0H209.16Q224,0,233.66,3.08a40.06,40.06,0,0,1,16.1,9.38,79.35,79.35,0,0,1,12.6,16.94l-10.36,5A50.93,50.93,0,0,0,236,20.72Z"/><path class="cls-3" d="M19.37,41.52h14.9v71.4H19.37Z"/><path class="cls-3" d="M54.67,41.52h14.9v58.6h33.8l-1.6,12.8H54.67Z"/><path class="cls-3" d="M117.07,41.52h48.7v12.7H132v15.6h31.8v12.8H132v17.6h35.9l-1.5,12.7h-49.3Z"/><path class="cls-3" d="M186.47,41.52h25.3a41.71,41.71,0,0,1,13.85,1.95,22.4,22.4,0,0,1,8.55,5.1,17.29,17.29,0,0,1,4.3,7,25.29,25.29,0,0,1,1.2,7.55,24.42,24.42,0,0,1-2.5,11.6,19.82,19.82,0,0,1-8.4,7.9l14.5,30.3h-16.1l-12-26.8h-14v26.8h-14.7Zm26.3,32.2a19,19,0,0,0,5.8-.75,9,9,0,0,0,3.65-2.1,7.09,7.09,0,0,0,1.85-3.25,16.68,16.68,0,0,0,.5-4.2,11.18,11.18,0,0,0-.6-3.65,7.49,7.49,0,0,0-2.05-3.1,9.88,9.88,0,0,0-4-2.1,23.3,23.3,0,0,0-6.45-.75h-10.3v19.9Z"/></g></g></svg>