<svg xmlns="http://www.w3.org/2000/svg" viewBox="0 0 125.45 252.3"><defs><style>.cls-1{fill:#6c696a;}.cls-2{fill:#b8bab9;}.cls-3{fill:gray;}</style></defs><title>fork</title><g id="Layer_2" data-name="Layer 2"><g id="Layer_13" data-name="Layer 13"><path class="cls-1" d="M123.91,222.53l-18.32-47.3L91.8,139.67,83.9,143,59.62,153.07l-7.9,3.31,13.9,35.84,18,46.44a21.7,21.7,0,0,0,41.84-8.08A22,22,0,0,0,123.91,222.53Z"/><polygon class="cls-2" points="70.93 111.91 70.39 110.66 69.75 109.07 52.08 66.73 51.4 65.04 24.28 0 0 10.13 27.11 75.14 27.8 76.75 45.47 119.06 46.08 120.53 46.58 121.79 52.62 136.26 59.62 153.07 83.9 142.98 76.97 126.39 70.93 111.91"/><circle class="cls-3" cx="101.59" cy="228.74" r="7.5"/></g></g></svg>