<svg xmlns="http://www.w3.org/2000/svg" xmlns:xlink="http://www.w3.org/1999/xlink" viewBox="0 0 189.15 227.45"><defs><style>.cls-1,.cls-14,.cls-15{fill:none;}.cls-2{fill:#191819;}.cls-3{fill:#e6e6e6;}.cls-4{fill:#fcee21;}.cls-5{fill:url(#linear-gradient);}.cls-6{fill:url(#linear-gradient-2);}.cls-7{clip-path:url(#clip-path);}.cls-8{fill:#edd8c3;}.cls-9{fill:#3e2516;}.cls-10{fill:#001129;}.cls-11{fill:#7b848b;}.cls-12{fill:#adb1b6;}.cls-13{fill:#fff;}.cls-14,.cls-15{stroke:#000;stroke-miterlimit:10;}.cls-14{stroke-width:4.76px;}.cls-15{stroke-width:4.76px;}</style><linearGradient id="linear-gradient" x1="4369.66" y1="799.3" x2="4334.34" y2="837.24" gradientTransform="matrix(-0.98, -0.21, -0.21, 0.98, 4554.61, 153.53)" gradientUnits="userSpaceOnUse"><stop offset="0" stop-color="#3f3c3c"/><stop offset="1" stop-color="#191819"/></linearGradient><linearGradient id="linear-gradient-2" x1="4310.39" y1="962.81" x2="4389.95" y2="939.85" xlink:href="#linear-gradient"/><clipPath id="clip-path"><path id="SVGID" class="cls-1" d="M185,78.73c-11.48,1-33.3,0-63.06-14.19,0,0-27.79-17.75-36.69,3.12,0,0-21.63,32.82,95.62,101.35C188.33,141.67,192.93,108.63,185,78.73Z"/></clipPath></defs><title>head</title><g id="Layer_2" data-name="Layer 2"><g id="Layer_10" data-name="Layer 10"><path class="cls-2" d="M5.52,137.23l152.57,90.22s89-163.86-34.27-216.15C123.82,11.3-30.79-55.84,5.52,137.23Z"/><path class="cls-3" d="M185,78.73c-11.48,1-33.3,0-63.06-14.19,0,0-27.79-17.75-36.69,3.12,0,0-21.63,32.82,95.62,101.35C188.33,141.67,192.93,108.63,185,78.73Z"/><polygon class="cls-4" points="118.54 148.36 49.63 62.2 77.68 61.63 41.05 13.31 64.39 55.09 33.37 55.76 118.54 148.36"/><path class="cls-5" d="M178.14,70.67s-25.09,4.63-56.5-14.18c0,0-3-42.13-42.61-50.68C79,5.81,144.09,5.11,178.14,70.67Z"/><path class="cls-6" d="M155.42,217.42S164.12,174.5,55,120.93L52.9,153.26Z"/><g class="cls-7"><path class="cls-8" d="M73.92,44.46l90.56,26.05,4.88,78.9-13.57-2.93-5.27,49.28-33-4.95S78.84,182.48,77.37,152Z"/><path class="cls-9" d="M172.49,75.53s-12.86,19-43.74,17.29l10.38-13.63S115.48,96.9,95.81,96.13l7-9.4S79.14,104.44,63.67,102.6L62.36,37.36Z"/><path class="cls-10" d="M141.8,112c-.35,3.82,1.31,7.1,3.7,7.32s4.61-2.7,5-6.53-1.3-7.1-3.69-7.32S142.15,108.2,141.8,112Z"/></g><path class="cls-11" d="M93.93,72.47a6.41,6.41,0,1,0,7.61-4.91A6.4,6.4,0,0,0,93.93,72.47Z"/><path class="cls-12" d="M95.67,72a5.61,5.61,0,1,0,6.66-4.3A5.59,5.59,0,0,0,95.67,72Z"/><polygon class="cls-13" points="61.75 99.99 23.96 51.37 39.62 51.27 19.55 24.01 32.26 47.51 14.94 47.65 61.75 99.99"/><rect class="cls-14" x="125.31" y="99.86" width="38.04" height="26.95"/><line class="cls-15" x1="125.31" y1="113.1" x2="101.54" y2="113.1"/></g></g></svg>