<svg xmlns="http://www.w3.org/2000/svg" viewBox="0 0 345 345"><defs><style>.cls-1{fill:#999;}.cls-2{fill:#231f20;}</style></defs><title>rear-wheel</title><g id="Layer_2" data-name="Layer 2"><g id="Layer_9" data-name="Layer 9"><rect class="cls-1" x="169" y="34" width="7" height="97"/><rect class="cls-1" x="169" y="218" width="7" height="97"/><rect class="cls-1" x="261" y="119" width="7" height="97" transform="translate(97 432) rotate(-90)"/><rect class="cls-1" x="78" y="122" width="7" height="97" transform="translate(-89 252) rotate(-90)"/><rect class="cls-1" x="104" y="58" width="7" height="97" transform="translate(-43.82 107.21) rotate(-45)"/><rect class="cls-1" x="233" y="58" width="7" height="97" transform="translate(328.42 349.04) rotate(-135)"/><rect class="cls-1" x="104" y="189" width="7" height="97" transform="translate(199.42 -6.45) rotate(45)"/><rect class="cls-1" x="233" y="189" width="7" height="97" transform="translate(571.67 238.21) rotate(135)"/><circle class="cls-2" cx="173" cy="172" r="55"/><path class="cls-2" d="M172.5,0A172.5,172.5,0,1,0,345,172.5,172.5,172.5,0,0,0,172.5,0Zm0,302A129.5,129.5,0,1,1,302,172.5,129.5,129.5,0,0,1,172.5,302Z"/><circle class="cls-2" cx="173" cy="172" r="55"/><circle class="cls-2" cx="173" cy="172" r="55"/></g></g></svg>