<svg xmlns="http://www.w3.org/2000/svg" viewBox="0 0 465.65 659.18"><defs><style>.cls-1{fill:#434a51;}.cls-2{fill:#2f363c;}.cls-3{fill:#010001;}.cls-4{fill:#1f1e1f;}.cls-5{fill:#1c1c1c;}.cls-6{fill:#333231;}.cls-7{fill:#282626;}.cls-8{fill:#191819;}.cls-9{fill:#7b848b;}.cls-10{fill:#adb1b6;}.cls-11{fill:#fff;fill-rule:evenodd;}</style></defs><title>rider</title><g id="Layer_2" data-name="Layer 2"><g id="Layer_11" data-name="Layer 11"><path class="cls-1" d="M415.79,177.18c-2.31-6-1.65-13.31-5.9-18.12-5.84-6.6-18.17-5.14-22.49-12.82,5.57-7.52,14.55-12,23.76-13.62s18.7-.62,27.87,1.18,19,5,23.81,13c4.06,6.83,3.32,15.64.28,23-3.92,9.48-11.94,17.64-22,19.81S419.47,186.75,415.79,177.18Z"/><path class="cls-2" d="M394.44,151c4.14-3,9.76-3,14.81-2.09s10,2.54,15.16,2.26c5.74-.31,11.89-2.95,16.94-.2,2.53,1.37,4.21,3.85,6.13,6s4.51,4.08,7.37,3.81c4.41-.43,6.71-5.68,10.24-8.21,1.26,5.62.27,11.83-2,17.25-3.92,9.48-11.94,17.64-22,19.81s-21.68-2.89-25.36-12.46c-2.31-6-1.65-13.31-5.9-18.12-4.05-4.57-11.22-5.28-16.68-7.84A10.47,10.47,0,0,1,394.44,151Z"/><path class="cls-2" d="M185.63,599.24c.45.13.7.23.7.23,74.77,11.61,58,59.71,58,59.71l-68.72-16.5c-22.82-4.92-23-22.49-23-22.49l-11,13.23-27.2-6.86c-3.15-26.67,13.45-40.31,13.45-40.31l37.61-45.53,31.71,26.36S165.58,593.57,185.63,599.24Z"/><path class="cls-1" d="M176.06,599s-.25-.1-.69-.23C155.32,593.08,187,566.58,187,566.58l-25.38-21.1,3.94-4.76,31.71,26.36s-31.65,26.49-11.6,32.16c.45.13.7.23.7.23,74.77,11.61,58,59.71,58,59.71l-9.75-2.34C236.75,647.92,242.08,609.22,176.06,599Z"/><path class="cls-3" d="M140.55,629.08l11.27-13.57s.17,18,23.58,23.07l69.88,16.78a28.86,28.86,0,0,1-.93,3.82l-68.72-16.5c-22.82-4.92-23-22.49-23-22.49l-11,13.23-27.2-6.86c-.17-1.42-.27-2.8-.34-4.15Z"/><path class="cls-4" d="M20.71,190.89c-3.5-1.45-18.61,55.66-19.21,59.55-3.32,21.46-1.78,44.92,11.17,63.14,11.65,16.4,26.72,21.71,45.22,25.66l96.68,20.65,21.21,4.54s119.93,26.38-22.36,178.18l42.47,32.62s197.45-156.29,41.79-270.86L139.09,237.2Z"/><path class="cls-3" d="M175.43,559.52l-22-16.91c142.29-151.8,22.37-178.18,22.37-178.18l-21.22-4.54L57.89,339.24c-18.5-3.95-33.57-9.26-45.22-25.66C-.28,295.36-1.82,271.9,1.5,250.44c.6-3.89,15.71-61,19.21-59.55l62.06,24.27c-1-.37-4.52,23.54-4.58,25.23-.48,12.86,2.08,25.9,9.14,36.81,27,41.67,82.54,27.09,123.67,30.22,1.3.1,3,.58,3,1.89,0,1.14-1.31,1.76-2.41,2.08-8.19,2.38-16.57,3.92-24.79,6,1.43,7.24,22.37,14.31,29,18.76,22.8,15.23,43.28,40.88,49.27,68,.28,1.23.5,2.61-.19,3.65-5.05,7.53-13.35-16.53-14.16-18.05a11.31,11.31,0,0,0-6-5.51c-1-.34-2.22-.44-2.89.35a3,3,0,0,0-.2,2.63c1.24,5,3.43,9.47,4.46,14.5,1,4.74,1.62,9.54,2.18,14.34.79,6.7,1.86,13.78,1.56,20.56-.7,16-4.49,31.26-12.52,45C232.41,490.19,180.3,563.25,175.43,559.52Z"/><path class="cls-5" d="M280.77,22.62S253.4-26.46,183.42,20c0,0-97.51,67.69-156.52,161.24l114.94,65.18S315.92,67.26,280.77,22.62Z"/><path class="cls-3" d="M183.42,20c49.1-32.57,77.22-18.14,89.63-6.62-23.74-8.41-47.77-3.55-65.89,14a105.29,105.29,0,0,0-18,23.7c-2.52,4.4-5.71,8.86-6.86,13.72-2.25,9.5-1.74,20.58-2.57,30.31q-1.8,21.24-3.59,42.47c-4,.23-7.36-3.33-8.92-7.06s-2-7.88-3.88-11.49-5.8-6.7-9.69-5.59-5.52,5.43-5.7,9.32.7,7.84-.11,11.65-4.24,7.56-8.05,6.75c-5.69-1.23-6.88-6.4-13.13-2.55-4.28,2.63-8.41,7.87-11.58,11.72a85.28,85.28,0,0,0-14.93,27.53c-.69,2.07-12.72,29.53-12.45,29.45L24,180.49C80.15,83.34,183.42,20,183.42,20Z"/><rect class="cls-3" x="12.92" y="204.67" width="147.22" height="15.1" transform="translate(75.31 441.13) rotate(-155.01)"/><path class="cls-6" d="M238.42,24.66s-7.17-19.49-22.25-7.72c0,0-11,7.18-5.06,28.85,0,0,31.55,123.17,199.28,113.62L426.75,127S283.48,138.78,238.42,24.66Z"/><path class="cls-7" d="M216.17,16.94a21,21,0,0,1,4.1-2.56c-2.4,4.33-4.4,11.92-1.05,24.08a118.44,118.44,0,0,0,10.56,24.92c7.13,13.11,17.12,19.88,28.85,25.69,1.52.75,6.31,2,7.24,3.29a2.06,2.06,0,0,1-1.14,3.21c-1.7.61-4.59-.2-6.24-.75s-3.19-2.92-4.31-.55c-1.33,2.78,2.47,5.28,3.73,6.55q2.32,2.31,4.73,4.5,5.1,4.67,10.5,8.81a40.39,40.39,0,0,0,15.56,7.81,33.82,33.82,0,0,0,8.7,1.16c2.4-.1,4.85.52,7.26.82a1.62,1.62,0,0,1,1.51.92,1.54,1.54,0,0,1-.54,1.6,2.77,2.77,0,0,1-1.49.45,38.5,38.5,0,0,1-4.92.13c-.49,0-1.08,0-1.32.53a1.29,1.29,0,0,0,.19,1.24,2.58,2.58,0,0,0,.94.71c4.18,2.23,7.94,5.13,12.5,6,4.28.8,8.73.55,13,.84.42,0,1,.18,1,.69s-.44.87-.87.92c-2.76.28-1,2.69.6,3.48,2.12,1.09,4.64,1.51,6.87,2.16,12.42,3.6,24.89,5.1,37.48,7.36A286,286,0,0,0,414,152.3l-3.59,7.11C242.66,169,211.11,45.79,211.11,45.79,205.14,24.12,216.17,16.94,216.17,16.94Z"/><path class="cls-8" d="M427.34,127.58s-8.65,14.53-10.15,24.45c0,0-4.55,5.53-7.74-1.73,0,0,3.33-18,8.86-24.28C418.31,126,424.79,126.42,427.34,127.58Z"/><path class="cls-9" d="M411.68,148.68a2.39,2.39,0,0,0,1.49,2.79,2,2,0,0,0,2.3-1.82,2.4,2.4,0,0,0-1.5-2.8A2,2,0,0,0,411.68,148.68Z"/><path class="cls-10" d="M412.2,148.51a2.09,2.09,0,0,0,1.31,2.44,1.73,1.73,0,0,0,2-1.59,2.1,2.1,0,0,0-1.31-2.45A1.73,1.73,0,0,0,412.2,148.51Z"/><path class="cls-11" d="M233.64,39.92h0a1.18,1.18,0,0,1-.45.28,1.09,1.09,0,0,1-.62,0,7.36,7.36,0,0,0-4.66,0,8.92,8.92,0,0,0-4,2.85,1.26,1.26,0,0,1-.56.41,1.08,1.08,0,0,1-.5,0l-5.54-.75,15.33,18.39,5.42-25.36Zm-3.81,12.23-4.61-5.53,3.46.47Zm1.44-.49-1.14-5L232.9,44Z"/></g></g></svg>