<svg xmlns="http://www.w3.org/2000/svg" viewBox="0 0 1250.87 706.26"><defs><style>.cls-1{fill:#1a1a1a;}.cls-2{fill:#4d4d4d;}.cls-3{fill:#333;}.cls-4{fill:#1a75ab;}.cls-5{fill:#6c696a;}.cls-6{fill:#b8bab9;}.cls-7{fill:#ca3440;}.cls-8{fill:#e6e6e6;}.cls-9{fill:#666;}.cls-10{fill:#999;}.cls-11{fill:#b3b3b3;}.cls-12{fill:#c7b299;}.cls-13{fill:#231f20;}.cls-14{fill:gray;}.cls-15{fill:#fff;fill-rule:evenodd;}</style></defs><title>tiger</title><g id="Layer_2" data-name="Layer 2"><g id="Layer_1-2" data-name="Layer 1"><polygon points="218.89 314.26 664.89 444.26 897.89 332.26 949.89 444.26 835.89 662.26 682.89 652.26 647.89 613.26 526.89 489.26 218.89 344.26 218.89 314.26"/><path class="cls-1" d="M822.17,420.19l15.79-9.6s20.44-15.22,49.35,9.66c0,0,26.55.33,35.49,21.37l3.94,16.92,1,10.28-25.84,25-34.55,48.29L853,572.28s23.16,7,28.87,36.42l4.42,39.93-6.16,21.72L860.73,667l-33.37,15.55-97.1-.65L705.66,667l-1.87-19.42s-14.82-4.34-15.26-8.91S699,601.52,699,601.52l1.34-9.93s-38.65-30.28-17-69.26S736,489.58,736,489.58s26.6.9,41.45,17.34c0,0,10.65,20.88,11.07,31.21l7.62-22.63L814,461.32l2.58-33.1Z"/><path class="cls-2" d="M822.17,420.19s2.71,22.22,19.45,34.44a68.36,68.36,0,0,1,28,3.07s9.78,11.74,19.3,14.86c0,0,22.36,4.76,38.84-3.74,0,0,5.6-49.54-40.42-48.57C887.31,420.25,855.86,387,822.17,420.19Z"/><polygon class="cls-3" points="822.17 420.19 858.2 435.16 884.07 446.5 927.73 468.82 926.74 458.54 828.87 416.11 822.17 420.19"/><circle class="cls-3" cx="798.89" cy="594.5" r="31.27"/><circle class="cls-2" cx="734.52" cy="545.64" r="57.95"/><circle class="cls-3" cx="734.84" cy="545.9" r="36.44"/><circle class="cls-1" cx="855.64" cy="432.53" r="11.48"/><circle class="cls-1" cx="898.17" cy="449.18" r="11.48"/><circle class="cls-2" cx="862.68" cy="604.49" r="23.81"/><polygon class="cls-2" points="873.27 495.97 846.24 550.45 841.97 547.98 869.05 494.07 873.27 495.97"/><polygon class="cls-2" points="809.18 533.2 836.75 478.66 832.47 476.9 804.83 530.88 809.18 533.2"/><polygon class="cls-2" points="832.16 487.52 864.34 502.93 866.34 498.94 834.05 483.77 832.16 487.52"/><polygon class="cls-2" points="829.68 492.92 861.76 508.57 859.85 512.39 827.79 496.67 829.68 492.92"/><polygon class="cls-2" points="821 510.48 853.08 526.13 851.16 529.95 819.1 514.23 821 510.48"/><polygon class="cls-2" points="816.11 519.59 848.19 535.25 846.27 539.07 814.22 523.35 816.11 519.59"/><path class="cls-4" d="M734.84,336.59l-3.45-12.9-.28-2.51c20-18.5,113.09-102.72,151.74-102.72,21.91,0,51.07-2.69,103.22,8.44l31.75,7.79c5.24,1.44,10.66,3,16.3,4.75,29.7,9,65,21.72,107.28,39.75,24.07,10.24,50.39,22.2,79.27,36.13l30.2,33.37-168-34a177.18,177.18,0,0,0-30,4.17L1028,327.39c-10,5-18.71,11.78-23,21.3C1005,348.69,884.79,406.91,734.84,336.59Z"/><polygon class="cls-5" points="1066.73 362.06 1042.48 372.19 1034.58 375.46 1047.91 407.42 1055.81 404.15 1080.09 394.03 1087.99 390.72 1074.66 358.76 1066.73 362.06"/><path class="cls-5" d="M989.22,183.74a13.48,13.48,0,0,0-5.21-4.38L908.52,143c-6.72-3.23-15.16-1.07-18.71,5.46a13.74,13.74,0,0,0,6.1,19l76.18,36.67a2.18,2.18,0,0,1,.39.15l8.59,20.61,31.75,7.79-17-40.58S991.27,186.65,989.22,183.74Z"/><polygon class="cls-6" points="1047.91 316.88 1022.98 325.39 1042.48 372.19 1066.73 362.06 1047.91 316.88"/><polygon class="cls-7" points="101.01 288.6 142.55 311.14 131.99 250.34 89.33 245 101.01 288.6"/><polyline class="cls-3" points="1116.89 372.26 744.89 336.26 730.89 320.26 784.89 301.26 1012.89 294.26 1075.89 315.26 1116.89 372.26"/><path class="cls-3" d="M1012.89,294.26s-63.27-73.49-62.71-73.48c58.71,1.48,171.71,50.48,171.71,50.48l8,53-54-9Z"/><path class="cls-6" d="M1029.12,237.44l114.07-60.06C1103,99.27,1020.65,0,1020.65,0L987.32,58.51c87.16,36.34,71.22,91.9,41.8,178.93"/><polygon class="cls-1" points="1123.89 187.26 1028.89 237.26 1121.89 271.26 1123.89 187.26"/><path class="cls-8" d="M1123.89,187.26l19-10s23,64-4,101l-17-7Z"/><polygon class="cls-9" points="744.89 336.26 771.89 367.26 897.89 398.26 939.89 485.26 1116.89 371.26 744.89 336.26"/><polygon class="cls-3" points="609.89 449.26 661.89 470.26 825.89 380.26 771.89 367.26 609.89 449.26"/><path class="cls-10" d="M823.89,380.26l-161,90-221-91s-109-59-223-65v19s93,2,183,48l263,103,177-100Z"/><path class="cls-10" d="M858.89,388.26s-43.5,19.5-54,63l-11-6s11.5-39.5,48-61Z"/><polygon class="cls-10" points="763.37 429.23 804.89 451.26 797.89 460.26 751.41 435.91 763.37 429.23"/><path class="cls-10" d="M706.89,477.26l79.57-23,11.43,6-5,6-84,25s-40,6-37,43l8,58,5,33-15-4-11-87S644.89,493.26,706.89,477.26Z"/><path class="cls-10" d="M650.89,615.26l-31-79s-8-34,16-48l15-9.48,14,5.48-17,12s-26.5,9.5-10.5,46.5l32,78Z"/><polygon class="cls-10" points="545.98 437.69 557.04 442.02 574.39 517.76 562.39 509.76 545.98 437.69"/><polygon class="cls-10" points="520.15 427.96 478.39 459.76 468.39 453.76 508.21 422.9 520.15 427.96"/><polygon class="cls-10" points="624.24 547.33 382.39 403.76 296.39 359.76 218.39 332.76 218.39 345.76 294.39 371.76 631.73 566.43 624.24 547.33"/><path class="cls-11" d="M465.24,460.55l-82-46.29-135.44-76.8-14.17,25-15.56,27.43-15.64,27.6,47.47,26.94,44.5,25.23,156.74,88,9.22-15.16,6-10.53,16.36-28.81,6.16-10.88,7.78-13.72-30.92-17.54Z"/><polygon class="cls-9" points="247.89 337.26 202.89 334.26 183.89 373.26 202.89 417.26 247.89 337.26"/><path class="cls-12" d="M897.89,498.26s13,52-11,137c0,0,3,20-59,36l-141-5s-21-3-33-22-51-83-51-83l-121-58-15,27.5,123,62.5,47,74s21,27,45,29,148,5,148,5,77-28,82-58l15.5-67.5s4.64-75-6.68-99.5Z"/><polygon class="cls-3" points="281.89 265.26 131.89 250.26 141.89 311.26 218.89 333.26 218.89 314.26 344.89 339.26 281.89 265.26"/><path class="cls-13" d="M445.21,279.91,281.62,265.67c2.16,8.41,24.07,30.22,26.71,33.22,13.56,15.37,27.39,28.3,34.64,39.75l85.54,34.11c112.38,57.51,166.9,82.72,168.19,82.72l175.19-88.21-41-47c-48.73,18.68-87,85-239-3Z"/><polygon class="cls-10" points="872.89 630.26 847.89 656.26 738.89 656.26 690.89 701.26 838.89 706.26 905.89 673.26 923.89 626.26 872.89 630.26"/><polygon class="cls-2" points="610.89 606.26 704.89 627.26 704.89 653.26 631.89 673.26 610.89 606.26"/><rect class="cls-14" x="693.89" y="653.26" width="35" height="17"/><rect class="cls-2" x="5.89" y="110.26" width="304" height="145" transform="translate(17.04 -13.43) rotate(5.15)"/><rect class="cls-9" x="8.88" y="139.1" width="304" height="10.89" transform="translate(13.62 -13.86) rotate(5.15)"/><g id="g12"><path id="path102" class="cls-15" d="M895,262.14s.53.42.53,2.25v10.37c0,1.24.36,1.59,1.06,1.59H900a2.87,2.87,0,0,1-.59-1.7V264.09c0-1.42-.23-2-1.06-2s-3.3.06-3.3.06"/><path id="path104" class="cls-15" d="M901.86,262.08a2,2,0,0,1,.53,1.6v8.78c0,2.66,2.24,4.37,5.25,4.37,2.71,0,3.71-1.42,3.71-1.42a1.2,1.2,0,0,0,1.12,1c.95,0,3.19-.06,3.19-.06a3.82,3.82,0,0,1-.59-1.88V262.08h-4.36a3.52,3.52,0,0,1,.53,1.83c0,1.06-.06,6-.06,7.31s-.47,2.83-2.54,2.83-2.36-2.06-2.36-2.83v-7.78c0-.71-.41-1.41-.94-1.41l-3.48.05"/><path id="path106" class="cls-15" d="M917.43,262.08a2.37,2.37,0,0,1,.76,1.95v10.32a2.89,2.89,0,0,1-.59,2h4.07a3.27,3.27,0,0,1-.53-2v-7.9s1.65,3.36,2.66,5,1.88,1.77,2.71,1.83a2,2,0,0,0,1.18-.18,61.78,61.78,0,0,1,3-7.19c-.12.12,0,7.43,0,8.67a2.65,2.65,0,0,1-.59,1.82h4.48a4.19,4.19,0,0,1-.59-1.94V263.91a3.06,3.06,0,0,1,.59-1.83s-3.6.06-4.43.06-1.23.42-1.65,1.54-2.06,5.3-2.06,5.3-2.12-4.36-2.59-5.42S923,262,922.15,262l-4.72.05"/><path id="path108" class="cls-15" d="M941.07,264.5s1.3-.06,1.71-.06,2.07.48,2.07,1.89c0,2.95-3.78,3.36-3.78,3.36Zm-4.6-2.47h7.61a4.23,4.23,0,0,1,4.25,4.54c0,4.54-7.26,5.48-7.26,5.48v3c0,1.12-.47,1.29-.94,1.29h-3.66a3.23,3.23,0,0,0,.65-1.76V263.68a2.9,2.9,0,0,0-.65-1.65"/><path id="path110" class="cls-15" d="M963.36,274.7V262.08h-4.54a4.89,4.89,0,0,1,.53,1.89v2a12.69,12.69,0,0,0-5.54,2.41v-6.31h-4.54a4.89,4.89,0,0,1,.53,1.89v7.34c-6.5,4.88-15.48,11.34-32.2,11.47C896,283,889.83,271,889.83,271a5.08,5.08,0,0,0,3.07-4.48,4.33,4.33,0,0,0-4.07-4.48c-2,0-6.37.11-6.37.11l-.35-3.71s-2.83.29-7.61.29-7.25-.23-7.25-.23l-.36,4.42a29.34,29.34,0,0,1,5.72-.88s-.06,4.36-.06,8.13a19.18,19.18,0,0,1-.94,6.25l6.19-.06a19.93,19.93,0,0,1-1-6.42V262s4,.23,4.6.59a1.16,1.16,0,0,1,.59,1v11a4.77,4.77,0,0,1-.53,1.82l4.77-.06a3.28,3.28,0,0,1-.47-1.41c0-.65-.06-3-.06-3l.59-.06s8.67,13,31,13c15.69,0,25.56-5.51,32.54-9.93h0c.12,1,.49,1.49,1,1.49h3.48a3.07,3.07,0,0,1-.53-1.71v-3a20.51,20.51,0,0,1,5.54-3.11v5.54c0,1.48.42,2.24,1.06,2.24h3.48A3.07,3.07,0,0,1,963.36,274.7Zm-77.6-10.2h1.59c.65,0,2.19.47,2.19,1.89,0,2.89-3.84,3.24-3.84,3.24l.06-5.13"/></g></g></g></svg>