<svg xmlns="http://www.w3.org/2000/svg" viewBox="0 0 258.78 259.18"><defs><style>.cls-1{fill:#3da4d1;}.cls-2{fill:#69d6a7;}.cls-3{fill:#e56e6e;}</style></defs><title>logo3</title><g id="Layer_2" data-name="Layer 2"><g id="Layer_1-2" data-name="Layer 1"><path class="cls-1" d="M258.54,94q-1.1,9.8-8.32,20.39t-24.06,27.42L205,163q-5.34,5.34-6.24,14.55a148.11,148.11,0,0,0-.29,21.28,80.67,80.67,0,0,0-19.41.4q-10.89,1.38-16.23,6.73L142,226.76q-16.64,16.62-27.22,23.86t-20.4,8.31q-9.8,1.1-23.86-2.67l3.77-10.89A49.37,49.37,0,0,0,95.49,244q10.1-3,20.79-13.66l36.63-36.63q5.15-5.15,14.15-6.83a94.55,94.55,0,0,1,17.33-1.68q0-23.76,8.31-32.08l37.23-37.22q10.68-10.68,13.66-20.79A49.38,49.38,0,0,0,245,73.91l10.89-3.76Q259.63,84.2,258.54,94Z"/><path class="cls-2" d="M163.64,15.55q-10.09,3-20.79,13.66L29.21,142.85q-10.7,10.69-13.66,20.79a50.92,50.92,0,0,0-1.59,21L3.07,188.39A79.37,79.37,0,0,1,0,167.5a40,40,0,0,1,4.75-18q4.67-9,15.15-19.51L130,19.9q10.5-10.5,19.51-15.15A40,40,0,0,1,167.5,0a79.37,79.37,0,0,1,20.89,3.07L184.63,14A50.92,50.92,0,0,0,163.64,15.55Z"/><path class="cls-3" d="M25.14,183.46l10.54-10.54,50.48,50.49L75.63,234Z"/><path class="cls-3" d="M50.1,158.5,60.64,148l41.43,41.44L126,165.5l7.92,10.18L100.59,209Z"/><path class="cls-3" d="M94.23,114.38l34.43-34.44,9,9-23.9,23.9,11,11,22.49-22.48,9.05,9L133.82,132.9l12.45,12.45L171.65,120l7.92,10-34.86,34.86Z"/><path class="cls-3" d="M143.3,65.3l17.89-17.88A41.69,41.69,0,0,1,172.36,39,22.39,22.39,0,0,1,182,36.56a17.29,17.29,0,0,1,8,1.91A25.37,25.37,0,0,1,196.19,43a24.42,24.42,0,0,1,6.43,10,19.79,19.79,0,0,1-.35,11.53L234,75.63,222.56,87,195.13,76.55l-9.9,9.9,19,19-10.4,10.39Zm41.36,4.18a19,19,0,0,0,3.57-4.64,9,9,0,0,0,1.1-4.06,7.09,7.09,0,0,0-1-3.61,16.22,16.22,0,0,0-2.62-3.32,11.12,11.12,0,0,0-3-2.16,7.53,7.53,0,0,0-3.64-.74,10,10,0,0,0-4.32,1.34,23.77,23.77,0,0,0-5.09,4l-7.28,7.29,14.07,14.07Z"/></g></g></svg>